<svg width="250" height="79" viewBox="0 0 250 79" fill="none" xmlns="http://www.w3.org/2000/svg">
<rect width="250" height="79" fill="white"/>
<rect x="0.5" y="0.5" width="249" height="78" rx="8.5" stroke="#EBEBEB"/>
<circle cx="9.93945" cy="6.78247" r="1.5" fill="#F2F3F4"/>
<circle cx="20.8975" cy="6.78247" r="1.5" fill="#F2F3F4"/>
<circle cx="31.8555" cy="6.78247" r="1.5" fill="#F2F3F4"/>
<circle cx="42.8135" cy="6.78247" r="1.5" fill="#F2F3F4"/>
<circle cx="53.7725" cy="6.78247" r="1.5" fill="#F2F3F4"/>
<circle cx="64.7305" cy="6.78247" r="1.5" fill="#F2F3F4"/>
<circle cx="75.6885" cy="6.78247" r="1.5" fill="#F2F3F4"/>
<circle cx="86.6465" cy="6.78247" r="1.5" fill="#F2F3F4"/>
<circle cx="97.6045" cy="6.78247" r="1.5" fill="#F2F3F4"/>
<circle cx="108.562" cy="6.78247" r="1.5" fill="#F2F3F4"/>
<circle cx="119.521" cy="6.78247" r="1.5" fill="#F2F3F4"/>
<circle cx="130.479" cy="6.78247" r="1.5" fill="#F2F3F4"/>
<circle cx="141.438" cy="6.78247" r="1.5" fill="#F2F3F4"/>
<circle cx="152.396" cy="6.78247" r="1.5" fill="#F2F3F4"/>
<circle cx="163.354" cy="6.78247" r="1.5" fill="#F2F3F4"/>
<circle cx="174.312" cy="6.78247" r="1.5" fill="#F2F3F4"/>
<circle cx="185.271" cy="6.78247" r="1.5" fill="#F2F3F4"/>
<circle cx="196.229" cy="6.78247" r="1.5" fill="#F2F3F4"/>
<circle cx="207.187" cy="6.78247" r="1.5" fill="#F2F3F4"/>
<circle cx="218.145" cy="6.78247" r="1.5" fill="#F2F3F4"/>
<circle cx="229.103" cy="6.78247" r="1.5" fill="#F2F3F4"/>
<circle cx="240.061" cy="6.78247" r="1.5" fill="#F2F3F4"/>
<circle cx="9.93945" cy="16.1301" r="1.5" fill="#F2F3F4"/>
<circle cx="20.8975" cy="16.1301" r="1.5" fill="#F2F3F4"/>
<circle cx="31.8555" cy="16.1301" r="1.5" fill="#F2F3F4"/>
<circle cx="42.8135" cy="16.1301" r="1.5" fill="#F2F3F4"/>
<circle cx="53.7725" cy="16.1301" r="1.5" fill="#F2F3F4"/>
<circle cx="64.7305" cy="16.1301" r="1.5" fill="#F2F3F4"/>
<circle cx="75.6885" cy="16.1301" r="1.5" fill="#F2F3F4"/>
<circle cx="86.6465" cy="16.1301" r="1.5" fill="#F2F3F4"/>
<circle cx="97.6045" cy="16.1301" r="1.5" fill="#F2F3F4"/>
<circle cx="108.562" cy="16.1301" r="1.5" fill="#F2F3F4"/>
<circle cx="119.521" cy="16.1301" r="1.5" fill="#F2F3F4"/>
<circle cx="130.479" cy="16.1301" r="1.5" fill="#F2F3F4"/>
<circle cx="141.438" cy="16.1301" r="1.5" fill="#F2F3F4"/>
<circle cx="152.396" cy="16.1301" r="1.5" fill="#F2F3F4"/>
<circle cx="163.354" cy="16.1301" r="1.5" fill="#F2F3F4"/>
<circle cx="174.312" cy="16.1301" r="1.5" fill="#F2F3F4"/>
<circle cx="185.271" cy="16.1301" r="1.5" fill="#F2F3F4"/>
<circle cx="196.229" cy="16.1301" r="1.5" fill="#F2F3F4"/>
<circle cx="207.187" cy="16.1301" r="1.5" fill="#F2F3F4"/>
<circle cx="218.145" cy="16.1301" r="1.5" fill="#F2F3F4"/>
<circle cx="229.103" cy="16.1301" r="1.5" fill="#F2F3F4"/>
<circle cx="240.061" cy="16.1301" r="1.5" fill="#F2F3F4"/>
<circle cx="9.93945" cy="25.4783" r="1.5" fill="#F2F3F4"/>
<circle cx="20.8975" cy="25.4783" r="1.5" fill="#F2F3F4"/>
<circle cx="31.8555" cy="25.4783" r="1.5" fill="#F2F3F4"/>
<circle cx="42.8135" cy="25.4783" r="1.5" fill="#F2F3F4"/>
<circle cx="53.7725" cy="25.4783" r="1.5" fill="#F2F3F4"/>
<circle cx="64.7305" cy="25.4783" r="1.5" fill="#F2F3F4"/>
<circle cx="75.6885" cy="25.4783" r="1.5" fill="#F2F3F4"/>
<circle cx="86.6465" cy="25.4783" r="1.5" fill="#F2F3F4"/>
<circle cx="97.6045" cy="25.4783" r="1.5" fill="#F2F3F4"/>
<circle cx="108.562" cy="25.4783" r="1.5" fill="#F2F3F4"/>
<circle cx="119.521" cy="25.4783" r="1.5" fill="#F2F3F4"/>
<circle cx="130.479" cy="25.4783" r="1.5" fill="#F2F3F4"/>
<circle cx="141.438" cy="25.4783" r="1.5" fill="#F2F3F4"/>
<circle cx="152.396" cy="25.4783" r="1.5" fill="#F2F3F4"/>
<circle cx="163.354" cy="25.4783" r="1.5" fill="#F2F3F4"/>
<circle cx="174.312" cy="25.4783" r="1.5" fill="#F2F3F4"/>
<circle cx="185.271" cy="25.4783" r="1.5" fill="#F2F3F4"/>
<circle cx="196.229" cy="25.4783" r="1.5" fill="#F2F3F4"/>
<circle cx="207.187" cy="25.4783" r="1.5" fill="#F2F3F4"/>
<circle cx="218.145" cy="25.4783" r="1.5" fill="#F2F3F4"/>
<circle cx="229.103" cy="25.4783" r="1.5" fill="#F2F3F4"/>
<circle cx="240.061" cy="25.4783" r="1.5" fill="#F2F3F4"/>
<circle cx="9.93945" cy="34.8259" r="1.5" fill="#F2F3F4"/>
<circle cx="20.8975" cy="34.8259" r="1.5" fill="#F2F3F4"/>
<circle cx="31.8555" cy="34.8259" r="1.5" fill="#F2F3F4"/>
<circle cx="42.8135" cy="34.8259" r="1.5" fill="#F2F3F4"/>
<circle cx="53.7725" cy="34.8259" r="1.5" fill="#F2F3F4"/>
<circle cx="64.7305" cy="34.8259" r="1.5" fill="#F2F3F4"/>
<circle cx="75.6885" cy="34.8259" r="1.5" fill="#F2F3F4"/>
<circle cx="86.6465" cy="34.8259" r="1.5" fill="#F2F3F4"/>
<circle cx="97.6045" cy="34.8259" r="1.5" fill="#F2F3F4"/>
<circle cx="108.562" cy="34.8259" r="1.5" fill="#F2F3F4"/>
<circle cx="119.521" cy="34.8259" r="1.5" fill="#F2F3F4"/>
<circle cx="130.479" cy="34.8259" r="1.5" fill="#F2F3F4"/>
<circle cx="141.438" cy="34.8259" r="1.5" fill="#F2F3F4"/>
<circle cx="152.396" cy="34.8259" r="1.5" fill="#F2F3F4"/>
<circle cx="163.354" cy="34.8259" r="1.5" fill="#F2F3F4"/>
<circle cx="174.312" cy="34.8259" r="1.5" fill="#F2F3F4"/>
<circle cx="185.271" cy="34.8259" r="1.5" fill="#F2F3F4"/>
<circle cx="196.229" cy="34.8259" r="1.5" fill="#F2F3F4"/>
<circle cx="207.187" cy="34.8259" r="1.5" fill="#F2F3F4"/>
<circle cx="218.145" cy="34.8259" r="1.5" fill="#F2F3F4"/>
<circle cx="229.103" cy="34.8259" r="1.5" fill="#F2F3F4"/>
<circle cx="240.061" cy="34.8259" r="1.5" fill="#F2F3F4"/>
<circle cx="9.93945" cy="44.1741" r="1.5" fill="#F2F3F4"/>
<circle cx="20.8975" cy="44.1741" r="1.5" fill="#F2F3F4"/>
<circle cx="31.8555" cy="44.1741" r="1.5" fill="#F2F3F4"/>
<circle cx="42.8135" cy="44.1741" r="1.5" fill="#F2F3F4"/>
<circle cx="53.7725" cy="44.1741" r="1.5" fill="#F2F3F4"/>
<circle cx="64.7305" cy="44.1741" r="1.5" fill="#F2F3F4"/>
<circle cx="75.6885" cy="44.1741" r="1.5" fill="#F2F3F4"/>
<circle cx="86.6465" cy="44.1741" r="1.5" fill="#F2F3F4"/>
<circle cx="97.6045" cy="44.1741" r="1.5" fill="#F2F3F4"/>
<circle cx="108.562" cy="44.1741" r="1.5" fill="#F2F3F4"/>
<circle cx="119.521" cy="44.1741" r="1.5" fill="#F2F3F4"/>
<circle cx="130.479" cy="44.1741" r="1.5" fill="#F2F3F4"/>
<circle cx="141.438" cy="44.1741" r="1.5" fill="#F2F3F4"/>
<circle cx="152.396" cy="44.1741" r="1.5" fill="#F2F3F4"/>
<circle cx="163.354" cy="44.1741" r="1.5" fill="#F2F3F4"/>
<circle cx="174.312" cy="44.1741" r="1.5" fill="#F2F3F4"/>
<circle cx="185.271" cy="44.1741" r="1.5" fill="#F2F3F4"/>
<circle cx="196.229" cy="44.1741" r="1.5" fill="#F2F3F4"/>
<circle cx="207.187" cy="44.1741" r="1.5" fill="#F2F3F4"/>
<circle cx="218.145" cy="44.1741" r="1.5" fill="#F2F3F4"/>
<circle cx="229.103" cy="44.1741" r="1.5" fill="#F2F3F4"/>
<circle cx="240.061" cy="44.1741" r="1.5" fill="#F2F3F4"/>
<circle cx="9.93945" cy="53.5217" r="1.5" fill="#F2F3F4"/>
<circle cx="20.8975" cy="53.5217" r="1.5" fill="#F2F3F4"/>
<circle cx="31.8555" cy="53.5217" r="1.5" fill="#F2F3F4"/>
<circle cx="42.8135" cy="53.5217" r="1.5" fill="#F2F3F4"/>
<circle cx="53.7725" cy="53.5217" r="1.5" fill="#F2F3F4"/>
<circle cx="64.7305" cy="53.5217" r="1.5" fill="#F2F3F4"/>
<circle cx="75.6885" cy="53.5217" r="1.5" fill="#F2F3F4"/>
<circle cx="86.6465" cy="53.5217" r="1.5" fill="#F2F3F4"/>
<circle cx="97.6045" cy="53.5217" r="1.5" fill="#F2F3F4"/>
<circle cx="108.562" cy="53.5217" r="1.5" fill="#F2F3F4"/>
<circle cx="119.521" cy="53.5217" r="1.5" fill="#F2F3F4"/>
<circle cx="130.479" cy="53.5217" r="1.5" fill="#F2F3F4"/>
<circle cx="141.438" cy="53.5217" r="1.5" fill="#F2F3F4"/>
<circle cx="152.396" cy="53.5217" r="1.5" fill="#F2F3F4"/>
<circle cx="163.354" cy="53.5217" r="1.5" fill="#F2F3F4"/>
<circle cx="174.312" cy="53.5217" r="1.5" fill="#F2F3F4"/>
<circle cx="185.271" cy="53.5217" r="1.5" fill="#F2F3F4"/>
<circle cx="196.229" cy="53.5217" r="1.5" fill="#F2F3F4"/>
<circle cx="207.187" cy="53.5217" r="1.5" fill="#F2F3F4"/>
<circle cx="218.145" cy="53.5217" r="1.5" fill="#F2F3F4"/>
<circle cx="229.103" cy="53.5217" r="1.5" fill="#F2F3F4"/>
<circle cx="240.061" cy="53.5217" r="1.5" fill="#F2F3F4"/>
<circle cx="9.93945" cy="62.8699" r="1.5" fill="#F2F3F4"/>
<circle cx="20.8975" cy="62.8699" r="1.5" fill="#F2F3F4"/>
<circle cx="31.8555" cy="62.8699" r="1.5" fill="#F2F3F4"/>
<circle cx="42.8135" cy="62.8699" r="1.5" fill="#F2F3F4"/>
<circle cx="53.7725" cy="62.8699" r="1.5" fill="#F2F3F4"/>
<circle cx="64.7305" cy="62.8699" r="1.5" fill="#F2F3F4"/>
<circle cx="75.6885" cy="62.8699" r="1.5" fill="#F2F3F4"/>
<circle cx="86.6465" cy="62.8699" r="1.5" fill="#F2F3F4"/>
<circle cx="97.6045" cy="62.8699" r="1.5" fill="#F2F3F4"/>
<circle cx="108.562" cy="62.8699" r="1.5" fill="#F2F3F4"/>
<circle cx="119.521" cy="62.8699" r="1.5" fill="#F2F3F4"/>
<circle cx="130.479" cy="62.8699" r="1.5" fill="#F2F3F4"/>
<circle cx="141.438" cy="62.8699" r="1.5" fill="#F2F3F4"/>
<circle cx="152.396" cy="62.8699" r="1.5" fill="#F2F3F4"/>
<circle cx="163.354" cy="62.8699" r="1.5" fill="#F2F3F4"/>
<circle cx="174.312" cy="62.8699" r="1.5" fill="#F2F3F4"/>
<circle cx="185.271" cy="62.8699" r="1.5" fill="#F2F3F4"/>
<circle cx="196.229" cy="62.8699" r="1.5" fill="#F2F3F4"/>
<circle cx="207.187" cy="62.8699" r="1.5" fill="#F2F3F4"/>
<circle cx="218.145" cy="62.8699" r="1.5" fill="#F2F3F4"/>
<circle cx="229.103" cy="62.8699" r="1.5" fill="#F2F3F4"/>
<circle cx="240.061" cy="62.8699" r="1.5" fill="#F2F3F4"/>
<circle cx="9.93945" cy="72.2175" r="1.5" fill="#F2F3F4"/>
<circle cx="20.8975" cy="72.2175" r="1.5" fill="#F2F3F4"/>
<circle cx="31.8555" cy="72.2175" r="1.5" fill="#F2F3F4"/>
<circle cx="42.8135" cy="72.2175" r="1.5" fill="#F2F3F4"/>
<circle cx="53.7725" cy="72.2175" r="1.5" fill="#F2F3F4"/>
<circle cx="64.7305" cy="72.2175" r="1.5" fill="#F2F3F4"/>
<circle cx="75.6885" cy="72.2175" r="1.5" fill="#F2F3F4"/>
<circle cx="86.6465" cy="72.2175" r="1.5" fill="#F2F3F4"/>
<circle cx="97.6045" cy="72.2175" r="1.5" fill="#F2F3F4"/>
<circle cx="108.562" cy="72.2175" r="1.5" fill="#F2F3F4"/>
<circle cx="119.521" cy="72.2175" r="1.5" fill="#F2F3F4"/>
<circle cx="130.479" cy="72.2175" r="1.5" fill="#F2F3F4"/>
<circle cx="141.438" cy="72.2175" r="1.5" fill="#F2F3F4"/>
<circle cx="152.396" cy="72.2175" r="1.5" fill="#F2F3F4"/>
<circle cx="163.354" cy="72.2175" r="1.5" fill="#F2F3F4"/>
<circle cx="174.312" cy="72.2175" r="1.5" fill="#F2F3F4"/>
<circle cx="185.271" cy="72.2175" r="1.5" fill="#F2F3F4"/>
<circle cx="196.229" cy="72.2175" r="1.5" fill="#F2F3F4"/>
<circle cx="207.187" cy="72.2175" r="1.5" fill="#F2F3F4"/>
<circle cx="218.145" cy="72.2175" r="1.5" fill="#F2F3F4"/>
<circle cx="229.103" cy="72.2175" r="1.5" fill="#F2F3F4"/>
<circle cx="240.061" cy="72.2175" r="1.5" fill="#F2F3F4"/>
<rect x="1" y="37" width="248.004" height="5" fill="#7FE49B" fill-opacity="0.8"/>
<rect x="28.3135" y="22.9783" width="30" height="5" rx="2.5" fill="#007FFF"/>
<rect x="94.0625" y="22.9783" width="30" height="5" rx="2.5" fill="#007FFF"/>
<rect x="181.729" y="22.9783" width="30" height="5" rx="2.5" fill="#007FFF"/>
<rect x="115.979" y="13.6301" width="30" height="5" rx="2.5" fill="#007FFF"/>
<rect x="115.979" y="51.0217" width="30" height="5" rx="2.5" fill="#007FFF"/>
<path d="M9.87945 49.5981C9.91145 49.5821 9.94612 49.5741 9.98345 49.5741H10.4155C10.4688 49.5741 10.4955 49.6007 10.4955 49.6541V55.0941C10.4955 55.1474 10.4688 55.1741 10.4155 55.1741H10.0075C9.95412 55.1741 9.92745 55.1474 9.92745 55.0941V50.2221C9.92745 50.2114 9.92212 50.2034 9.91145 50.1981C9.90612 50.1927 9.89812 50.1927 9.88745 50.1981L9.03945 50.5421L9.00745 50.5501C8.97545 50.5501 8.95412 50.5287 8.94345 50.4861L8.90345 50.1821V50.1661C8.90345 50.1394 8.92212 50.1127 8.95945 50.0861L9.87945 49.5981ZM12.6998 49.5981C12.7318 49.5821 12.7664 49.5741 12.8038 49.5741H13.2358C13.2891 49.5741 13.3158 49.6007 13.3158 49.6541V55.0941C13.3158 55.1474 13.2891 55.1741 13.2358 55.1741H12.8278C12.7744 55.1741 12.7478 55.1474 12.7478 55.0941V50.2221C12.7478 50.2114 12.7424 50.2034 12.7318 50.1981C12.7264 50.1927 12.7184 50.1927 12.7078 50.1981L11.8598 50.5421L11.8278 50.5501C11.7958 50.5501 11.7744 50.5287 11.7638 50.4861L11.7238 50.1821V50.1661C11.7238 50.1394 11.7424 50.1127 11.7798 50.0861L12.6998 49.5981ZM15.2646 55.1741C15.238 55.1741 15.2166 55.1661 15.2006 55.1501C15.19 55.1287 15.19 55.1047 15.2006 55.0781L17.0486 50.1101C17.054 50.0994 17.054 50.0914 17.0486 50.0861C17.0433 50.0754 17.0353 50.0701 17.0246 50.0701H14.8646C14.8433 50.0701 14.8326 50.0807 14.8326 50.1021V50.4701C14.8326 50.5234 14.806 50.5501 14.7526 50.5501H14.4246C14.3713 50.5501 14.3446 50.5234 14.3446 50.4701L14.3526 49.6541C14.3526 49.6007 14.3793 49.5741 14.4326 49.5741H17.5846C17.638 49.5741 17.6646 49.6007 17.6646 49.6541V50.0221C17.6646 50.0434 17.6593 50.0754 17.6486 50.1181L15.8086 55.1101C15.7926 55.1527 15.7606 55.1741 15.7126 55.1741H15.2646ZM18.0865 55.8061C18.0598 55.8061 18.0385 55.7981 18.0225 55.7821C18.0118 55.7661 18.0092 55.7447 18.0145 55.7181L18.3665 54.0061C18.3772 53.9581 18.4065 53.9341 18.4545 53.9341H18.8065C18.8332 53.9341 18.8518 53.9421 18.8625 53.9581C18.8785 53.9741 18.8838 53.9954 18.8785 54.0221L18.4305 55.7341C18.4198 55.7821 18.3905 55.8061 18.3425 55.8061H18.0865ZM23.2279 52.7261C23.2759 52.9607 23.2999 53.2007 23.2999 53.4461C23.2999 53.7074 23.2759 53.9314 23.2279 54.1181C23.1372 54.4594 22.9559 54.7314 22.6839 54.9341C22.4119 55.1314 22.0839 55.2301 21.6999 55.2301C21.3212 55.2301 20.9986 55.1341 20.7319 54.9421C20.4652 54.7501 20.2839 54.4941 20.1879 54.1741C20.1506 54.0567 20.1266 53.9394 20.1159 53.8221V53.8061C20.1159 53.7634 20.1399 53.7421 20.1879 53.7421H20.6119C20.6652 53.7421 20.6946 53.7687 20.6999 53.8221C20.6999 53.8541 20.7106 53.9074 20.7319 53.9821C20.7852 54.2114 20.8946 54.3954 21.0599 54.5341C21.2306 54.6674 21.4412 54.7341 21.6919 54.7341C21.9479 54.7341 22.1612 54.6621 22.3319 54.5181C22.5079 54.3741 22.6226 54.1767 22.6759 53.9261C22.7079 53.8034 22.7239 53.6434 22.7239 53.4461C22.7239 53.2647 22.7106 53.0914 22.6839 52.9261C22.6466 52.6807 22.5399 52.4941 22.3639 52.3661C22.1879 52.2381 21.9692 52.1741 21.7079 52.1741C21.4732 52.1741 21.2626 52.2274 21.0759 52.3341C20.8892 52.4407 20.7692 52.5821 20.7159 52.7581C20.6999 52.8061 20.6706 52.8301 20.6279 52.8301H20.1959C20.1426 52.8301 20.1159 52.8034 20.1159 52.7501V49.6541C20.1159 49.6007 20.1426 49.5741 20.1959 49.5741H22.9959C23.0492 49.5741 23.0759 49.6007 23.0759 49.6541V49.9901C23.0759 50.0434 23.0492 50.0701 22.9959 50.0701H20.7159C20.6946 50.0701 20.6839 50.0807 20.6839 50.1021L20.6759 52.0381C20.6759 52.0487 20.6786 52.0567 20.6839 52.0621C20.6946 52.0674 20.7052 52.0647 20.7159 52.0541C20.8492 51.9314 21.0066 51.8381 21.1879 51.7741C21.3692 51.7047 21.5612 51.6701 21.7639 51.6701C22.1426 51.6701 22.4626 51.7634 22.7239 51.9501C22.9852 52.1314 23.1532 52.3901 23.2279 52.7261ZM27.5373 53.1181C27.5906 53.1181 27.6173 53.1447 27.6173 53.1981V53.5501C27.6173 53.6034 27.5906 53.6301 27.5373 53.6301H27.1933C27.1719 53.6301 27.1613 53.6407 27.1613 53.6621V55.0941C27.1613 55.1474 27.1346 55.1741 27.0813 55.1741H26.6733C26.6199 55.1741 26.5933 55.1474 26.5933 55.0941V53.6621C26.5933 53.6407 26.5826 53.6301 26.5613 53.6301H24.1693C24.1159 53.6301 24.0893 53.6034 24.0893 53.5501V53.2541C24.0893 53.2274 24.0973 53.1954 24.1133 53.1581L25.7533 49.6301C25.7693 49.5927 25.7986 49.5741 25.8413 49.5741H26.2653C26.2919 49.5741 26.3106 49.5847 26.3213 49.6061C26.3373 49.6221 26.3399 49.6434 26.3293 49.6701L24.7373 53.0781C24.7319 53.0887 24.7319 53.0994 24.7373 53.1101C24.7426 53.1154 24.7506 53.1181 24.7613 53.1181H26.5613C26.5826 53.1181 26.5933 53.1074 26.5933 53.0861V51.7981C26.5933 51.7447 26.6199 51.7181 26.6733 51.7181H27.0813C27.1346 51.7181 27.1613 51.7447 27.1613 51.7981V53.0861C27.1613 53.1074 27.1719 53.1181 27.1933 53.1181H27.5373ZM29.3195 54.6381C29.3035 54.6647 29.3088 54.6781 29.3355 54.6781H31.8475C31.9008 54.6781 31.9275 54.7047 31.9275 54.7581V55.0941C31.9275 55.1474 31.9008 55.1741 31.8475 55.1741H28.6555C28.6022 55.1741 28.5755 55.1474 28.5755 55.0941V54.7581C28.5755 54.7207 28.5888 54.6887 28.6155 54.6621C28.7968 54.4487 29.2048 53.9474 29.8395 53.1581L30.4315 52.4221C30.9328 51.7874 31.1835 51.2941 31.1835 50.9421C31.1835 50.6594 31.0875 50.4327 30.8955 50.2621C30.7035 50.0914 30.4528 50.0061 30.1435 50.0061C29.8395 50.0061 29.5942 50.0941 29.4075 50.2701C29.2208 50.4407 29.1302 50.6674 29.1355 50.9501V51.1981C29.1355 51.2514 29.1088 51.2781 29.0555 51.2781H28.6395C28.5862 51.2781 28.5595 51.2514 28.5595 51.1981V50.8781C28.5702 50.4674 28.7222 50.1367 29.0155 49.8861C29.3142 49.6354 29.6902 49.5101 30.1435 49.5101C30.4635 49.5101 30.7462 49.5714 30.9915 49.6941C31.2368 49.8167 31.4262 49.9874 31.5595 50.2061C31.6928 50.4194 31.7595 50.6621 31.7595 50.9341C31.7595 51.3874 31.5088 51.9341 31.0075 52.5741C30.7462 52.9101 30.2422 53.5287 29.4955 54.4301L29.3195 54.6381ZM33.0006 55.8061C32.9739 55.8061 32.9526 55.7981 32.9366 55.7821C32.9259 55.7661 32.9232 55.7447 32.9286 55.7181L33.2806 54.0061C33.2912 53.9581 33.3206 53.9341 33.3686 53.9341H33.7206C33.7472 53.9341 33.7659 53.9421 33.7766 53.9581C33.7926 53.9741 33.7979 53.9954 33.7926 54.0221L33.3446 55.7341C33.3339 55.7821 33.3046 55.8061 33.2566 55.8061H33.0006ZM38.342 53.1181C38.3953 53.1181 38.422 53.1447 38.422 53.1981V53.5501C38.422 53.6034 38.3953 53.6301 38.342 53.6301H37.998C37.9766 53.6301 37.966 53.6407 37.966 53.6621V55.0941C37.966 55.1474 37.9393 55.1741 37.886 55.1741H37.478C37.4246 55.1741 37.398 55.1474 37.398 55.0941V53.6621C37.398 53.6407 37.3873 53.6301 37.366 53.6301H34.974C34.9206 53.6301 34.894 53.6034 34.894 53.5501V53.2541C34.894 53.2274 34.902 53.1954 34.918 53.1581L36.558 49.6301C36.574 49.5927 36.6033 49.5741 36.646 49.5741H37.07C37.0966 49.5741 37.1153 49.5847 37.126 49.6061C37.142 49.6221 37.1446 49.6434 37.134 49.6701L35.542 53.0781C35.5366 53.0887 35.5366 53.0994 35.542 53.1101C35.5473 53.1154 35.5553 53.1181 35.566 53.1181H37.366C37.3873 53.1181 37.398 53.1074 37.398 53.0861V51.7981C37.398 51.7447 37.4246 51.7181 37.478 51.7181H37.886C37.9393 51.7181 37.966 51.7447 37.966 51.7981V53.0861C37.966 53.1074 37.9766 53.1181 37.998 53.1181H38.342ZM42.7482 53.1181C42.8015 53.1181 42.8282 53.1447 42.8282 53.1981V53.5501C42.8282 53.6034 42.8015 53.6301 42.7482 53.6301H42.4042C42.3829 53.6301 42.3722 53.6407 42.3722 53.6621V55.0941C42.3722 55.1474 42.3455 55.1741 42.2922 55.1741H41.8842C41.8309 55.1741 41.8042 55.1474 41.8042 55.0941V53.6621C41.8042 53.6407 41.7935 53.6301 41.7722 53.6301H39.3802C39.3269 53.6301 39.3002 53.6034 39.3002 53.5501V53.2541C39.3002 53.2274 39.3082 53.1954 39.3242 53.1581L40.9642 49.6301C40.9802 49.5927 41.0095 49.5741 41.0522 49.5741H41.4762C41.5029 49.5741 41.5215 49.5847 41.5322 49.6061C41.5482 49.6221 41.5509 49.6434 41.5402 49.6701L39.9482 53.0781C39.9429 53.0887 39.9429 53.0994 39.9482 53.1101C39.9535 53.1154 39.9615 53.1181 39.9722 53.1181H41.7722C41.7935 53.1181 41.8042 53.1074 41.8042 53.0861V51.7981C41.8042 51.7447 41.8309 51.7181 41.8842 51.7181H42.2922C42.3455 51.7181 42.3722 51.7447 42.3722 51.7981V53.0861C42.3722 53.1074 42.3829 53.1181 42.4042 53.1181H42.7482ZM46.9545 52.7261C47.0025 52.9607 47.0265 53.2007 47.0265 53.4461C47.0265 53.7074 47.0025 53.9314 46.9545 54.1181C46.8638 54.4594 46.6825 54.7314 46.4105 54.9341C46.1385 55.1314 45.8105 55.2301 45.4265 55.2301C45.0478 55.2301 44.7251 55.1341 44.4585 54.9421C44.1918 54.7501 44.0105 54.4941 43.9145 54.1741C43.8771 54.0567 43.8531 53.9394 43.8425 53.8221V53.8061C43.8425 53.7634 43.8665 53.7421 43.9145 53.7421H44.3385C44.3918 53.7421 44.4211 53.7687 44.4265 53.8221C44.4265 53.8541 44.4371 53.9074 44.4585 53.9821C44.5118 54.2114 44.6211 54.3954 44.7865 54.5341C44.9571 54.6674 45.1678 54.7341 45.4185 54.7341C45.6745 54.7341 45.8878 54.6621 46.0585 54.5181C46.2345 54.3741 46.3491 54.1767 46.4025 53.9261C46.4345 53.8034 46.4505 53.6434 46.4505 53.4461C46.4505 53.2647 46.4371 53.0914 46.4105 52.9261C46.3731 52.6807 46.2665 52.4941 46.0905 52.3661C45.9145 52.2381 45.6958 52.1741 45.4345 52.1741C45.1998 52.1741 44.9891 52.2274 44.8025 52.3341C44.6158 52.4407 44.4958 52.5821 44.4425 52.7581C44.4265 52.8061 44.3971 52.8301 44.3545 52.8301H43.9225C43.8691 52.8301 43.8425 52.8034 43.8425 52.7501V49.6541C43.8425 49.6007 43.8691 49.5741 43.9225 49.5741H46.7225C46.7758 49.5741 46.8025 49.6007 46.8025 49.6541V49.9901C46.8025 50.0434 46.7758 50.0701 46.7225 50.0701H44.4425C44.4211 50.0701 44.4105 50.0807 44.4105 50.1021L44.4025 52.0381C44.4025 52.0487 44.4051 52.0567 44.4105 52.0621C44.4211 52.0674 44.4318 52.0647 44.4425 52.0541C44.5758 51.9314 44.7331 51.8381 44.9145 51.7741C45.0958 51.7047 45.2878 51.6701 45.4905 51.6701C45.8691 51.6701 46.1891 51.7634 46.4505 51.9501C46.7118 52.1314 46.8798 52.3901 46.9545 52.7261Z" fill="black"/>
<path d="M203.259 49.5981C203.291 49.5821 203.326 49.5741 203.363 49.5741H203.795C203.849 49.5741 203.875 49.6007 203.875 49.6541V55.0941C203.875 55.1474 203.849 55.1741 203.795 55.1741H203.387C203.334 55.1741 203.307 55.1474 203.307 55.0941V50.2221C203.307 50.2114 203.302 50.2034 203.291 50.1981C203.286 50.1927 203.278 50.1927 203.267 50.1981L202.419 50.5421L202.387 50.5501C202.355 50.5501 202.334 50.5287 202.323 50.4861L202.283 50.1821V50.1661C202.283 50.1394 202.302 50.1127 202.339 50.0861L203.259 49.5981ZM206.08 49.5981C206.112 49.5821 206.146 49.5741 206.184 49.5741H206.616C206.669 49.5741 206.696 49.6007 206.696 49.6541V55.0941C206.696 55.1474 206.669 55.1741 206.616 55.1741H206.208C206.154 55.1741 206.128 55.1474 206.128 55.0941V50.2221C206.128 50.2114 206.122 50.2034 206.112 50.1981C206.106 50.1927 206.098 50.1927 206.088 50.1981L205.24 50.5421L205.208 50.5501C205.176 50.5501 205.154 50.5287 205.144 50.4861L205.104 50.1821V50.1661C205.104 50.1394 205.122 50.1127 205.16 50.0861L206.08 49.5981ZM208.645 55.1741C208.618 55.1741 208.597 55.1661 208.581 55.1501C208.57 55.1287 208.57 55.1047 208.581 55.0781L210.429 50.1101C210.434 50.0994 210.434 50.0914 210.429 50.0861C210.423 50.0754 210.415 50.0701 210.405 50.0701H208.245C208.223 50.0701 208.213 50.0807 208.213 50.1021V50.4701C208.213 50.5234 208.186 50.5501 208.133 50.5501H207.805C207.751 50.5501 207.725 50.5234 207.725 50.4701L207.733 49.6541C207.733 49.6007 207.759 49.5741 207.813 49.5741H210.965C211.018 49.5741 211.045 49.6007 211.045 49.6541V50.0221C211.045 50.0434 211.039 50.0754 211.029 50.1181L209.189 55.1101C209.173 55.1527 209.141 55.1741 209.093 55.1741H208.645ZM211.466 55.8061C211.44 55.8061 211.418 55.7981 211.402 55.7821C211.392 55.7661 211.389 55.7447 211.394 55.7181L211.746 54.0061C211.757 53.9581 211.786 53.9341 211.834 53.9341H212.186C212.213 53.9341 212.232 53.9421 212.242 53.9581C212.258 53.9741 212.264 53.9954 212.258 54.0221L211.81 55.7341C211.8 55.7821 211.77 55.8061 211.722 55.8061H211.466ZM216.608 52.7261C216.656 52.9607 216.68 53.2007 216.68 53.4461C216.68 53.7074 216.656 53.9314 216.608 54.1181C216.517 54.4594 216.336 54.7314 216.064 54.9341C215.792 55.1314 215.464 55.2301 215.08 55.2301C214.701 55.2301 214.378 55.1341 214.112 54.9421C213.845 54.7501 213.664 54.4941 213.568 54.1741C213.53 54.0567 213.506 53.9394 213.496 53.8221V53.8061C213.496 53.7634 213.52 53.7421 213.568 53.7421H213.992C214.045 53.7421 214.074 53.7687 214.08 53.8221C214.08 53.8541 214.09 53.9074 214.112 53.9821C214.165 54.2114 214.274 54.3954 214.44 54.5341C214.61 54.6674 214.821 54.7341 215.072 54.7341C215.328 54.7341 215.541 54.6621 215.712 54.5181C215.888 54.3741 216.002 54.1767 216.056 53.9261C216.088 53.8034 216.104 53.6434 216.104 53.4461C216.104 53.2647 216.09 53.0914 216.064 52.9261C216.026 52.6807 215.92 52.4941 215.744 52.3661C215.568 52.2381 215.349 52.1741 215.088 52.1741C214.853 52.1741 214.642 52.2274 214.456 52.3341C214.269 52.4407 214.149 52.5821 214.096 52.7581C214.08 52.8061 214.05 52.8301 214.008 52.8301H213.576C213.522 52.8301 213.496 52.8034 213.496 52.7501V49.6541C213.496 49.6007 213.522 49.5741 213.576 49.5741H216.376C216.429 49.5741 216.456 49.6007 216.456 49.6541V49.9901C216.456 50.0434 216.429 50.0701 216.376 50.0701H214.096C214.074 50.0701 214.064 50.0807 214.064 50.1021L214.056 52.0381C214.056 52.0487 214.058 52.0567 214.064 52.0621C214.074 52.0674 214.085 52.0647 214.096 52.0541C214.229 51.9314 214.386 51.8381 214.568 51.7741C214.749 51.7047 214.941 51.6701 215.144 51.6701C215.522 51.6701 215.842 51.7634 216.104 51.9501C216.365 52.1314 216.533 52.3901 216.608 52.7261ZM220.917 53.1181C220.97 53.1181 220.997 53.1447 220.997 53.1981V53.5501C220.997 53.6034 220.97 53.6301 220.917 53.6301H220.573C220.552 53.6301 220.541 53.6407 220.541 53.6621V55.0941C220.541 55.1474 220.514 55.1741 220.461 55.1741H220.053C220 55.1741 219.973 55.1474 219.973 55.0941V53.6621C219.973 53.6407 219.962 53.6301 219.941 53.6301H217.549C217.496 53.6301 217.469 53.6034 217.469 53.5501V53.2541C217.469 53.2274 217.477 53.1954 217.493 53.1581L219.133 49.6301C219.149 49.5927 219.178 49.5741 219.221 49.5741H219.645C219.672 49.5741 219.69 49.5847 219.701 49.6061C219.717 49.6221 219.72 49.6434 219.709 49.6701L218.117 53.0781C218.112 53.0887 218.112 53.0994 218.117 53.1101C218.122 53.1154 218.13 53.1181 218.141 53.1181H219.941C219.962 53.1181 219.973 53.1074 219.973 53.0861V51.7981C219.973 51.7447 220 51.7181 220.053 51.7181H220.461C220.514 51.7181 220.541 51.7447 220.541 51.7981V53.0861C220.541 53.1074 220.552 53.1181 220.573 53.1181H220.917ZM225.035 50.5581C225.099 50.7714 225.131 51.0221 225.131 51.3101V53.8061C225.131 54.2434 224.987 54.5927 224.699 54.8541C224.411 55.1101 224.035 55.2381 223.571 55.2381C223.123 55.2381 222.758 55.1127 222.475 54.8621C222.198 54.6061 222.059 54.2754 222.059 53.8701V53.7581C222.059 53.7047 222.086 53.6781 222.139 53.6781H222.547C222.601 53.6781 222.627 53.7047 222.627 53.7581V53.8221C222.627 54.0941 222.715 54.3154 222.891 54.4861C223.067 54.6567 223.294 54.7421 223.571 54.7421C223.859 54.7421 224.097 54.6541 224.283 54.4781C224.47 54.2967 224.563 54.0594 224.563 53.7661V52.5981C224.563 52.5874 224.558 52.5821 224.547 52.5821C224.537 52.5767 224.529 52.5794 224.523 52.5901C224.289 52.9047 223.937 53.0621 223.467 53.0621C223.131 53.0621 222.849 52.9874 222.619 52.8381C222.395 52.6887 222.225 52.4781 222.107 52.2061C221.995 51.9821 221.939 51.6781 221.939 51.2941C221.939 50.9687 221.979 50.7021 222.059 50.4941C222.171 50.1847 222.35 49.9447 222.595 49.7741C222.846 49.6034 223.153 49.5181 223.515 49.5181C223.899 49.5181 224.222 49.6114 224.483 49.7981C224.75 49.9794 224.934 50.2327 225.035 50.5581ZM223.539 52.5661C223.774 52.5661 223.971 52.5101 224.131 52.3981C224.297 52.2807 224.411 52.1207 224.475 51.9181C224.534 51.7634 224.563 51.5474 224.563 51.2701C224.563 51.0407 224.539 50.8461 224.491 50.6861C224.427 50.4834 224.313 50.3207 224.147 50.1981C223.982 50.0754 223.779 50.0141 223.539 50.0141C223.31 50.0141 223.113 50.0727 222.947 50.1901C222.782 50.3021 222.665 50.4674 222.595 50.6861C222.537 50.8354 222.507 51.0381 222.507 51.2941C222.507 51.5661 222.542 51.7794 222.611 51.9341C222.675 52.1261 222.787 52.2807 222.947 52.3981C223.107 52.5101 223.305 52.5661 223.539 52.5661ZM226.263 55.8061C226.237 55.8061 226.215 55.7981 226.199 55.7821C226.189 55.7661 226.186 55.7447 226.191 55.7181L226.543 54.0061C226.554 53.9581 226.583 53.9341 226.631 53.9341H226.983C227.01 53.9341 227.029 53.9421 227.039 53.9581C227.055 53.9741 227.061 53.9954 227.055 54.0221L226.607 55.7341C226.597 55.7821 226.567 55.8061 226.519 55.8061H226.263ZM231.405 52.7261C231.453 52.9607 231.477 53.2007 231.477 53.4461C231.477 53.7074 231.453 53.9314 231.405 54.1181C231.314 54.4594 231.133 54.7314 230.861 54.9341C230.589 55.1314 230.261 55.2301 229.877 55.2301C229.498 55.2301 229.175 55.1341 228.909 54.9421C228.642 54.7501 228.461 54.4941 228.365 54.1741C228.327 54.0567 228.303 53.9394 228.293 53.8221V53.8061C228.293 53.7634 228.317 53.7421 228.365 53.7421H228.789C228.842 53.7421 228.871 53.7687 228.877 53.8221C228.877 53.8541 228.887 53.9074 228.909 53.9821C228.962 54.2114 229.071 54.3954 229.237 54.5341C229.407 54.6674 229.618 54.7341 229.869 54.7341C230.125 54.7341 230.338 54.6621 230.509 54.5181C230.685 54.3741 230.799 54.1767 230.853 53.9261C230.885 53.8034 230.901 53.6434 230.901 53.4461C230.901 53.2647 230.887 53.0914 230.861 52.9261C230.823 52.6807 230.717 52.4941 230.541 52.3661C230.365 52.2381 230.146 52.1741 229.885 52.1741C229.65 52.1741 229.439 52.2274 229.253 52.3341C229.066 52.4407 228.946 52.5821 228.893 52.7581C228.877 52.8061 228.847 52.8301 228.805 52.8301H228.373C228.319 52.8301 228.293 52.8034 228.293 52.7501V49.6541C228.293 49.6007 228.319 49.5741 228.373 49.5741H231.173C231.226 49.5741 231.253 49.6007 231.253 49.6541V49.9901C231.253 50.0434 231.226 50.0701 231.173 50.0701H228.893C228.871 50.0701 228.861 50.0807 228.861 50.1021L228.853 52.0381C228.853 52.0487 228.855 52.0567 228.861 52.0621C228.871 52.0674 228.882 52.0647 228.893 52.0541C229.026 51.9314 229.183 51.8381 229.365 51.7741C229.546 51.7047 229.738 51.6701 229.941 51.6701C230.319 51.6701 230.639 51.7634 230.901 51.9501C231.162 52.1314 231.33 52.3901 231.405 52.7261ZM235.714 53.1181C235.767 53.1181 235.794 53.1447 235.794 53.1981V53.5501C235.794 53.6034 235.767 53.6301 235.714 53.6301H235.37C235.349 53.6301 235.338 53.6407 235.338 53.6621V55.0941C235.338 55.1474 235.311 55.1741 235.258 55.1741H234.85C234.797 55.1741 234.77 55.1474 234.77 55.0941V53.6621C234.77 53.6407 234.759 53.6301 234.738 53.6301H232.346C232.293 53.6301 232.266 53.6034 232.266 53.5501V53.2541C232.266 53.2274 232.274 53.1954 232.29 53.1581L233.93 49.6301C233.946 49.5927 233.975 49.5741 234.018 49.5741H234.442C234.469 49.5741 234.487 49.5847 234.498 49.6061C234.514 49.6221 234.517 49.6434 234.506 49.6701L232.914 53.0781C232.909 53.0887 232.909 53.0994 232.914 53.1101C232.919 53.1154 232.927 53.1181 232.938 53.1181H234.738C234.759 53.1181 234.77 53.1074 234.77 53.0861V51.7981C234.77 51.7447 234.797 51.7181 234.85 51.7181H235.258C235.311 51.7181 235.338 51.7447 235.338 51.7981V53.0861C235.338 53.1074 235.349 53.1181 235.37 53.1181H235.714ZM239.832 52.5421C239.944 52.7821 240 53.0861 240 53.4541C240 53.7847 239.958 54.0514 239.872 54.2541C239.76 54.5634 239.582 54.8034 239.336 54.9741C239.091 55.1447 238.784 55.2301 238.416 55.2301C238.032 55.2301 237.71 55.1394 237.448 54.9581C237.187 54.7767 237.003 54.5207 236.896 54.1901C236.832 53.9767 236.8 53.7261 236.8 53.4381V50.9421C236.8 50.5047 236.944 50.1581 237.232 49.9021C237.52 49.6407 237.896 49.5101 238.36 49.5101C238.814 49.5101 239.179 49.6354 239.456 49.8861C239.734 50.1367 239.872 50.4674 239.872 50.8781V50.9901C239.872 51.0434 239.846 51.0701 239.792 51.0701H239.384C239.331 51.0701 239.304 51.0434 239.304 50.9901V50.9261C239.304 50.6541 239.216 50.4327 239.04 50.2621C238.864 50.0914 238.638 50.0061 238.36 50.0061C238.072 50.0061 237.835 50.0967 237.648 50.2781C237.462 50.4541 237.368 50.6887 237.368 50.9821V52.1581C237.368 52.1687 237.374 52.1767 237.384 52.1821C237.395 52.1821 237.403 52.1767 237.408 52.1661C237.643 51.8461 237.998 51.6861 238.472 51.6861C238.808 51.6861 239.088 51.7607 239.312 51.9101C239.542 52.0594 239.715 52.2701 239.832 52.5421ZM239.336 54.0621C239.4 53.8967 239.432 53.6941 239.432 53.4541C239.432 53.1767 239.395 52.9634 239.32 52.8141C239.256 52.6167 239.144 52.4621 238.984 52.3501C238.824 52.2381 238.627 52.1821 238.392 52.1821C238.158 52.1821 237.96 52.2407 237.8 52.3581C237.64 52.4701 237.528 52.6274 237.464 52.8301C237.4 52.9954 237.368 53.2114 237.368 53.4781C237.368 53.7127 237.395 53.9074 237.448 54.0621C237.512 54.2647 237.624 54.4274 237.784 54.5501C237.95 54.6727 238.155 54.7341 238.4 54.7341C238.63 54.7341 238.827 54.6781 238.992 54.5661C239.158 54.4487 239.272 54.2807 239.336 54.0621Z" fill="black"/>
</svg>
