<svg width="250" height="79" viewBox="0 0 250 79" fill="none" xmlns="http://www.w3.org/2000/svg">
<rect width="250" height="79" fill="white"/>
<rect x="0.5" y="0.5" width="249" height="78" rx="8.5" fill="white" stroke="#EBEBEB"/>
<line x1="66.7837" y1="59.6163" x2="66.7837" y2="49.6163" stroke="black"/>
<path d="M73.5346 49.9699C73.7298 49.7746 73.7298 49.458 73.5346 49.2628L70.3526 46.0808C70.1573 45.8855 69.8407 45.8855 69.6455 46.0808C69.4502 46.2761 69.4502 46.5926 69.6455 46.7879L72.4739 49.6163L69.6455 52.4448C69.4502 52.64 69.4502 52.9566 69.6455 53.1519C69.8407 53.3471 70.1573 53.3471 70.3526 53.1519L73.5346 49.9699ZM66.2837 50.1163H73.181V49.1163H66.2837V50.1163Z" fill="black"/>
<line x1="76.5352" y1="59.6163" x2="76.5352" y2="49.6163" stroke="black"/>
<path d="M83.286 49.9699C83.4813 49.7746 83.4813 49.458 83.286 49.2628L80.104 46.0808C79.9088 45.8855 79.5922 45.8855 79.3969 46.0808C79.2017 46.2761 79.2017 46.5926 79.3969 46.7879L82.2254 49.6163L79.3969 52.4448C79.2017 52.64 79.2017 52.9566 79.3969 53.1519C79.5922 53.3471 79.9088 53.3471 80.104 53.1519L83.286 49.9699ZM76.0352 50.1163H82.9325V49.1163H76.0352V50.1163Z" fill="black"/>
<line x1="60" y1="59.5" x2="133" y2="59.5" stroke="black"/>
<mask id="path-8-inside-1" fill="white">
<path fill-rule="evenodd" clip-rule="evenodd" d="M110.458 66.6406L118.347 59.0784L110.458 51.5162V55.587H105.206V62.5698H110.458V66.6406Z"/>
</mask>
<path fill-rule="evenodd" clip-rule="evenodd" d="M110.458 66.6406L118.347 59.0784L110.458 51.5162V55.587H105.206V62.5698H110.458V66.6406Z" fill="#63CC48"/>
<path d="M118.347 59.0784L119.039 59.8003L119.792 59.0784L119.039 58.3565L118.347 59.0784ZM110.458 66.6406H109.458V68.9844L111.15 67.3625L110.458 66.6406ZM110.458 51.5162L111.15 50.7943L109.458 49.1724V51.5162H110.458ZM110.458 55.587V56.587H111.458V55.587H110.458ZM105.206 55.587V54.587H104.206V55.587H105.206ZM105.206 62.5698H104.206V63.5698H105.206V62.5698ZM110.458 62.5698H111.458V61.5698H110.458V62.5698ZM117.655 58.3565L109.766 65.9187L111.15 67.3625L119.039 59.8003L117.655 58.3565ZM109.766 52.2381L117.655 59.8003L119.039 58.3565L111.15 50.7943L109.766 52.2381ZM111.458 55.587V51.5162H109.458V55.587H111.458ZM105.206 56.587H110.458V54.587H105.206V56.587ZM106.206 62.5698V55.587H104.206V62.5698H106.206ZM110.458 61.5698H105.206V63.5698H110.458V61.5698ZM111.458 66.6406V62.5698H109.458V66.6406H111.458Z" fill="black" mask="url(#path-8-inside-1)"/>
<path d="M94.4886 59.1164C94.7338 57.216 96.358 55.7478 98.3251 55.7478C100.292 55.7478 101.916 57.216 102.162 59.1164H102.157H102.151H102.145H102.139H102.133H102.126H102.12H102.114H102.108H102.102H102.096H102.089H102.083H102.077H102.07H102.064H102.057H102.051H102.044H102.038H102.031H102.025H102.018H102.012H102.005H101.998H101.991H101.985H101.978H101.971H101.964H101.957H101.951H101.944H101.937H101.93H101.923H101.916H101.909H101.902H101.894H101.887H101.88H101.873H101.866H101.858H101.851H101.844H101.837H101.829H101.822H101.814H101.807H101.799H101.792H101.784H101.777H101.769H101.762H101.754H101.746H101.739H101.731H101.723H101.715H101.708H101.7H101.692H101.684H101.676H101.668H101.66H101.652H101.644H101.636H101.628H101.62H101.612H101.604H101.596H101.587H101.579H101.571H101.563H101.554H101.546H101.538H101.529H101.521H101.512H101.504H101.495H101.487H101.478H101.47H101.461H101.453H101.444H101.435H101.427H101.418H101.409H101.4H101.391H101.383H101.374H101.365H101.356H101.347H101.338H101.329H101.32H101.311H101.302H101.293H101.284H101.275H101.266H101.256H101.247H101.238H101.229H101.219H101.21H101.201H101.191H101.182H101.173H101.163H101.154H101.144H101.135H101.125H101.116H101.106H101.097H101.087H101.077H101.068H101.058H101.048H101.038H101.029H101.019H101.009H100.999H100.989H100.979H100.97H100.96H100.95H100.94H100.93H100.92H100.91H100.9H100.889H100.879H100.869H100.859H100.849H100.839H100.828H100.818H100.808H100.797H100.787H100.777H100.766H100.756H100.746H100.735H100.725H100.714H100.704H100.693H100.683H100.672H100.661H100.651H100.64H100.629H100.619H100.608H100.597H100.586H100.576H100.565H100.554H100.543H100.532H100.521H100.511H100.5H100.489H100.478H100.467H100.456H100.445H100.433H100.422H100.411H100.4H100.389H100.378H100.367H100.355H100.344H100.333H100.322H100.31H100.299H100.288H100.276H100.265H100.253H100.242H100.231H100.219H100.208H100.196H100.184H100.173H100.161H100.15H100.138H100.126H100.115H100.103H100.091H100.08H100.068H100.056H100.044H100.033H100.021H100.009H99.9971H99.9852H99.9733H99.9613H99.9494H99.9374H99.9254H99.9134H99.9014H99.8893H99.8773H99.8652H99.8531H99.8409H99.8288H99.8166H99.8044H99.7922H99.78H99.7678H99.7555H99.7432H99.7309H99.7186H99.7062H99.6939H99.6815H99.6691H99.6567H99.6443H99.6318H99.6193H99.6068H99.5943H99.5818H99.5692H99.5567H99.5441H99.5315H99.5188H99.5062H99.4935H99.4808H99.4681H99.4554H99.4427H99.4299H99.4172H99.4044H99.3916H99.3787H99.3659H99.353H99.3401H99.3272H99.3143H99.3014H99.2884H99.2754H99.2625H99.2494H99.2364H99.2234H99.2103H99.1972H99.1841H99.171H99.1579H99.1447H99.1316H99.1184H99.1052H99.092H99.0787H99.0655H99.0522H99.0389H99.0256H99.0123H98.9989H98.9856H98.9722H98.9588H98.9454H98.932H98.9185H98.9051H98.8916H98.8781H98.8646H98.8511H98.8375H98.824H98.8104H98.7968H98.7832H98.7696H98.7559H98.7423H98.7286H98.7149H98.7012H98.6875H98.6737H98.66H98.6462H98.6324H98.6186H98.6048H98.591H98.5771H98.5632H98.5494H98.5355H98.5215H98.5076H98.4937H98.4797H98.4657H98.4517H98.4377H98.4237H98.4097H98.3956H98.3815H98.3675H98.3534H98.3393H98.3251H98.311H98.2969H98.2828H98.2687H98.2546H98.2405H98.2264H98.2124H98.1983H98.1843H98.1703H98.1563H98.1423H98.1283H98.1143H98.1003H98.0864H98.0724H98.0585H98.0446H98.0307H98.0168H98.0029H97.989H97.9751H97.9613H97.9475H97.9336H97.9198H97.906H97.8922H97.8785H97.8647H97.851H97.8372H97.8235H97.8098H97.7961H97.7824H97.7687H97.7551H97.7414H97.7278H97.7142H97.7006H97.687H97.6734H97.6598H97.6463H97.6327H97.6192H97.6057H97.5922H97.5787H97.5653H97.5518H97.5384H97.5249H97.5115H97.4981H97.4848H97.4714H97.458H97.4447H97.4314H97.4181H97.4048H97.3915H97.3782H97.365H97.3518H97.3385H97.3253H97.3121H97.299H97.2858H97.2727H97.2596H97.2464H97.2333H97.2203H97.2072H97.1942H97.1811H97.1681H97.1551H97.1421H97.1292H97.1162H97.1033H97.0904H97.0775H97.0646H97.0517H97.0389H97.026H97.0132H97.0004H96.9876H96.9749H96.9621H96.9494H96.9367H96.924H96.9113H96.8987H96.886H96.8734H96.8608H96.8482H96.8356H96.8231H96.8105H96.798H96.7855H96.773H96.7606H96.7481H96.7357H96.7233H96.7109H96.6985H96.6862H96.6738H96.6615H96.6492H96.6369H96.6247H96.6124H96.6002H96.588H96.5758H96.5637H96.5515H96.5394H96.5273H96.5152H96.5031H96.4911H96.4791H96.4671H96.4551H96.4431H96.4312H96.4192H96.4073H96.3954H96.3836H96.3717H96.3599H96.3481H96.3363H96.3246H96.3128H96.3011H96.2894H96.2777H96.2661H96.2544H96.2428H96.2312H96.2196H96.2081H96.1965H96.185H96.1735H96.1621H96.1506H96.1392H96.1278H96.1164H96.1051H96.0937H96.0824H96.0711H96.0599H96.0486H96.0374H96.0262H96.015H96.0038H95.9927H95.9816H95.9705H95.9594H95.9484H95.9374H95.9264H95.9154H95.9044H95.8935H95.8826H95.8717H95.8609H95.85H95.8392H95.8284H95.8177H95.8069H95.7962H95.7855H95.7748H95.7642H95.7536H95.743H95.7324H95.7219H95.7113H95.7008H95.6904H95.6799H95.6695H95.6591H95.6487H95.6383H95.628H95.6177H95.6074H95.5972H95.587H95.5768H95.5666H95.5564H95.5463H95.5362H95.5261H95.5161H95.5061H95.4961H95.4861H95.4761H95.4662H95.4563H95.4464H95.4366H95.4268H95.417H95.4072H95.3975H95.3878H95.3781H95.3684H95.3588H95.3492H95.3396H95.3301H95.3206H95.3111H95.3016H95.2922H95.2827H95.2733H95.264H95.2547H95.2453H95.2361H95.2268H95.2176H95.2084H95.1992H95.1901H95.181H95.1719H95.1628H95.1538H95.1448H95.1358H95.1269H95.118H95.1091H95.1002H95.0914H95.0826H95.0739H95.0651H95.0564H95.0477H95.0391H95.0304H95.0218H95.0133H95.0047H94.9962H94.9877H94.9793H94.9709H94.9625H94.9541H94.9458H94.9375H94.9292H94.921H94.9128H94.9046H94.8964H94.8883H94.8802H94.8721H94.8641H94.8561H94.8481H94.8402H94.8323H94.8244H94.8166H94.8088H94.801H94.7932H94.7855H94.7778H94.7702H94.7625H94.7549H94.7474H94.7398H94.7323H94.7249H94.7174H94.71H94.7026H94.6953H94.688H94.6807H94.6734H94.6662H94.659H94.6519H94.6448H94.6377H94.6306H94.6236H94.6166H94.6097H94.6027H94.5959H94.589H94.5822H94.5754H94.5686H94.5619H94.5552H94.5485H94.5419H94.5353H94.5288H94.5222H94.5158H94.5093H94.5029H94.4965H94.4901H94.4886Z" fill="#63CC48" stroke="black"/>
<circle cx="88.4443" cy="49.6958" r="2.5" stroke="black"/>
<line x1="88.4902" y1="53.5168" x2="88.4902" y2="56.156" stroke="black"/>
<line x1="88.4902" y1="56.9772" x2="88.4902" y2="59.6164" stroke="black"/>
<line x1="123.751" y1="59.6163" x2="123.753" y2="49.6163" stroke="black"/>
<line x1="120.859" y1="49.5992" x2="126.426" y2="49.5992" stroke="black"/>
<line x1="136.273" y1="27.0001" x2="136.273" y2="17.0001" stroke="#63CC48"/>
<path d="M143.024 17.3537C143.219 17.1584 143.219 16.8418 143.024 16.6466L139.842 13.4646C139.647 13.2693 139.33 13.2693 139.135 13.4646C138.939 13.6599 138.939 13.9764 139.135 14.1717L141.963 17.0001L139.135 19.8285C138.939 20.0238 138.939 20.3404 139.135 20.5357C139.33 20.7309 139.647 20.7309 139.842 20.5357L143.024 17.3537ZM135.773 17.5001H142.67V16.5001H135.773V17.5001Z" fill="#63CC48"/>
<line x1="127" y1="26.5" x2="190.818" y2="26.5" stroke="black"/>
<mask id="path-19-inside-2" fill="white">
<path fill-rule="evenodd" clip-rule="evenodd" d="M172.453 34.0113L180.342 26.4491L172.453 18.887V22.9577H167.201V29.9405H172.453V34.0113Z"/>
</mask>
<path fill-rule="evenodd" clip-rule="evenodd" d="M172.453 34.0113L180.342 26.4491L172.453 18.887V22.9577H167.201V29.9405H172.453V34.0113Z" fill="white"/>
<path d="M180.342 26.4491L181.034 27.171L181.787 26.4491L181.034 25.7272L180.342 26.4491ZM172.453 34.0113H171.453V36.3551L173.145 34.7332L172.453 34.0113ZM172.453 18.887L173.145 18.1651L171.453 16.5432V18.887H172.453ZM172.453 22.9577V23.9577H173.453V22.9577H172.453ZM167.201 22.9577V21.9577H166.201V22.9577H167.201ZM167.201 29.9405H166.201V30.9405H167.201V29.9405ZM172.453 29.9405H173.453V28.9405H172.453V29.9405ZM179.65 25.7272L171.761 33.2894L173.145 34.7332L181.034 27.171L179.65 25.7272ZM171.761 19.6089L179.65 27.171L181.034 25.7272L173.145 18.1651L171.761 19.6089ZM173.453 22.9577V18.887H171.453V22.9577H173.453ZM167.201 23.9577H172.453V21.9577H167.201V23.9577ZM168.201 29.9405V22.9577H166.201V29.9405H168.201ZM172.453 28.9405H167.201V30.9405H172.453V28.9405ZM173.453 34.0113V29.9405H171.453V34.0113H173.453Z" fill="black" mask="url(#path-19-inside-2)"/>
<path d="M155.731 26.5C155.976 24.5997 157.601 23.1315 159.568 23.1315C161.535 23.1315 163.159 24.5997 163.404 26.5H163.399H163.393H163.387H163.381H163.375H163.369H163.363H163.357H163.351H163.344H163.338H163.332H163.326H163.319H163.313H163.306H163.3H163.294H163.287H163.281H163.274H163.267H163.261H163.254H163.248H163.241H163.234H163.227H163.221H163.214H163.207H163.2H163.193H163.186H163.179H163.172H163.165H163.158H163.151H163.144H163.137H163.13H163.123H163.116H163.108H163.101H163.094H163.087H163.079H163.072H163.064H163.057H163.05H163.042H163.035H163.027H163.02H163.012H163.004H162.997H162.989H162.981H162.974H162.966H162.958H162.95H162.942H162.935H162.927H162.919H162.911H162.903H162.895H162.887H162.879H162.871H162.863H162.855H162.846H162.838H162.83H162.822H162.814H162.805H162.797H162.789H162.78H162.772H162.763H162.755H162.747H162.738H162.73H162.721H162.712H162.704H162.695H162.687H162.678H162.669H162.66H162.652H162.643H162.634H162.625H162.616H162.608H162.599H162.59H162.581H162.572H162.563H162.554H162.545H162.536H162.527H162.517H162.508H162.499H162.49H162.481H162.471H162.462H162.453H162.443H162.434H162.425H162.415H162.406H162.396H162.387H162.377H162.368H162.358H162.349H162.339H162.33H162.32H162.31H162.301H162.291H162.281H162.271H162.262H162.252H162.242H162.232H162.222H162.212H162.202H162.192H162.182H162.172H162.162H162.152H162.142H162.132H162.122H162.112H162.102H162.091H162.081H162.071H162.061H162.05H162.04H162.03H162.019H162.009H161.999H161.988H161.978H161.967H161.957H161.946H161.936H161.925H161.915H161.904H161.893H161.883H161.872H161.861H161.851H161.84H161.829H161.818H161.808H161.797H161.786H161.775H161.764H161.753H161.742H161.731H161.72H161.709H161.698H161.687H161.676H161.665H161.654H161.643H161.632H161.62H161.609H161.598H161.587H161.576H161.564H161.553H161.542H161.53H161.519H161.508H161.496H161.485H161.473H161.462H161.45H161.439H161.427H161.416H161.404H161.392H161.381H161.369H161.357H161.346H161.334H161.322H161.311H161.299H161.287H161.275H161.263H161.252H161.24H161.228H161.216H161.204H161.192H161.18H161.168H161.156H161.144H161.132H161.12H161.108H161.096H161.084H161.071H161.059H161.047H161.035H161.023H161.01H160.998H160.986H160.974H160.961H160.949H160.937H160.924H160.912H160.899H160.887H160.874H160.862H160.85H160.837H160.824H160.812H160.799H160.787H160.774H160.762H160.749H160.736H160.724H160.711H160.698H160.685H160.673H160.66H160.647H160.634H160.621H160.609H160.596H160.583H160.57H160.557H160.544H160.531H160.518H160.505H160.492H160.479H160.466H160.453H160.44H160.427H160.414H160.401H160.387H160.374H160.361H160.348H160.335H160.321H160.308H160.295H160.282H160.268H160.255H160.242H160.228H160.215H160.201H160.188H160.175H160.161H160.148H160.134H160.121H160.107H160.094H160.08H160.067H160.053H160.039H160.026H160.012H159.999H159.985H159.971H159.958H159.944H159.93H159.916H159.903H159.889H159.875H159.861H159.847H159.834H159.82H159.806H159.792H159.778H159.764H159.75H159.736H159.722H159.708H159.694H159.68H159.666H159.652H159.638H159.624H159.61H159.596H159.582H159.568H159.554H159.54H159.525H159.511H159.497H159.483H159.469H159.455H159.441H159.427H159.413H159.399H159.385H159.371H159.357H159.343H159.329H159.315H159.301H159.287H159.273H159.259H159.246H159.232H159.218H159.204H159.19H159.176H159.162H159.149H159.135H159.121H159.107H159.094H159.08H159.066H159.052H159.039H159.025H159.011H158.998H158.984H158.97H158.957H158.943H158.93H158.916H158.903H158.889H158.875H158.862H158.848H158.835H158.821H158.808H158.794H158.781H158.768H158.754H158.741H158.727H158.714H158.701H158.687H158.674H158.661H158.647H158.634H158.621H158.608H158.594H158.581H158.568H158.555H158.542H158.528H158.515H158.502H158.489H158.476H158.463H158.45H158.437H158.424H158.411H158.398H158.385H158.372H158.359H158.346H158.333H158.32H158.307H158.294H158.282H158.269H158.256H158.243H158.23H158.218H158.205H158.192H158.179H158.167H158.154H158.141H158.129H158.116H158.103H158.091H158.078H158.066H158.053H158.041H158.028H158.016H158.003H157.991H157.978H157.966H157.954H157.941H157.929H157.917H157.904H157.892H157.88H157.867H157.855H157.843H157.831H157.819H157.806H157.794H157.782H157.77H157.758H157.746H157.734H157.722H157.71H157.698H157.686H157.674H157.662H157.65H157.638H157.626H157.614H157.603H157.591H157.579H157.567H157.555H157.544H157.532H157.52H157.509H157.497H157.485H157.474H157.462H157.451H157.439H157.428H157.416H157.405H157.393H157.382H157.37H157.359H157.348H157.336H157.325H157.314H157.303H157.291H157.28H157.269H157.258H157.247H157.235H157.224H157.213H157.202H157.191H157.18H157.169H157.158H157.147H157.136H157.125H157.114H157.104H157.093H157.082H157.071H157.06H157.05H157.039H157.028H157.018H157.007H156.996H156.986H156.975H156.965H156.954H156.944H156.933H156.923H156.912H156.902H156.891H156.881H156.871H156.86H156.85H156.84H156.83H156.819H156.809H156.799H156.789H156.779H156.769H156.759H156.749H156.739H156.729H156.719H156.709H156.699H156.689H156.679H156.669H156.66H156.65H156.64H156.63H156.621H156.611H156.601H156.592H156.582H156.573H156.563H156.554H156.544H156.535H156.525H156.516H156.507H156.497H156.488H156.479H156.469H156.46H156.451H156.442H156.433H156.424H156.415H156.406H156.396H156.387H156.379H156.37H156.361H156.352H156.343H156.334H156.325H156.317H156.308H156.299H156.29H156.282H156.273H156.265H156.256H156.247H156.239H156.23H156.222H156.214H156.205H156.197H156.188H156.18H156.172H156.164H156.155H156.147H156.139H156.131H156.123H156.115H156.107H156.099H156.091H156.083H156.075H156.067H156.059H156.051H156.044H156.036H156.028H156.02H156.013H156.005H155.998H155.99H155.983H155.975H155.968H155.96H155.953H155.945H155.938H155.931H155.923H155.916H155.909H155.902H155.895H155.887H155.88H155.873H155.866H155.859H155.852H155.845H155.839H155.832H155.825H155.818H155.811H155.805H155.798H155.791H155.785H155.778H155.771H155.765H155.758H155.752H155.746H155.739H155.733H155.731Z" stroke="black"/>
<circle cx="148.935" cy="17" r="2.5" stroke="black"/>
<line x1="148.981" y1="20.6804" x2="148.981" y2="23.3196" stroke="black"/>
<line x1="148.981" y1="24.3608" x2="148.981" y2="27" stroke="black"/>
<line x1="186.498" y1="27.0001" x2="186.499" y2="17.0001" stroke="black"/>
<line x1="183.606" y1="16.983" x2="189.172" y2="16.983" stroke="black"/>
<line x1="139.029" y1="28.7655" x2="134.029" y2="28.7655" stroke="#63CC48"/>
<line x1="136.493" y1="38" x2="136.493" y2="28.2656" stroke="#63CC48"/>
<line x1="111" y1="37.5" x2="136" y2="37.5" stroke="#63CC48"/>
<line x1="111.5" y1="38" x2="111.5" y2="50" stroke="#63CC48"/>
</svg>
