<svg width="250" height="79" viewBox="0 0 250 79" fill="none" xmlns="http://www.w3.org/2000/svg">
<rect x="1" y="1" width="248" height="77" rx="8" fill="white" stroke="#EBEBEB" stroke-width="2"/>
<path d="M37.3291 14.1278C37.3291 12.471 38.6722 11.1278 40.3291 11.1278H44.3517C46.0085 11.1278 47.3517 12.471 47.3517 14.1278V60.6152H37.3291V14.1278Z" fill="black"/>
<path d="M92.4355 54.4974C92.4355 52.8406 93.7787 51.4974 95.4355 51.4974H99.4581C101.115 51.4974 102.458 52.8406 102.458 54.4974V60.6152H92.4355V54.4974Z" fill="#C6C6C6"/>
<path d="M147.542 54.4974C147.542 52.8406 148.885 51.4974 150.542 51.4974H154.565C156.221 51.4974 157.565 52.8406 157.565 54.4974V60.6152H147.542V54.4974Z" fill="#C6C6C6"/>
<path d="M202.648 54.4973C202.648 52.8405 203.992 51.4973 205.648 51.4973H209.671C211.328 51.4973 212.671 52.8405 212.671 54.4973V60.6151H202.648V54.4973Z" fill="#C6C6C6"/>
<line y1="60.1151" x2="250" y2="60.1151" stroke="#EBEBEB"/>
<path d="M38.2597 69.4659C38.2064 69.4659 38.1797 69.4393 38.1797 69.3859V69.0499C38.1797 68.9966 38.2064 68.9699 38.2597 68.9699H40.6277C40.6811 68.9699 40.7077 68.9966 40.7077 69.0499V69.3859C40.7077 69.4393 40.6811 69.4659 40.6277 69.4659H38.2597ZM41.3207 71.7059C41.2621 71.7059 41.2407 71.6766 41.2567 71.6179L43.0247 66.1699C43.0407 66.1273 43.0727 66.1059 43.1207 66.1059H43.5207C43.5794 66.1059 43.6007 66.1353 43.5847 66.1939L41.8167 71.6419C41.8007 71.6846 41.7687 71.7059 41.7207 71.7059H41.3207ZM44.0566 69.4659C44.0033 69.4659 43.9766 69.4393 43.9766 69.3859V69.0499C43.9766 68.9966 44.0033 68.9699 44.0566 68.9699H46.4246C46.4779 68.9699 46.5046 68.9966 46.5046 69.0499V69.3859C46.5046 69.4393 46.4779 69.4659 46.4246 69.4659H44.0566Z" fill="black"/>
<path d="M92.6748 69.4659C92.6214 69.4659 92.5948 69.4393 92.5948 69.3859V69.0499C92.5948 68.9966 92.6214 68.9699 92.6748 68.9699H95.0428C95.0961 68.9699 95.1228 68.9966 95.1228 69.0499V69.3859C95.1228 69.4393 95.0961 69.4659 95.0428 69.4659H92.6748ZM95.7358 71.7059C95.6771 71.7059 95.6558 71.6766 95.6718 71.6179L97.4398 66.1699C97.4558 66.1273 97.4878 66.1059 97.5358 66.1059H97.9358C97.9944 66.1059 98.0158 66.1353 97.9998 66.1939L96.2318 71.6419C96.2158 71.6846 96.1838 71.7059 96.1358 71.7059H95.7358ZM102.219 68.9539C102.272 68.9539 102.299 68.9806 102.299 69.0339V69.3699C102.299 69.4233 102.272 69.4499 102.219 69.4499H100.891C100.87 69.4499 100.859 69.4606 100.859 69.4819V70.7779C100.859 70.8313 100.832 70.8579 100.779 70.8579H100.443C100.39 70.8579 100.363 70.8313 100.363 70.7779V69.4819C100.363 69.4606 100.352 69.4499 100.331 69.4499H99.0029C98.9496 69.4499 98.9229 69.4233 98.9229 69.3699V69.0339C98.9229 68.9806 98.9496 68.9539 99.0029 68.9539H100.331C100.352 68.9539 100.363 68.9433 100.363 68.9219V67.5619C100.363 67.5086 100.39 67.4819 100.443 67.4819H100.779C100.832 67.4819 100.859 67.5086 100.859 67.5619V68.9219C100.859 68.9433 100.87 68.9539 100.891 68.9539H102.219Z" fill="black"/>
<path d="M151.251 68.9539C151.304 68.9539 151.331 68.9806 151.331 69.0339V69.3699C151.331 69.4233 151.304 69.4499 151.251 69.4499H149.923C149.902 69.4499 149.891 69.4606 149.891 69.4819V70.7779C149.891 70.8313 149.864 70.8579 149.811 70.8579H149.475C149.422 70.8579 149.395 70.8313 149.395 70.7779V69.4819C149.395 69.4606 149.384 69.4499 149.363 69.4499H148.035C147.982 69.4499 147.955 69.4233 147.955 69.3699V69.0339C147.955 68.9806 147.982 68.9539 148.035 68.9539H149.363C149.384 68.9539 149.395 68.9433 149.395 68.9219V67.5619C149.395 67.5086 149.422 67.4819 149.475 67.4819H149.811C149.864 67.4819 149.891 67.5086 149.891 67.5619V68.9219C149.891 68.9433 149.902 68.9539 149.923 68.9539H151.251ZM151.971 71.7059C151.912 71.7059 151.891 71.6766 151.907 71.6179L153.675 66.1699C153.691 66.1273 153.723 66.1059 153.771 66.1059H154.171C154.23 66.1059 154.251 66.1353 154.235 66.1939L152.467 71.6419C152.451 71.6846 152.419 71.7059 152.371 71.7059H151.971ZM154.707 69.4659C154.654 69.4659 154.627 69.4393 154.627 69.3859V69.0499C154.627 68.9966 154.654 68.9699 154.707 68.9699H157.075C157.128 68.9699 157.155 68.9966 157.155 69.0499V69.3859C157.155 69.4393 157.128 69.4659 157.075 69.4659H154.707Z" fill="black"/>
<path d="M205.666 68.9539C205.719 68.9539 205.746 68.9806 205.746 69.0339V69.3699C205.746 69.4233 205.719 69.4499 205.666 69.4499H204.338C204.317 69.4499 204.306 69.4606 204.306 69.4819V70.7779C204.306 70.8313 204.279 70.8579 204.226 70.8579H203.89C203.837 70.8579 203.81 70.8313 203.81 70.7779V69.4819C203.81 69.4606 203.799 69.4499 203.778 69.4499H202.45C202.397 69.4499 202.37 69.4233 202.37 69.3699V69.0339C202.37 68.9806 202.397 68.9539 202.45 68.9539H203.778C203.799 68.9539 203.81 68.9433 203.81 68.9219V67.5619C203.81 67.5086 203.837 67.4819 203.89 67.4819H204.226C204.279 67.4819 204.306 67.5086 204.306 67.5619V68.9219C204.306 68.9433 204.317 68.9539 204.338 68.9539H205.666ZM206.386 71.7059C206.327 71.7059 206.306 71.6766 206.322 71.6179L208.09 66.1699C208.106 66.1273 208.138 66.1059 208.186 66.1059H208.586C208.645 66.1059 208.666 66.1353 208.65 66.1939L206.882 71.6419C206.866 71.6846 206.834 71.7059 206.786 71.7059H206.386ZM212.869 68.9539C212.923 68.9539 212.949 68.9806 212.949 69.0339V69.3699C212.949 69.4233 212.923 69.4499 212.869 69.4499H211.541C211.52 69.4499 211.509 69.4606 211.509 69.4819V70.7779C211.509 70.8313 211.483 70.8579 211.429 70.8579H211.093C211.04 70.8579 211.013 70.8313 211.013 70.7779V69.4819C211.013 69.4606 211.003 69.4499 210.981 69.4499H209.653C209.6 69.4499 209.573 69.4233 209.573 69.3699V69.0339C209.573 68.9806 209.6 68.9539 209.653 68.9539H210.981C211.003 68.9539 211.013 68.9433 211.013 68.9219V67.5619C211.013 67.5086 211.04 67.4819 211.093 67.4819H211.429C211.483 67.4819 211.509 67.5086 211.509 67.5619V68.9219C211.509 68.9433 211.52 68.9539 211.541 68.9539H212.869Z" fill="black"/>
</svg>
