<svg width="250" height="79" viewBox="0 0 250 79" fill="none" xmlns="http://www.w3.org/2000/svg">
<g clip-path="url(#clip0)">
<rect width="250" height="79" fill="white"/>
<rect x="0.5" y="0.5" width="249" height="78" rx="8.5" fill="white" stroke="#EBEBEB"/>
<rect y="31.6062" width="250" height="38" fill="#F2F3F4"/>
<path d="M16.5741 41.6542C16.5741 41.5742 16.6141 41.5342 16.6941 41.5342H17.3061C17.3861 41.5342 17.4261 41.5742 17.4261 41.6542V47.4022C17.4261 48.2982 17.1661 48.9542 16.6461 49.3702C16.1341 49.7862 15.4261 49.9942 14.5221 49.9942C14.3381 49.9942 14.1981 49.9902 14.1021 49.9822C14.0221 49.9742 13.9821 49.9302 13.9821 49.8502L14.0061 49.2982C14.0061 49.2582 14.0181 49.2262 14.0421 49.2022C14.0661 49.1862 14.0941 49.1822 14.1261 49.1902L14.4501 49.2022C15.1941 49.2022 15.7341 49.0542 16.0701 48.7582C16.4061 48.4702 16.5741 48.0102 16.5741 47.3782V46.9342C16.5741 46.9182 16.5661 46.9102 16.5501 46.9102C16.5421 46.9022 16.5301 46.9062 16.5141 46.9222C16.1461 47.4022 15.6221 47.6422 14.9421 47.6422C14.4221 47.6422 13.9581 47.5022 13.5501 47.2222C13.1501 46.9422 12.8821 46.5462 12.7461 46.0342C12.6501 45.7062 12.6021 45.2182 12.6021 44.5702C12.6021 44.2182 12.6101 43.9222 12.6261 43.6822C12.6501 43.4422 12.6941 43.2262 12.7581 43.0342C12.9021 42.5542 13.1621 42.1702 13.5381 41.8822C13.9141 41.5862 14.3661 41.4382 14.8941 41.4382C15.6061 41.4382 16.1461 41.6742 16.5141 42.1462C16.5301 42.1622 16.5421 42.1662 16.5501 42.1582C16.5661 42.1502 16.5741 42.1382 16.5741 42.1222V41.6542ZM16.5141 45.7702C16.5381 45.6502 16.5541 45.5022 16.5621 45.3262C16.5701 45.1502 16.5741 44.8942 16.5741 44.5582C16.5741 44.1502 16.5701 43.8782 16.5621 43.7422C16.5541 43.5982 16.5341 43.4662 16.5021 43.3462C16.4381 43.0102 16.2781 42.7342 16.0221 42.5182C15.7741 42.2942 15.4581 42.1822 15.0741 42.1822C14.6981 42.1822 14.3781 42.2902 14.1141 42.5062C13.8581 42.7222 13.6781 43.0022 13.5741 43.3462C13.4941 43.6022 13.4541 44.0022 13.4541 44.5462C13.4541 45.1302 13.4941 45.5342 13.5741 45.7582C13.6541 46.0942 13.8261 46.3742 14.0901 46.5982C14.3621 46.8142 14.6901 46.9222 15.0741 46.9222C15.4661 46.9222 15.7861 46.8142 16.0341 46.5982C16.2901 46.3822 16.4501 46.1062 16.5141 45.7702ZM23.908 43.5502C23.94 43.7742 23.956 44.0542 23.956 44.3902V44.7742C23.956 44.8542 23.916 44.8942 23.836 44.8942H19.96C19.928 44.8942 19.912 44.9102 19.912 44.9422C19.928 45.3822 19.952 45.6662 19.984 45.7942C20.072 46.1542 20.26 46.4382 20.548 46.6462C20.836 46.8542 21.204 46.9582 21.652 46.9582C21.988 46.9582 22.284 46.8822 22.54 46.7302C22.796 46.5782 22.996 46.3622 23.14 46.0822C23.188 46.0102 23.244 45.9942 23.308 46.0342L23.776 46.3102C23.84 46.3502 23.856 46.4062 23.824 46.4782C23.624 46.8622 23.324 47.1662 22.924 47.3902C22.524 47.6062 22.064 47.7142 21.544 47.7142C20.976 47.7062 20.5 47.5702 20.116 47.3062C19.732 47.0422 19.456 46.6742 19.288 46.2022C19.144 45.8182 19.072 45.2662 19.072 44.5462C19.072 44.2102 19.076 43.9382 19.084 43.7302C19.1 43.5142 19.132 43.3222 19.18 43.1542C19.316 42.6342 19.588 42.2182 19.996 41.9062C20.412 41.5942 20.912 41.4382 21.496 41.4382C22.224 41.4382 22.784 41.6222 23.176 41.9902C23.568 42.3582 23.812 42.8782 23.908 43.5502ZM21.496 42.1822C21.104 42.1822 20.776 42.2862 20.512 42.4942C20.256 42.6942 20.088 42.9662 20.008 43.3102C19.96 43.4782 19.928 43.7502 19.912 44.1262C19.912 44.1582 19.928 44.1742 19.96 44.1742H23.068C23.1 44.1742 23.116 44.1582 23.116 44.1262C23.1 43.7662 23.076 43.5102 23.044 43.3582C22.956 42.9982 22.776 42.7142 22.504 42.5062C22.24 42.2902 21.904 42.1822 21.496 42.1822ZM28.1704 41.4502C28.8104 41.4502 29.3184 41.6382 29.6944 42.0142C30.0784 42.3902 30.2704 42.8942 30.2704 43.5262V47.4862C30.2704 47.5662 30.2304 47.6062 30.1504 47.6062H29.5384C29.4584 47.6062 29.4184 47.5662 29.4184 47.4862V43.6942C29.4184 43.2542 29.2824 42.8942 29.0104 42.6142C28.7464 42.3342 28.4024 42.1942 27.9784 42.1942C27.5384 42.1942 27.1824 42.3302 26.9104 42.6022C26.6384 42.8742 26.5024 43.2302 26.5024 43.6702V47.4862C26.5024 47.5662 26.4624 47.6062 26.3824 47.6062H25.7704C25.6904 47.6062 25.6504 47.5662 25.6504 47.4862V41.6542C25.6504 41.5742 25.6904 41.5342 25.7704 41.5342H26.3824C26.4624 41.5342 26.5024 41.5742 26.5024 41.6542V42.1702C26.5024 42.1862 26.5064 42.1982 26.5144 42.2062C26.5304 42.2142 26.5424 42.2102 26.5504 42.1942C26.9024 41.6982 27.4424 41.4502 28.1704 41.4502ZM36.6931 43.5502C36.7251 43.7742 36.7411 44.0542 36.7411 44.3902V44.7742C36.7411 44.8542 36.7011 44.8942 36.6211 44.8942H32.7451C32.7131 44.8942 32.6971 44.9102 32.6971 44.9422C32.7131 45.3822 32.7371 45.6662 32.7691 45.7942C32.8571 46.1542 33.0451 46.4382 33.3331 46.6462C33.6211 46.8542 33.9891 46.9582 34.4371 46.9582C34.7731 46.9582 35.0691 46.8822 35.3251 46.7302C35.5811 46.5782 35.7811 46.3622 35.9251 46.0822C35.9731 46.0102 36.0291 45.9942 36.0931 46.0342L36.5611 46.3102C36.6251 46.3502 36.6411 46.4062 36.6091 46.4782C36.4091 46.8622 36.1091 47.1662 35.7091 47.3902C35.3091 47.6062 34.8491 47.7142 34.3291 47.7142C33.7611 47.7062 33.2851 47.5702 32.9011 47.3062C32.5171 47.0422 32.2411 46.6742 32.0731 46.2022C31.9291 45.8182 31.8571 45.2662 31.8571 44.5462C31.8571 44.2102 31.8611 43.9382 31.8691 43.7302C31.8851 43.5142 31.9171 43.3222 31.9651 43.1542C32.1011 42.6342 32.3731 42.2182 32.7811 41.9062C33.1971 41.5942 33.6971 41.4382 34.2811 41.4382C35.0091 41.4382 35.5691 41.6222 35.9611 41.9902C36.3531 42.3582 36.5971 42.8782 36.6931 43.5502ZM34.2811 42.1822C33.8891 42.1822 33.5611 42.2862 33.2971 42.4942C33.0411 42.6942 32.8731 42.9662 32.7931 43.3102C32.7451 43.4782 32.7131 43.7502 32.6971 44.1262C32.6971 44.1582 32.7131 44.1742 32.7451 44.1742H35.8531C35.8851 44.1742 35.9011 44.1582 35.9011 44.1262C35.8851 43.7662 35.8611 43.5102 35.8291 43.3582C35.7411 42.9982 35.5611 42.7142 35.2891 42.5062C35.0251 42.2902 34.6891 42.1822 34.2811 42.1822ZM39.5036 43.4062C39.3036 43.4062 39.1396 43.3422 39.0116 43.2142C38.8916 43.0862 38.8316 42.9262 38.8316 42.7342C38.8316 42.5342 38.8916 42.3742 39.0116 42.2542C39.1396 42.1262 39.3036 42.0622 39.5036 42.0622C39.6956 42.0622 39.8556 42.1262 39.9836 42.2542C40.1116 42.3742 40.1756 42.5342 40.1756 42.7342C40.1756 42.9262 40.1116 43.0862 39.9836 43.2142C39.8556 43.3422 39.6956 43.4062 39.5036 43.4062ZM39.5036 47.4502C39.3036 47.4502 39.1396 47.3862 39.0116 47.2582C38.8916 47.1302 38.8316 46.9702 38.8316 46.7782C38.8316 46.5782 38.8916 46.4182 39.0116 46.2982C39.1396 46.1702 39.3036 46.1062 39.5036 46.1062C39.6956 46.1062 39.8556 46.1702 39.9836 46.2982C40.1116 46.4182 40.1756 46.5782 40.1756 46.7782C40.1756 46.9702 40.1116 47.1302 39.9836 47.2582C39.8556 47.3862 39.6956 47.4502 39.5036 47.4502ZM79.6288 40.4302C79.4368 40.4302 79.2768 40.3662 79.1488 40.2382C79.0208 40.1102 78.9568 39.9502 78.9568 39.7582C78.9568 39.5582 79.0208 39.3982 79.1488 39.2782C79.2768 39.1502 79.4368 39.0862 79.6288 39.0862C79.8208 39.0862 79.9808 39.1502 80.1088 39.2782C80.2368 39.3982 80.3008 39.5582 80.3008 39.7582C80.3008 39.9502 80.2368 40.1102 80.1088 40.2382C79.9808 40.3662 79.8208 40.4302 79.6288 40.4302ZM79.2928 47.5942C79.2128 47.5942 79.1728 47.5542 79.1728 47.4742V41.6422C79.1728 41.5622 79.2128 41.5222 79.2928 41.5222H79.9048C79.9848 41.5222 80.0248 41.5622 80.0248 41.6422V47.4742C80.0248 47.5542 79.9848 47.5942 79.9048 47.5942H79.2928ZM85.8794 39.3262C85.8794 39.2462 85.9194 39.2062 85.9994 39.2062H86.6114C86.6914 39.2062 86.7314 39.2462 86.7314 39.3262V47.4862C86.7314 47.5662 86.6914 47.6062 86.6114 47.6062H85.9994C85.9194 47.6062 85.8794 47.5662 85.8794 47.4862V46.9822C85.8794 46.9662 85.8714 46.9582 85.8554 46.9582C85.8474 46.9502 85.8354 46.9542 85.8194 46.9702C85.6434 47.2022 85.4234 47.3822 85.1594 47.5102C84.9034 47.6382 84.6154 47.7022 84.2954 47.7022C83.7354 47.7022 83.2634 47.5582 82.8794 47.2702C82.5034 46.9822 82.2434 46.5902 82.0994 46.0942C81.9874 45.7342 81.9314 45.2262 81.9314 44.5702C81.9314 43.9062 81.9794 43.4102 82.0754 43.0822C82.2194 42.5702 82.4834 42.1702 82.8674 41.8822C83.2514 41.5862 83.7274 41.4382 84.2954 41.4382C84.6074 41.4382 84.8954 41.5022 85.1594 41.6302C85.4234 41.7502 85.6434 41.9262 85.8194 42.1582C85.8354 42.1742 85.8474 42.1822 85.8554 42.1822C85.8714 42.1742 85.8794 42.1622 85.8794 42.1462V39.3262ZM85.6634 46.0342C85.7354 45.8742 85.7874 45.6862 85.8194 45.4702C85.8514 45.2542 85.8674 44.9542 85.8674 44.5702C85.8674 44.1862 85.8514 43.8862 85.8194 43.6702C85.7874 43.4462 85.7314 43.2502 85.6514 43.0822C85.5554 42.8102 85.3954 42.5942 85.1714 42.4342C84.9554 42.2662 84.6954 42.1822 84.3914 42.1822C84.0714 42.1822 83.7954 42.2622 83.5634 42.4222C83.3314 42.5822 83.1634 42.7942 83.0594 43.0582C82.9634 43.2342 82.8914 43.4342 82.8434 43.6582C82.8034 43.8742 82.7834 44.1782 82.7834 44.5702C82.7834 44.9462 82.7994 45.2422 82.8314 45.4582C82.8634 45.6662 82.9194 45.8542 82.9994 46.0222C83.0954 46.3102 83.2634 46.5382 83.5034 46.7062C83.7514 46.8742 84.0434 46.9582 84.3794 46.9582C84.6994 46.9582 84.9674 46.8742 85.1834 46.7062C85.3994 46.5382 85.5594 46.3142 85.6634 46.0342ZM89.7301 43.4062C89.5301 43.4062 89.3661 43.3422 89.2381 43.2142C89.1181 43.0862 89.0581 42.9262 89.0581 42.7342C89.0581 42.5342 89.1181 42.3742 89.2381 42.2542C89.3661 42.1262 89.5301 42.0622 89.7301 42.0622C89.9221 42.0622 90.0821 42.1262 90.2101 42.2542C90.3381 42.3742 90.4021 42.5342 90.4021 42.7342C90.4021 42.9262 90.3381 43.0862 90.2101 43.2142C90.0821 43.3422 89.9221 43.4062 89.7301 43.4062ZM89.7301 47.4502C89.5301 47.4502 89.3661 47.3862 89.2381 47.2582C89.1181 47.1302 89.0581 46.9702 89.0581 46.7782C89.0581 46.5782 89.1181 46.4182 89.2381 46.2982C89.3661 46.1702 89.5301 46.1062 89.7301 46.1062C89.9221 46.1062 90.0821 46.1702 90.2101 46.2982C90.3381 46.4182 90.4021 46.5782 90.4021 46.7782C90.4021 46.9702 90.3381 47.1302 90.2101 47.2582C90.0821 47.3862 89.9221 47.4502 89.7301 47.4502ZM14.3301 62.6562C13.9568 62.6562 13.6235 62.5962 13.3301 62.4762C13.0435 62.3562 12.8201 62.1962 12.6601 61.9962C12.5068 61.7962 12.4301 61.5729 12.4301 61.3262V61.2062C12.4301 61.1395 12.4635 61.1062 12.5301 61.1062H13.0101C13.0768 61.1062 13.1101 61.1395 13.1101 61.2062V61.2862C13.1101 61.5062 13.2235 61.6995 13.4501 61.8662C13.6835 62.0262 13.9735 62.1062 14.3201 62.1062C14.6668 62.1062 14.9468 62.0295 15.1601 61.8762C15.3735 61.7162 15.4801 61.5162 15.4801 61.2762C15.4801 61.1095 15.4235 60.9729 15.3101 60.8662C15.2035 60.7595 15.0735 60.6762 14.9201 60.6162C14.7735 60.5562 14.5435 60.4795 14.2301 60.3862C13.8568 60.2795 13.5501 60.1729 13.3101 60.0662C13.0701 59.9595 12.8668 59.8129 12.7001 59.6262C12.5401 59.4329 12.4601 59.1895 12.4601 58.8962C12.4601 58.4695 12.6268 58.1295 12.9601 57.8762C13.2935 57.6229 13.7335 57.4962 14.2801 57.4962C14.6468 57.4962 14.9701 57.5562 15.2501 57.6762C15.5368 57.7962 15.7568 57.9629 15.9101 58.1762C16.0635 58.3829 16.1401 58.6162 16.1401 58.8762V58.9062C16.1401 58.9729 16.1068 59.0062 16.0401 59.0062H15.5701C15.5035 59.0062 15.4701 58.9729 15.4701 58.9062V58.8762C15.4701 58.6495 15.3601 58.4595 15.1401 58.3062C14.9268 58.1529 14.6368 58.0762 14.2701 58.0762C13.9301 58.0762 13.6568 58.1462 13.4501 58.2862C13.2435 58.4195 13.1401 58.6062 13.1401 58.8462C13.1401 59.0729 13.2401 59.2462 13.4401 59.3662C13.6401 59.4862 13.9501 59.6062 14.3701 59.7262C14.7568 59.8395 15.0701 59.9462 15.3101 60.0462C15.5501 60.1462 15.7568 60.2929 15.9301 60.4862C16.1035 60.6729 16.1901 60.9195 16.1901 61.2262C16.1901 61.6595 16.0201 62.0062 15.6801 62.2662C15.3401 62.5262 14.8901 62.6562 14.3301 62.6562ZM19.7448 58.0362C19.7448 58.1029 19.7115 58.1362 19.6448 58.1362H18.5148C18.4881 58.1362 18.4748 58.1495 18.4748 58.1762V61.1262C18.4748 61.4462 18.5448 61.6729 18.6848 61.8062C18.8315 61.9329 19.0581 61.9962 19.3648 61.9962H19.6148C19.6815 61.9962 19.7148 62.0295 19.7148 62.0962V62.5062C19.7148 62.5729 19.6815 62.6062 19.6148 62.6062C19.5348 62.6129 19.4115 62.6162 19.2448 62.6162C18.7648 62.6162 18.4015 62.5262 18.1548 62.3462C17.9081 62.1662 17.7848 61.8329 17.7848 61.3462V58.1762C17.7848 58.1495 17.7715 58.1362 17.7448 58.1362H17.1348C17.0681 58.1362 17.0348 58.1029 17.0348 58.0362V57.6462C17.0348 57.5795 17.0681 57.5462 17.1348 57.5462H17.7448C17.7715 57.5462 17.7848 57.5329 17.7848 57.5062V56.3462C17.7848 56.2795 17.8181 56.2462 17.8848 56.2462H18.3748C18.4415 56.2462 18.4748 56.2795 18.4748 56.3462V57.5062C18.4748 57.5329 18.4881 57.5462 18.5148 57.5462H19.6448C19.7115 57.5462 19.7448 57.5795 19.7448 57.6462V58.0362ZM22.8674 57.4662C23.4674 57.4662 23.9307 57.6195 24.2574 57.9262C24.584 58.2329 24.7474 58.6395 24.7474 59.1462V62.5062C24.7474 62.5729 24.714 62.6062 24.6474 62.6062H24.1374C24.0707 62.6062 24.0374 62.5729 24.0374 62.5062V62.0962C24.0374 62.0829 24.0307 62.0729 24.0174 62.0662C24.0107 62.0595 24.0007 62.0629 23.9874 62.0762C23.8207 62.2762 23.604 62.4295 23.3374 62.5362C23.0707 62.6362 22.774 62.6862 22.4474 62.6862C21.974 62.6862 21.5774 62.5662 21.2574 62.3262C20.9374 62.0862 20.7774 61.7195 20.7774 61.2262C20.7774 60.7262 20.9574 60.3329 21.3174 60.0462C21.684 59.7529 22.1907 59.6062 22.8374 59.6062H23.9974C24.024 59.6062 24.0374 59.5929 24.0374 59.5662V59.1862C24.0374 58.8462 23.9407 58.5795 23.7474 58.3862C23.5607 58.1862 23.2674 58.0862 22.8674 58.0862C22.5474 58.0862 22.2874 58.1495 22.0874 58.2762C21.8874 58.3962 21.764 58.5662 21.7174 58.7862C21.6974 58.8529 21.6574 58.8829 21.5974 58.8762L21.0574 58.8062C20.984 58.7929 20.954 58.7662 20.9674 58.7262C21.0207 58.3529 21.2207 58.0495 21.5674 57.8162C21.914 57.5829 22.3474 57.4662 22.8674 57.4662ZM22.5874 62.0762C22.9807 62.0762 23.3207 61.9795 23.6074 61.7862C23.894 61.5862 24.0374 61.3195 24.0374 60.9862V60.2062C24.0374 60.1795 24.024 60.1662 23.9974 60.1662H22.9474C22.5074 60.1662 22.154 60.2562 21.8874 60.4362C21.6207 60.6162 21.4874 60.8662 21.4874 61.1862C21.4874 61.4795 21.5874 61.7029 21.7874 61.8562C21.994 62.0029 22.2607 62.0762 22.5874 62.0762ZM28.2648 57.4962C28.4848 57.4962 28.6748 57.5395 28.8348 57.6262C28.8881 57.6529 28.9081 57.6962 28.8948 57.7562L28.7848 58.2462C28.7648 58.3129 28.7215 58.3329 28.6548 58.3062C28.5415 58.2595 28.4115 58.2362 28.2648 58.2362L28.1348 58.2462C27.7881 58.2595 27.5015 58.3895 27.2748 58.6362C27.0481 58.8762 26.9348 59.1829 26.9348 59.5562V62.5062C26.9348 62.5729 26.9015 62.6062 26.8348 62.6062H26.3248C26.2581 62.6062 26.2248 62.5729 26.2248 62.5062V57.6462C26.2248 57.5795 26.2581 57.5462 26.3248 57.5462H26.8348C26.9015 57.5462 26.9348 57.5795 26.9348 57.6462V58.2562C26.9348 58.2762 26.9381 58.2895 26.9448 58.2962C26.9581 58.2962 26.9681 58.2895 26.9748 58.2762C27.1148 58.0295 27.2915 57.8395 27.5048 57.7062C27.7248 57.5662 27.9781 57.4962 28.2648 57.4962ZM32.2741 58.0362C32.2741 58.1029 32.2408 58.1362 32.1741 58.1362H31.0441C31.0174 58.1362 31.0041 58.1495 31.0041 58.1762V61.1262C31.0041 61.4462 31.0741 61.6729 31.2141 61.8062C31.3608 61.9329 31.5874 61.9962 31.8941 61.9962H32.1441C32.2108 61.9962 32.2441 62.0295 32.2441 62.0962V62.5062C32.2441 62.5729 32.2108 62.6062 32.1441 62.6062C32.0641 62.6129 31.9408 62.6162 31.7741 62.6162C31.2941 62.6162 30.9308 62.5262 30.6841 62.3462C30.4374 62.1662 30.3141 61.8329 30.3141 61.3462V58.1762C30.3141 58.1495 30.3008 58.1362 30.2741 58.1362H29.6641C29.5974 58.1362 29.5641 58.1029 29.5641 58.0362V57.6462C29.5641 57.5795 29.5974 57.5462 29.6641 57.5462H30.2741C30.3008 57.5462 30.3141 57.5329 30.3141 57.5062V56.3462C30.3141 56.2795 30.3474 56.2462 30.4141 56.2462H30.9041C30.9708 56.2462 31.0041 56.2795 31.0041 56.3462V57.5062C31.0041 57.5329 31.0174 57.5462 31.0441 57.5462H32.1741C32.2408 57.5462 32.2741 57.5795 32.2741 57.6462V58.0362ZM34.5367 59.1062C34.37 59.1062 34.2333 59.0529 34.1267 58.9462C34.0267 58.8395 33.9767 58.7062 33.9767 58.5462C33.9767 58.3795 34.0267 58.2462 34.1267 58.1462C34.2333 58.0395 34.37 57.9862 34.5367 57.9862C34.6967 57.9862 34.83 58.0395 34.9367 58.1462C35.0433 58.2462 35.0967 58.3795 35.0967 58.5462C35.0967 58.7062 35.0433 58.8395 34.9367 58.9462C34.83 59.0529 34.6967 59.1062 34.5367 59.1062ZM34.5367 62.4762C34.37 62.4762 34.2333 62.4229 34.1267 62.3162C34.0267 62.2095 33.9767 62.0762 33.9767 61.9162C33.9767 61.7495 34.0267 61.6162 34.1267 61.5162C34.2333 61.4095 34.37 61.3562 34.5367 61.3562C34.6967 61.3562 34.83 61.4095 34.9367 61.5162C35.0433 61.6162 35.0967 61.7495 35.0967 61.9162C35.0967 62.0762 35.0433 62.2095 34.9367 62.3162C34.83 62.4229 34.6967 62.4762 34.5367 62.4762ZM99.6556 59.2262C99.6823 59.4129 99.6956 59.6462 99.6956 59.9262V60.2462C99.6956 60.3129 99.6623 60.3462 99.5956 60.3462H96.3656C96.3389 60.3462 96.3256 60.3595 96.3256 60.3862C96.3389 60.7529 96.3589 60.9895 96.3856 61.0962C96.4589 61.3962 96.6156 61.6329 96.8556 61.8062C97.0956 61.9795 97.4023 62.0662 97.7756 62.0662C98.0556 62.0662 98.3023 62.0029 98.5156 61.8762C98.7289 61.7495 98.8956 61.5695 99.0156 61.3362C99.0556 61.2762 99.1023 61.2629 99.1556 61.2962L99.5456 61.5262C99.5989 61.5595 99.6123 61.6062 99.5856 61.6662C99.4189 61.9862 99.1689 62.2395 98.8356 62.4262C98.5023 62.6062 98.1189 62.6962 97.6856 62.6962C97.2123 62.6895 96.8156 62.5762 96.4956 62.3562C96.1756 62.1362 95.9456 61.8295 95.8056 61.4362C95.6856 61.1162 95.6256 60.6562 95.6256 60.0562C95.6256 59.7762 95.6289 59.5495 95.6356 59.3762C95.6489 59.1962 95.6756 59.0362 95.7156 58.8962C95.8289 58.4629 96.0556 58.1162 96.3956 57.8562C96.7423 57.5962 97.1589 57.4662 97.6456 57.4662C98.2523 57.4662 98.7189 57.6195 99.0456 57.9262C99.3723 58.2329 99.5756 58.6662 99.6556 59.2262ZM97.6456 58.0862C97.3189 58.0862 97.0456 58.1729 96.8256 58.3462C96.6123 58.5129 96.4723 58.7395 96.4056 59.0262C96.3656 59.1662 96.3389 59.3929 96.3256 59.7062C96.3256 59.7329 96.3389 59.7462 96.3656 59.7462H98.9556C98.9823 59.7462 98.9956 59.7329 98.9956 59.7062C98.9823 59.4062 98.9623 59.1929 98.9356 59.0662C98.8623 58.7662 98.7123 58.5295 98.4856 58.3562C98.2656 58.1762 97.9856 58.0862 97.6456 58.0862ZM103.208 57.4762C103.741 57.4762 104.164 57.6329 104.478 57.9462C104.798 58.2595 104.958 58.6795 104.958 59.2062V62.5062C104.958 62.5729 104.924 62.6062 104.858 62.6062H104.348C104.281 62.6062 104.248 62.5729 104.248 62.5062V59.3462C104.248 58.9795 104.134 58.6795 103.908 58.4462C103.688 58.2129 103.401 58.0962 103.048 58.0962C102.681 58.0962 102.384 58.2095 102.158 58.4362C101.931 58.6629 101.818 58.9595 101.818 59.3262V62.5062C101.818 62.5729 101.784 62.6062 101.718 62.6062H101.208C101.141 62.6062 101.108 62.5729 101.108 62.5062V57.6462C101.108 57.5795 101.141 57.5462 101.208 57.5462H101.718C101.784 57.5462 101.818 57.5795 101.818 57.6462V58.0762C101.818 58.0895 101.821 58.0995 101.828 58.1062C101.841 58.1129 101.851 58.1095 101.858 58.0962C102.151 57.6829 102.601 57.4762 103.208 57.4762ZM109.57 55.7062C109.57 55.6395 109.603 55.6062 109.67 55.6062H110.18C110.247 55.6062 110.28 55.6395 110.28 55.7062V62.5062C110.28 62.5729 110.247 62.6062 110.18 62.6062H109.67C109.603 62.6062 109.57 62.5729 109.57 62.5062V62.0862C109.57 62.0729 109.563 62.0662 109.55 62.0662C109.543 62.0595 109.533 62.0629 109.52 62.0762C109.373 62.2695 109.19 62.4195 108.97 62.5262C108.757 62.6329 108.517 62.6862 108.25 62.6862C107.783 62.6862 107.39 62.5662 107.07 62.3262C106.757 62.0862 106.54 61.7595 106.42 61.3462C106.327 61.0462 106.28 60.6229 106.28 60.0762C106.28 59.5229 106.32 59.1095 106.4 58.8362C106.52 58.4095 106.74 58.0762 107.06 57.8362C107.38 57.5895 107.777 57.4662 108.25 57.4662C108.51 57.4662 108.75 57.5195 108.97 57.6262C109.19 57.7262 109.373 57.8729 109.52 58.0662C109.533 58.0795 109.543 58.0862 109.55 58.0862C109.563 58.0795 109.57 58.0695 109.57 58.0562V55.7062ZM109.39 61.2962C109.45 61.1629 109.493 61.0062 109.52 60.8262C109.547 60.6462 109.56 60.3962 109.56 60.0762C109.56 59.7562 109.547 59.5062 109.52 59.3262C109.493 59.1395 109.447 58.9762 109.38 58.8362C109.3 58.6095 109.167 58.4295 108.98 58.2962C108.8 58.1562 108.583 58.0862 108.33 58.0862C108.063 58.0862 107.833 58.1529 107.64 58.2862C107.447 58.4195 107.307 58.5962 107.22 58.8162C107.14 58.9629 107.08 59.1295 107.04 59.3162C107.007 59.4962 106.99 59.7495 106.99 60.0762C106.99 60.3895 107.003 60.6362 107.03 60.8162C107.057 60.9895 107.103 61.1462 107.17 61.2862C107.25 61.5262 107.39 61.7162 107.59 61.8562C107.797 61.9962 108.04 62.0662 108.32 62.0662C108.587 62.0662 108.81 61.9962 108.99 61.8562C109.17 61.7162 109.303 61.5295 109.39 61.2962ZM112.779 59.1062C112.612 59.1062 112.476 59.0529 112.369 58.9462C112.269 58.8395 112.219 58.7062 112.219 58.5462C112.219 58.3795 112.269 58.2462 112.369 58.1462C112.476 58.0395 112.612 57.9862 112.779 57.9862C112.939 57.9862 113.072 58.0395 113.179 58.1462C113.286 58.2462 113.339 58.3795 113.339 58.5462C113.339 58.7062 113.286 58.8395 113.179 58.9462C113.072 59.0529 112.939 59.1062 112.779 59.1062ZM112.779 62.4762C112.612 62.4762 112.476 62.4229 112.369 62.3162C112.269 62.2095 112.219 62.0762 112.219 61.9162C112.219 61.7495 112.269 61.6162 112.369 61.5162C112.476 61.4095 112.612 61.3562 112.779 61.3562C112.939 61.3562 113.072 61.4095 113.179 61.5162C113.286 61.6162 113.339 61.7495 113.339 61.9162C113.339 62.0762 113.286 62.2095 113.179 62.3162C113.072 62.4229 112.939 62.4762 112.779 62.4762Z" fill="#7E7E7E"/>
<path d="M50.5083 39.8302C50.5083 39.9102 50.4683 39.9502 50.3883 39.9502H45.9723C45.9403 39.9502 45.9243 39.9662 45.9243 39.9982V42.9622C45.9243 42.9942 45.9403 43.0102 45.9723 43.0102H49.0683C49.1483 43.0102 49.1883 43.0502 49.1883 43.1302V43.6342C49.1883 43.7142 49.1483 43.7542 49.0683 43.7542H45.9723C45.9403 43.7542 45.9243 43.7702 45.9243 43.8022V46.8142C45.9243 46.8462 45.9403 46.8622 45.9723 46.8622H50.3883C50.4683 46.8622 50.5083 46.9022 50.5083 46.9822V47.4862C50.5083 47.5662 50.4683 47.6062 50.3883 47.6062H45.1923C45.1123 47.6062 45.0723 47.5662 45.0723 47.4862V39.3262C45.0723 39.2462 45.1123 39.2062 45.1923 39.2062H50.3883C50.4683 39.2062 50.5083 39.2462 50.5083 39.3262V39.8302ZM57.786 39.2902C57.826 39.2342 57.874 39.2062 57.93 39.2062H58.554C58.634 39.2062 58.674 39.2462 58.674 39.3262V47.4862C58.674 47.5662 58.634 47.6062 58.554 47.6062H57.942C57.862 47.6062 57.822 47.5662 57.822 47.4862V40.8142C57.822 40.7902 57.814 40.7742 57.798 40.7662C57.782 40.7582 57.77 40.7662 57.762 40.7902L55.806 43.7902C55.766 43.8462 55.718 43.8742 55.662 43.8742H55.35C55.294 43.8742 55.246 43.8502 55.206 43.8022L53.25 40.8262C53.242 40.8022 53.23 40.7942 53.214 40.8022C53.198 40.8102 53.19 40.8262 53.19 40.8502V47.4862C53.19 47.5662 53.15 47.6062 53.07 47.6062H52.458C52.378 47.6062 52.338 47.5662 52.338 47.4862V39.3262C52.338 39.2462 52.378 39.2062 52.458 39.2062H53.082C53.146 39.2062 53.194 39.2302 53.226 39.2782L55.482 42.6982C55.49 42.7062 55.502 42.7102 55.518 42.7102C55.534 42.7102 55.546 42.7062 55.554 42.6982L57.786 39.2902ZM60.3401 47.6062C60.2921 47.6062 60.2601 47.5942 60.2441 47.5702C60.2361 47.5382 60.2441 47.5022 60.2681 47.4622L62.7881 43.4422C62.8041 43.4182 62.8041 43.3942 62.7881 43.3702L60.2681 39.3502C60.2521 39.3182 60.2441 39.2942 60.2441 39.2782C60.2441 39.2302 60.2761 39.2062 60.3401 39.2062H61.0121C61.0681 39.2062 61.1161 39.2342 61.1561 39.2902L63.2921 42.7102C63.3001 42.7182 63.3121 42.7222 63.3281 42.7222C63.3441 42.7222 63.3561 42.7182 63.3641 42.7102L65.4881 39.2902C65.5281 39.2342 65.5761 39.2062 65.6321 39.2062H66.2921C66.3401 39.2062 66.3681 39.2222 66.3761 39.2542C66.3921 39.2782 66.3881 39.3102 66.3641 39.3502L63.8561 43.3822C63.8481 43.4062 63.8481 43.4302 63.8561 43.4542L66.3641 47.4622C66.3801 47.4942 66.3881 47.5182 66.3881 47.5342C66.3881 47.5822 66.3561 47.6062 66.2921 47.6062H65.6321C65.5761 47.6062 65.5281 47.5782 65.4881 47.5222L63.3641 44.1142C63.3561 44.0982 63.3441 44.0902 63.3281 44.0902C63.3121 44.0902 63.3001 44.0982 63.2921 44.1142L61.1561 47.5222C61.1161 47.5782 61.0681 47.6062 61.0121 47.6062H60.3401ZM68.6785 46.8022C68.6545 46.8422 68.6625 46.8622 68.7025 46.8622H72.4705C72.5505 46.8622 72.5905 46.9022 72.5905 46.9822V47.4862C72.5905 47.5662 72.5505 47.6062 72.4705 47.6062H67.6825C67.6025 47.6062 67.5625 47.5662 67.5625 47.4862V46.9822C67.5625 46.9262 67.5825 46.8782 67.6225 46.8382C67.8945 46.5182 68.5065 45.7662 69.4585 44.5822L70.3465 43.4782C71.0985 42.5262 71.4745 41.7862 71.4745 41.2582C71.4745 40.8342 71.3305 40.4942 71.0425 40.2382C70.7545 39.9822 70.3785 39.8542 69.9145 39.8542C69.4585 39.8542 69.0905 39.9862 68.8105 40.2502C68.5305 40.5062 68.3945 40.8462 68.4025 41.2702V41.6422C68.4025 41.7222 68.3625 41.7622 68.2825 41.7622H67.6585C67.5785 41.7622 67.5385 41.7222 67.5385 41.6422V41.1622C67.5545 40.5462 67.7825 40.0502 68.2225 39.6742C68.6705 39.2982 69.2345 39.1102 69.9145 39.1102C70.3945 39.1102 70.8185 39.2022 71.1865 39.3862C71.5545 39.5702 71.8385 39.8262 72.0385 40.1542C72.2385 40.4742 72.3385 40.8382 72.3385 41.2462C72.3385 41.9262 71.9625 42.7462 71.2105 43.7062C70.8185 44.2102 70.0625 45.1382 68.9425 46.4902L68.6785 46.8022ZM103.137 39.8302C103.137 39.9102 103.097 39.9502 103.017 39.9502H98.6012C98.5692 39.9502 98.5532 39.9662 98.5532 39.9982V42.9622C98.5532 42.9942 98.5692 43.0102 98.6012 43.0102H101.697C101.777 43.0102 101.817 43.0502 101.817 43.1302V43.6342C101.817 43.7142 101.777 43.7542 101.697 43.7542H98.6012C98.5692 43.7542 98.5532 43.7702 98.5532 43.8022V46.8142C98.5532 46.8462 98.5692 46.8622 98.6012 46.8622H103.017C103.097 46.8622 103.137 46.9022 103.137 46.9822V47.4862C103.137 47.5662 103.097 47.6062 103.017 47.6062H97.8212C97.7412 47.6062 97.7012 47.5662 97.7012 47.4862V39.3262C97.7012 39.2462 97.7412 39.2062 97.8212 39.2062H103.017C103.097 39.2062 103.137 39.2462 103.137 39.3262V39.8302ZM109.971 39.3262C109.971 39.2462 110.011 39.2062 110.091 39.2062H110.703C110.783 39.2062 110.823 39.2462 110.823 39.3262V47.4862C110.823 47.5662 110.783 47.6062 110.703 47.6062H110.103C110.047 47.6062 109.999 47.5782 109.959 47.5222L105.867 40.8622C105.859 40.8382 105.847 40.8302 105.831 40.8382C105.815 40.8382 105.807 40.8502 105.807 40.8742L105.819 47.4862C105.819 47.5662 105.779 47.6062 105.699 47.6062H105.087C105.007 47.6062 104.967 47.5662 104.967 47.4862V39.3262C104.967 39.2462 105.007 39.2062 105.087 39.2062H105.687C105.743 39.2062 105.791 39.2342 105.831 39.2902L109.923 45.9502C109.931 45.9742 109.943 45.9862 109.959 45.9862C109.975 45.9782 109.983 45.9622 109.983 45.9382L109.971 39.3262ZM115.5 47.7022C114.596 47.7022 113.88 47.4982 113.352 47.0902C112.832 46.6822 112.572 46.1382 112.572 45.4582V45.0862C112.572 45.0062 112.612 44.9662 112.692 44.9662H113.28C113.36 44.9662 113.4 45.0062 113.4 45.0862V45.4102C113.4 45.8742 113.592 46.2502 113.976 46.5382C114.36 46.8182 114.892 46.9582 115.572 46.9582C116.188 46.9582 116.656 46.8302 116.976 46.5742C117.296 46.3102 117.456 45.9622 117.456 45.5302C117.456 45.2502 117.38 45.0102 117.228 44.8102C117.084 44.6102 116.856 44.4222 116.544 44.2462C116.24 44.0702 115.808 43.8662 115.248 43.6342C114.648 43.3942 114.18 43.1862 113.844 43.0102C113.516 42.8262 113.248 42.5942 113.04 42.3142C112.84 42.0262 112.74 41.6662 112.74 41.2342C112.74 40.5622 112.972 40.0422 113.436 39.6742C113.908 39.2982 114.552 39.1102 115.368 39.1102C116.256 39.1102 116.956 39.3182 117.468 39.7342C117.98 40.1502 118.236 40.7022 118.236 41.3902V41.6542C118.236 41.7342 118.196 41.7742 118.116 41.7742H117.516C117.436 41.7742 117.396 41.7342 117.396 41.6542V41.4382C117.396 40.9742 117.212 40.5942 116.844 40.2982C116.484 40.0022 115.98 39.8542 115.332 39.8542C114.764 39.8542 114.328 39.9702 114.024 40.2022C113.72 40.4342 113.568 40.7702 113.568 41.2102C113.568 41.4982 113.64 41.7382 113.784 41.9302C113.936 42.1142 114.148 42.2782 114.42 42.4222C114.7 42.5582 115.128 42.7382 115.704 42.9622C116.288 43.2022 116.756 43.4262 117.108 43.6342C117.468 43.8422 117.756 44.0982 117.972 44.4022C118.196 44.6982 118.308 45.0622 118.308 45.4942C118.308 46.1662 118.06 46.7022 117.564 47.1022C117.068 47.5022 116.38 47.7022 115.5 47.7022ZM122.64 47.7022C122.08 47.7022 121.588 47.5942 121.164 47.3782C120.74 47.1542 120.408 46.8422 120.168 46.4422C119.936 46.0422 119.82 45.5822 119.82 45.0622V41.7502C119.82 41.2302 119.936 40.7702 120.168 40.3702C120.408 39.9702 120.74 39.6622 121.164 39.4462C121.588 39.2222 122.08 39.1102 122.64 39.1102C123.192 39.1102 123.68 39.2182 124.104 39.4342C124.536 39.6502 124.868 39.9542 125.1 40.3462C125.332 40.7302 125.448 41.1662 125.448 41.6542V41.8102C125.448 41.8902 125.408 41.9302 125.328 41.9302H124.716C124.636 41.9302 124.596 41.8902 124.596 41.8102V41.6662C124.596 41.1302 124.416 40.6942 124.056 40.3582C123.704 40.0222 123.232 39.8542 122.64 39.8542C122.048 39.8542 121.572 40.0262 121.212 40.3702C120.852 40.7142 120.672 41.1662 120.672 41.7262V45.0862C120.672 45.6462 120.856 46.0982 121.224 46.4422C121.592 46.7862 122.076 46.9582 122.676 46.9582C123.26 46.9582 123.724 46.7982 124.068 46.4782C124.42 46.1582 124.596 45.7302 124.596 45.1942V44.1022C124.596 44.0702 124.58 44.0542 124.548 44.0542H122.784C122.704 44.0542 122.664 44.0142 122.664 43.9342V43.4302C122.664 43.3502 122.704 43.3102 122.784 43.3102H125.328C125.408 43.3102 125.448 43.3502 125.448 43.4302V44.9782C125.448 45.8342 125.192 46.5022 124.68 46.9822C124.176 47.4622 123.496 47.7022 122.64 47.7022ZM129.687 47.7262C128.919 47.7262 128.307 47.5062 127.851 47.0662C127.395 46.6262 127.167 46.0382 127.167 45.3022V41.5102C127.167 40.7742 127.395 40.1902 127.851 39.7582C128.307 39.3182 128.919 39.0982 129.687 39.0982C130.463 39.0982 131.083 39.3182 131.547 39.7582C132.011 40.1982 132.243 40.7822 132.243 41.5102V45.3022C132.243 46.0382 132.011 46.6262 131.547 47.0662C131.083 47.5062 130.463 47.7262 129.687 47.7262ZM129.687 46.9822C130.199 46.9822 130.611 46.8342 130.923 46.5382C131.235 46.2422 131.391 45.8462 131.391 45.3502V41.4742C131.391 40.9862 131.235 40.5942 130.923 40.2982C130.619 40.0022 130.207 39.8542 129.687 39.8542C129.183 39.8542 128.779 40.0022 128.475 40.2982C128.171 40.5942 128.019 40.9862 128.019 41.4742V45.3502C128.019 45.8462 128.171 46.2422 128.475 46.5382C128.779 46.8342 129.183 46.9822 129.687 46.9822ZM136.473 47.7262C135.705 47.7262 135.093 47.5062 134.637 47.0662C134.181 46.6262 133.953 46.0382 133.953 45.3022V41.5102C133.953 40.7742 134.181 40.1902 134.637 39.7582C135.093 39.3182 135.705 39.0982 136.473 39.0982C137.249 39.0982 137.869 39.3182 138.333 39.7582C138.797 40.1982 139.029 40.7822 139.029 41.5102V45.3022C139.029 46.0382 138.797 46.6262 138.333 47.0662C137.869 47.5062 137.249 47.7262 136.473 47.7262ZM136.473 46.9822C136.985 46.9822 137.397 46.8342 137.709 46.5382C138.021 46.2422 138.177 45.8462 138.177 45.3502V41.4742C138.177 40.9862 138.021 40.5942 137.709 40.2982C137.405 40.0022 136.993 39.8542 136.473 39.8542C135.969 39.8542 135.565 40.0022 135.261 40.2982C134.957 40.5942 134.805 40.9862 134.805 41.4742V45.3502C134.805 45.8462 134.957 46.2422 135.261 46.5382C135.565 46.8342 135.969 46.9822 136.473 46.9822ZM143.258 47.7262C142.49 47.7262 141.878 47.5062 141.422 47.0662C140.966 46.6262 140.738 46.0382 140.738 45.3022V41.5102C140.738 40.7742 140.966 40.1902 141.422 39.7582C141.878 39.3182 142.49 39.0982 143.258 39.0982C144.034 39.0982 144.654 39.3182 145.118 39.7582C145.582 40.1982 145.814 40.7822 145.814 41.5102V45.3022C145.814 46.0382 145.582 46.6262 145.118 47.0662C144.654 47.5062 144.034 47.7262 143.258 47.7262ZM143.258 46.9822C143.77 46.9822 144.182 46.8342 144.494 46.5382C144.806 46.2422 144.962 45.8462 144.962 45.3502V41.4742C144.962 40.9862 144.806 40.5942 144.494 40.2982C144.19 40.0022 143.778 39.8542 143.258 39.8542C142.754 39.8542 142.35 40.0022 142.046 40.2982C141.742 40.5942 141.59 40.9862 141.59 41.4742V45.3502C141.59 45.8462 141.742 46.2422 142.046 46.5382C142.35 46.8342 142.754 46.9822 143.258 46.9822ZM150.043 47.7262C149.275 47.7262 148.663 47.5062 148.207 47.0662C147.751 46.6262 147.523 46.0382 147.523 45.3022V41.5102C147.523 40.7742 147.751 40.1902 148.207 39.7582C148.663 39.3182 149.275 39.0982 150.043 39.0982C150.819 39.0982 151.439 39.3182 151.903 39.7582C152.367 40.1982 152.599 40.7822 152.599 41.5102V45.3022C152.599 46.0382 152.367 46.6262 151.903 47.0662C151.439 47.5062 150.819 47.7262 150.043 47.7262ZM150.043 46.9822C150.555 46.9822 150.967 46.8342 151.279 46.5382C151.591 46.2422 151.747 45.8462 151.747 45.3502V41.4742C151.747 40.9862 151.591 40.5942 151.279 40.2982C150.975 40.0022 150.563 39.8542 150.043 39.8542C149.539 39.8542 149.135 40.0022 148.831 40.2982C148.527 40.5942 148.375 40.9862 148.375 41.4742V45.3502C148.375 45.8462 148.527 46.2422 148.831 46.5382C149.135 46.8342 149.539 46.9822 150.043 46.9822ZM156.828 47.7262C156.06 47.7262 155.448 47.5062 154.992 47.0662C154.536 46.6262 154.308 46.0382 154.308 45.3022V41.5102C154.308 40.7742 154.536 40.1902 154.992 39.7582C155.448 39.3182 156.06 39.0982 156.828 39.0982C157.604 39.0982 158.224 39.3182 158.688 39.7582C159.152 40.1982 159.384 40.7822 159.384 41.5102V45.3022C159.384 46.0382 159.152 46.6262 158.688 47.0662C158.224 47.5062 157.604 47.7262 156.828 47.7262ZM156.828 46.9822C157.34 46.9822 157.752 46.8342 158.064 46.5382C158.376 46.2422 158.532 45.8462 158.532 45.3502V41.4742C158.532 40.9862 158.376 40.5942 158.064 40.2982C157.76 40.0022 157.348 39.8542 156.828 39.8542C156.324 39.8542 155.92 40.0022 155.616 40.2982C155.312 40.5942 155.16 40.9862 155.16 41.4742V45.3502C155.16 45.8462 155.312 46.2422 155.616 46.5382C155.92 46.8342 156.324 46.9822 156.828 46.9822ZM162.061 39.2422C162.109 39.2182 162.161 39.2062 162.217 39.2062H162.865C162.945 39.2062 162.985 39.2462 162.985 39.3262V47.4862C162.985 47.5662 162.945 47.6062 162.865 47.6062H162.253C162.173 47.6062 162.133 47.5662 162.133 47.4862V40.1782C162.133 40.1622 162.125 40.1502 162.109 40.1422C162.101 40.1342 162.089 40.1342 162.073 40.1422L160.801 40.6582L160.753 40.6702C160.705 40.6702 160.673 40.6382 160.657 40.5742L160.597 40.1182V40.0942C160.597 40.0542 160.625 40.0142 160.681 39.9742L162.061 39.2422ZM165.909 47.6062C165.869 47.6062 165.837 47.5942 165.813 47.5702C165.797 47.5382 165.797 47.5022 165.813 47.4622L168.585 40.0102C168.593 39.9942 168.593 39.9822 168.585 39.9742C168.577 39.9582 168.565 39.9502 168.549 39.9502H165.309C165.277 39.9502 165.261 39.9662 165.261 39.9982V40.5502C165.261 40.6302 165.221 40.6702 165.141 40.6702H164.649C164.569 40.6702 164.529 40.6302 164.529 40.5502L164.541 39.3262C164.541 39.2462 164.581 39.2062 164.661 39.2062H169.389C169.469 39.2062 169.509 39.2462 169.509 39.3262V39.8782C169.509 39.9102 169.501 39.9582 169.485 40.0222L166.725 47.5102C166.701 47.5742 166.653 47.6062 166.581 47.6062H165.909ZM173.141 47.7262C172.373 47.7262 171.761 47.5062 171.305 47.0662C170.849 46.6262 170.621 46.0382 170.621 45.3022V41.5102C170.621 40.7742 170.849 40.1902 171.305 39.7582C171.761 39.3182 172.373 39.0982 173.141 39.0982C173.917 39.0982 174.537 39.3182 175.001 39.7582C175.465 40.1982 175.697 40.7822 175.697 41.5102V45.3022C175.697 46.0382 175.465 46.6262 175.001 47.0662C174.537 47.5062 173.917 47.7262 173.141 47.7262ZM173.141 46.9822C173.653 46.9822 174.065 46.8342 174.377 46.5382C174.689 46.2422 174.845 45.8462 174.845 45.3502V41.4742C174.845 40.9862 174.689 40.5942 174.377 40.2982C174.073 40.0022 173.661 39.8542 173.141 39.8542C172.637 39.8542 172.233 40.0022 171.929 40.2982C171.625 40.5942 171.473 40.9862 171.473 41.4742V45.3502C171.473 45.8462 171.625 46.2422 171.929 46.5382C172.233 46.8342 172.637 46.9822 173.141 46.9822ZM181.714 43.6342C181.874 44.0262 181.954 44.4942 181.954 45.0382C181.954 45.4782 181.894 45.8662 181.774 46.2022C181.614 46.6822 181.342 47.0542 180.958 47.3182C180.582 47.5742 180.114 47.7022 179.554 47.7022C178.994 47.7022 178.514 47.5582 178.114 47.2702C177.714 46.9742 177.438 46.5782 177.286 46.0822C177.214 45.8582 177.17 45.5542 177.154 45.1702C177.154 45.0902 177.194 45.0502 177.274 45.0502H177.886C177.966 45.0502 178.006 45.0902 178.006 45.1702C178.022 45.4022 178.05 45.6182 178.09 45.8182C178.178 46.1702 178.346 46.4502 178.594 46.6582C178.85 46.8582 179.166 46.9582 179.542 46.9582C180.262 46.9582 180.73 46.6382 180.946 45.9982C181.042 45.7342 181.09 45.4062 181.09 45.0142C181.09 44.5342 181.026 44.1422 180.898 43.8382C180.642 43.2622 180.19 42.9742 179.542 42.9742C179.422 42.9742 179.274 43.0182 179.098 43.1062C179.066 43.1222 179.042 43.1302 179.026 43.1302C178.994 43.1302 178.966 43.1102 178.942 43.0702L178.63 42.6502C178.59 42.5862 178.594 42.5302 178.642 42.4822L180.754 40.0102C180.778 39.9702 180.77 39.9502 180.73 39.9502H177.346C177.266 39.9502 177.226 39.9102 177.226 39.8302V39.3262C177.226 39.2462 177.266 39.2062 177.346 39.2062H181.786C181.866 39.2062 181.906 39.2462 181.906 39.3262V39.9142C181.906 39.9542 181.886 40.0022 181.846 40.0582L179.926 42.3622C179.91 42.3782 179.906 42.3942 179.914 42.4102C179.922 42.4182 179.938 42.4222 179.962 42.4222C180.818 42.4782 181.402 42.8822 181.714 43.6342ZM184.541 47.6062C184.501 47.6062 184.469 47.5942 184.445 47.5702C184.429 47.5382 184.429 47.5022 184.445 47.4622L187.217 40.0102C187.225 39.9942 187.225 39.9822 187.217 39.9742C187.209 39.9582 187.197 39.9502 187.181 39.9502H183.941C183.909 39.9502 183.893 39.9662 183.893 39.9982V40.5502C183.893 40.6302 183.853 40.6702 183.773 40.6702H183.281C183.201 40.6702 183.161 40.6302 183.161 40.5502L183.173 39.3262C183.173 39.2462 183.213 39.2062 183.293 39.2062H188.021C188.101 39.2062 188.141 39.2462 188.141 39.3262V39.8782C188.141 39.9102 188.133 39.9582 188.117 40.0222L185.357 47.5102C185.333 47.5742 185.285 47.6062 185.213 47.6062H184.541ZM191.773 47.7262C191.005 47.7262 190.393 47.5062 189.937 47.0662C189.481 46.6262 189.253 46.0382 189.253 45.3022V41.5102C189.253 40.7742 189.481 40.1902 189.937 39.7582C190.393 39.3182 191.005 39.0982 191.773 39.0982C192.549 39.0982 193.169 39.3182 193.633 39.7582C194.097 40.1982 194.329 40.7822 194.329 41.5102V45.3022C194.329 46.0382 194.097 46.6262 193.633 47.0662C193.169 47.5062 192.549 47.7262 191.773 47.7262ZM191.773 46.9822C192.285 46.9822 192.697 46.8342 193.009 46.5382C193.321 46.2422 193.477 45.8462 193.477 45.3502V41.4742C193.477 40.9862 193.321 40.5942 193.009 40.2982C192.705 40.0022 192.293 39.8542 191.773 39.8542C191.269 39.8542 190.865 40.0022 190.561 40.2982C190.257 40.5942 190.105 40.9862 190.105 41.4742V45.3502C190.105 45.8462 190.257 46.2422 190.561 46.5382C190.865 46.8342 191.269 46.9822 191.773 46.9822ZM40.0373 55.6362C40.0773 55.6162 40.1206 55.6062 40.1673 55.6062H40.7073C40.774 55.6062 40.8073 55.6395 40.8073 55.7062V62.5062C40.8073 62.5729 40.774 62.6062 40.7073 62.6062H40.1973C40.1306 62.6062 40.0973 62.5729 40.0973 62.5062V56.4162C40.0973 56.4029 40.0906 56.3929 40.0773 56.3862C40.0706 56.3795 40.0606 56.3795 40.0473 56.3862L38.9873 56.8162L38.9473 56.8262C38.9073 56.8262 38.8806 56.7995 38.8673 56.7462L38.8173 56.3662V56.3462C38.8173 56.3129 38.8406 56.2795 38.8873 56.2462L40.0373 55.6362ZM43.5627 55.6362C43.6027 55.6162 43.646 55.6062 43.6927 55.6062H44.2327C44.2994 55.6062 44.3327 55.6395 44.3327 55.7062V62.5062C44.3327 62.5729 44.2994 62.6062 44.2327 62.6062H43.7227C43.656 62.6062 43.6227 62.5729 43.6227 62.5062V56.4162C43.6227 56.4029 43.616 56.3929 43.6027 56.3862C43.596 56.3795 43.586 56.3795 43.5727 56.3862L42.5127 56.8162L42.4727 56.8262C42.4327 56.8262 42.406 56.7995 42.3927 56.7462L42.3427 56.3662V56.3462C42.3427 56.3129 42.366 56.2795 42.4127 56.2462L43.5627 55.6362ZM46.7688 62.6062C46.7355 62.6062 46.7088 62.5962 46.6888 62.5762C46.6755 62.5495 46.6755 62.5195 46.6888 62.4862L48.9988 56.2762C49.0055 56.2629 49.0055 56.2529 48.9988 56.2462C48.9921 56.2329 48.9821 56.2262 48.9688 56.2262H46.2688C46.2421 56.2262 46.2288 56.2395 46.2288 56.2662V56.7262C46.2288 56.7929 46.1955 56.8262 46.1288 56.8262H45.7188C45.6521 56.8262 45.6188 56.7929 45.6188 56.7262L45.6288 55.7062C45.6288 55.6395 45.6621 55.6062 45.7288 55.6062H49.6688C49.7355 55.6062 49.7688 55.6395 49.7688 55.7062V56.1662C49.7688 56.1929 49.7621 56.2329 49.7488 56.2862L47.4488 62.5262C47.4288 62.5795 47.3888 62.6062 47.3288 62.6062H46.7688ZM50.2961 63.3962C50.2628 63.3962 50.2361 63.3862 50.2161 63.3662C50.2028 63.3462 50.1995 63.3195 50.2061 63.2862L50.6461 61.1462C50.6595 61.0862 50.6961 61.0562 50.7561 61.0562H51.1961C51.2295 61.0562 51.2528 61.0662 51.2661 61.0862C51.2861 61.1062 51.2928 61.1329 51.2861 61.1662L50.7261 63.3062C50.7128 63.3662 50.6761 63.3962 50.6161 63.3962H50.2961ZM56.7229 59.5462C56.7829 59.8395 56.8129 60.1395 56.8129 60.4462C56.8129 60.7729 56.7829 61.0529 56.7229 61.2862C56.6095 61.7129 56.3829 62.0529 56.0429 62.3062C55.7029 62.5529 55.2929 62.6762 54.8129 62.6762C54.3395 62.6762 53.9362 62.5562 53.6029 62.3162C53.2695 62.0762 53.0429 61.7562 52.9229 61.3562C52.8762 61.2095 52.8462 61.0629 52.8329 60.9162V60.8962C52.8329 60.8429 52.8629 60.8162 52.9229 60.8162H53.4529C53.5195 60.8162 53.5562 60.8495 53.5629 60.9162C53.5629 60.9562 53.5762 61.0229 53.6029 61.1162C53.6695 61.4029 53.8062 61.6329 54.0129 61.8062C54.2262 61.9729 54.4895 62.0562 54.8029 62.0562C55.1229 62.0562 55.3895 61.9662 55.6029 61.7862C55.8229 61.6062 55.9662 61.3595 56.0329 61.0462C56.0729 60.8929 56.0929 60.6929 56.0929 60.4462C56.0929 60.2195 56.0762 60.0029 56.0429 59.7962C55.9962 59.4895 55.8629 59.2562 55.6429 59.0962C55.4229 58.9362 55.1495 58.8562 54.8229 58.8562C54.5295 58.8562 54.2662 58.9229 54.0329 59.0562C53.7995 59.1895 53.6495 59.3662 53.5829 59.5862C53.5629 59.6462 53.5262 59.6762 53.4729 59.6762H52.9329C52.8662 59.6762 52.8329 59.6429 52.8329 59.5762V55.7062C52.8329 55.6395 52.8662 55.6062 52.9329 55.6062H56.4329C56.4995 55.6062 56.5329 55.6395 56.5329 55.7062V56.1262C56.5329 56.1929 56.4995 56.2262 56.4329 56.2262H53.5829C53.5562 56.2262 53.5429 56.2395 53.5429 56.2662L53.5329 58.6862C53.5329 58.6995 53.5362 58.7095 53.5429 58.7162C53.5562 58.7229 53.5695 58.7195 53.5829 58.7062C53.7495 58.5529 53.9462 58.4362 54.1729 58.3562C54.3995 58.2695 54.6395 58.2262 54.8929 58.2262C55.3662 58.2262 55.7662 58.3429 56.0929 58.5762C56.4195 58.8029 56.6295 59.1262 56.7229 59.5462ZM62.1096 60.0362C62.1762 60.0362 62.2096 60.0695 62.2096 60.1362V60.5762C62.2096 60.6429 62.1762 60.6762 62.1096 60.6762H61.6796C61.6529 60.6762 61.6396 60.6895 61.6396 60.7162V62.5062C61.6396 62.5729 61.6062 62.6062 61.5396 62.6062H61.0296C60.9629 62.6062 60.9296 62.5729 60.9296 62.5062V60.7162C60.9296 60.6895 60.9162 60.6762 60.8896 60.6762H57.8996C57.8329 60.6762 57.7996 60.6429 57.7996 60.5762V60.2062C57.7996 60.1729 57.8096 60.1329 57.8296 60.0862L59.8796 55.6762C59.8996 55.6295 59.9362 55.6062 59.9896 55.6062H60.5196C60.5529 55.6062 60.5762 55.6195 60.5896 55.6462C60.6096 55.6662 60.6129 55.6929 60.5996 55.7262L58.6096 59.9862C58.6029 59.9995 58.6029 60.0129 58.6096 60.0262C58.6162 60.0329 58.6262 60.0362 58.6396 60.0362H60.8896C60.9162 60.0362 60.9296 60.0229 60.9296 59.9962V58.3862C60.9296 58.3195 60.9629 58.2862 61.0296 58.2862H61.5396C61.6062 58.2862 61.6396 58.3195 61.6396 58.3862V59.9962C61.6396 60.0229 61.6529 60.0362 61.6796 60.0362H62.1096ZM64.3374 61.9362C64.3174 61.9695 64.324 61.9862 64.3574 61.9862H67.4974C67.564 61.9862 67.5974 62.0195 67.5974 62.0862V62.5062C67.5974 62.5729 67.564 62.6062 67.4974 62.6062H63.5074C63.4407 62.6062 63.4074 62.5729 63.4074 62.5062V62.0862C63.4074 62.0395 63.424 61.9995 63.4574 61.9662C63.684 61.6995 64.194 61.0729 64.9874 60.0862L65.7274 59.1662C66.354 58.3729 66.6674 57.7562 66.6674 57.3162C66.6674 56.9629 66.5474 56.6795 66.3074 56.4662C66.0674 56.2529 65.754 56.1462 65.3674 56.1462C64.9874 56.1462 64.6807 56.2562 64.4474 56.4762C64.214 56.6895 64.1007 56.9729 64.1074 57.3262V57.6362C64.1074 57.7029 64.074 57.7362 64.0074 57.7362H63.4874C63.4207 57.7362 63.3874 57.7029 63.3874 57.6362V57.2362C63.4007 56.7229 63.5907 56.3095 63.9574 55.9962C64.3307 55.6829 64.8007 55.5262 65.3674 55.5262C65.7674 55.5262 66.1207 55.6029 66.4274 55.7562C66.734 55.9095 66.9707 56.1229 67.1374 56.3962C67.304 56.6629 67.3874 56.9662 67.3874 57.3062C67.3874 57.8729 67.074 58.5562 66.4474 59.3562C66.1207 59.7762 65.4907 60.5495 64.5574 61.6762L64.3374 61.9362ZM68.9387 63.3962C68.9054 63.3962 68.8787 63.3862 68.8587 63.3662C68.8454 63.3462 68.842 63.3195 68.8487 63.2862L69.2887 61.1462C69.302 61.0862 69.3387 61.0562 69.3987 61.0562H69.8387C69.872 61.0562 69.8954 61.0662 69.9087 61.0862C69.9287 61.1062 69.9354 61.1329 69.9287 61.1662L69.3687 63.3062C69.3554 63.3662 69.3187 63.3962 69.2587 63.3962H68.9387ZM75.6154 60.0362C75.6821 60.0362 75.7154 60.0695 75.7154 60.1362V60.5762C75.7154 60.6429 75.6821 60.6762 75.6154 60.6762H75.1854C75.1588 60.6762 75.1454 60.6895 75.1454 60.7162V62.5062C75.1454 62.5729 75.1121 62.6062 75.0454 62.6062H74.5354C74.4688 62.6062 74.4354 62.5729 74.4354 62.5062V60.7162C74.4354 60.6895 74.4221 60.6762 74.3954 60.6762H71.4054C71.3388 60.6762 71.3054 60.6429 71.3054 60.5762V60.2062C71.3054 60.1729 71.3154 60.1329 71.3354 60.0862L73.3854 55.6762C73.4054 55.6295 73.4421 55.6062 73.4954 55.6062H74.0254C74.0588 55.6062 74.0821 55.6195 74.0954 55.6462C74.1154 55.6662 74.1188 55.6929 74.1054 55.7262L72.1154 59.9862C72.1088 59.9995 72.1088 60.0129 72.1154 60.0262C72.1221 60.0329 72.1321 60.0362 72.1454 60.0362H74.3954C74.4221 60.0362 74.4354 60.0229 74.4354 59.9962V58.3862C74.4354 58.3195 74.4688 58.2862 74.5354 58.2862H75.0454C75.1121 58.2862 75.1454 58.3195 75.1454 58.3862V59.9962C75.1454 60.0229 75.1588 60.0362 75.1854 60.0362H75.6154ZM81.1232 60.0362C81.1899 60.0362 81.2232 60.0695 81.2232 60.1362V60.5762C81.2232 60.6429 81.1899 60.6762 81.1232 60.6762H80.6932C80.6666 60.6762 80.6532 60.6895 80.6532 60.7162V62.5062C80.6532 62.5729 80.6199 62.6062 80.5532 62.6062H80.0432C79.9766 62.6062 79.9432 62.5729 79.9432 62.5062V60.7162C79.9432 60.6895 79.9299 60.6762 79.9032 60.6762H76.9132C76.8466 60.6762 76.8132 60.6429 76.8132 60.5762V60.2062C76.8132 60.1729 76.8232 60.1329 76.8432 60.0862L78.8932 55.6762C78.9132 55.6295 78.9499 55.6062 79.0032 55.6062H79.5332C79.5666 55.6062 79.5899 55.6195 79.6032 55.6462C79.6232 55.6662 79.6266 55.6929 79.6132 55.7262L77.6232 59.9862C77.6166 59.9995 77.6166 60.0129 77.6232 60.0262C77.6299 60.0329 77.6399 60.0362 77.6532 60.0362H79.9032C79.9299 60.0362 79.9432 60.0229 79.9432 59.9962V58.3862C79.9432 58.3195 79.9766 58.2862 80.0432 58.2862H80.5532C80.6199 58.2862 80.6532 58.3195 80.6532 58.3862V59.9962C80.6532 60.0229 80.6666 60.0362 80.6932 60.0362H81.1232ZM86.3811 59.5462C86.4411 59.8395 86.4711 60.1395 86.4711 60.4462C86.4711 60.7729 86.4411 61.0529 86.3811 61.2862C86.2677 61.7129 86.0411 62.0529 85.7011 62.3062C85.3611 62.5529 84.9511 62.6762 84.4711 62.6762C83.9977 62.6762 83.5944 62.5562 83.2611 62.3162C82.9277 62.0762 82.7011 61.7562 82.5811 61.3562C82.5344 61.2095 82.5044 61.0629 82.4911 60.9162V60.8962C82.4911 60.8429 82.5211 60.8162 82.5811 60.8162H83.1111C83.1777 60.8162 83.2144 60.8495 83.2211 60.9162C83.2211 60.9562 83.2344 61.0229 83.2611 61.1162C83.3277 61.4029 83.4644 61.6329 83.6711 61.8062C83.8844 61.9729 84.1477 62.0562 84.4611 62.0562C84.7811 62.0562 85.0477 61.9662 85.2611 61.7862C85.4811 61.6062 85.6244 61.3595 85.6911 61.0462C85.7311 60.8929 85.7511 60.6929 85.7511 60.4462C85.7511 60.2195 85.7344 60.0029 85.7011 59.7962C85.6544 59.4895 85.5211 59.2562 85.3011 59.0962C85.0811 58.9362 84.8077 58.8562 84.4811 58.8562C84.1877 58.8562 83.9244 58.9229 83.6911 59.0562C83.4577 59.1895 83.3077 59.3662 83.2411 59.5862C83.2211 59.6462 83.1844 59.6762 83.1311 59.6762H82.5911C82.5244 59.6762 82.4911 59.6429 82.4911 59.5762V55.7062C82.4911 55.6395 82.5244 55.6062 82.5911 55.6062H86.0911C86.1577 55.6062 86.1911 55.6395 86.1911 55.7062V56.1262C86.1911 56.1929 86.1577 56.2262 86.0911 56.2262H83.2411C83.2144 56.2262 83.2011 56.2395 83.2011 56.2662L83.1911 58.6862C83.1911 58.6995 83.1944 58.7095 83.2011 58.7162C83.2144 58.7229 83.2277 58.7195 83.2411 58.7062C83.4077 58.5529 83.6044 58.4362 83.8311 58.3562C84.0577 58.2695 84.2977 58.2262 84.5511 58.2262C85.0244 58.2262 85.4244 58.3429 85.7511 58.5762C86.0777 58.8029 86.2877 59.1262 86.3811 59.5462ZM118.279 55.6362C118.319 55.6162 118.363 55.6062 118.409 55.6062H118.949C119.016 55.6062 119.049 55.6395 119.049 55.7062V62.5062C119.049 62.5729 119.016 62.6062 118.949 62.6062H118.439C118.373 62.6062 118.339 62.5729 118.339 62.5062V56.4162C118.339 56.4029 118.333 56.3929 118.319 56.3862C118.313 56.3795 118.303 56.3795 118.289 56.3862L117.229 56.8162L117.189 56.8262C117.149 56.8262 117.123 56.7995 117.109 56.7462L117.059 56.3662V56.3462C117.059 56.3129 117.083 56.2795 117.129 56.2462L118.279 55.6362ZM121.805 55.6362C121.845 55.6162 121.888 55.6062 121.935 55.6062H122.475C122.542 55.6062 122.575 55.6395 122.575 55.7062V62.5062C122.575 62.5729 122.542 62.6062 122.475 62.6062H121.965C121.898 62.6062 121.865 62.5729 121.865 62.5062V56.4162C121.865 56.4029 121.858 56.3929 121.845 56.3862C121.838 56.3795 121.828 56.3795 121.815 56.3862L120.755 56.8162L120.715 56.8262C120.675 56.8262 120.648 56.7995 120.635 56.7462L120.585 56.3662V56.3462C120.585 56.3129 120.608 56.2795 120.655 56.2462L121.805 55.6362ZM125.011 62.6062C124.978 62.6062 124.951 62.5962 124.931 62.5762C124.918 62.5495 124.918 62.5195 124.931 62.4862L127.241 56.2762C127.248 56.2629 127.248 56.2529 127.241 56.2462C127.234 56.2329 127.224 56.2262 127.211 56.2262H124.511C124.484 56.2262 124.471 56.2395 124.471 56.2662V56.7262C124.471 56.7929 124.438 56.8262 124.371 56.8262H123.961C123.894 56.8262 123.861 56.7929 123.861 56.7262L123.871 55.7062C123.871 55.6395 123.904 55.6062 123.971 55.6062H127.911C127.978 55.6062 128.011 55.6395 128.011 55.7062V56.1662C128.011 56.1929 128.004 56.2329 127.991 56.2862L125.691 62.5262C125.671 62.5795 125.631 62.6062 125.571 62.6062H125.011ZM128.538 63.3962C128.505 63.3962 128.478 63.3862 128.458 63.3662C128.445 63.3462 128.442 63.3195 128.448 63.2862L128.888 61.1462C128.902 61.0862 128.938 61.0562 128.998 61.0562H129.438C129.472 61.0562 129.495 61.0662 129.508 61.0862C129.528 61.1062 129.535 61.1329 129.528 61.1662L128.968 63.3062C128.955 63.3662 128.918 63.3962 128.858 63.3962H128.538ZM134.965 59.5462C135.025 59.8395 135.055 60.1395 135.055 60.4462C135.055 60.7729 135.025 61.0529 134.965 61.2862C134.852 61.7129 134.625 62.0529 134.285 62.3062C133.945 62.5529 133.535 62.6762 133.055 62.6762C132.582 62.6762 132.178 62.5562 131.845 62.3162C131.512 62.0762 131.285 61.7562 131.165 61.3562C131.118 61.2095 131.088 61.0629 131.075 60.9162V60.8962C131.075 60.8429 131.105 60.8162 131.165 60.8162H131.695C131.762 60.8162 131.798 60.8495 131.805 60.9162C131.805 60.9562 131.818 61.0229 131.845 61.1162C131.912 61.4029 132.048 61.6329 132.255 61.8062C132.468 61.9729 132.732 62.0562 133.045 62.0562C133.365 62.0562 133.632 61.9662 133.845 61.7862C134.065 61.6062 134.208 61.3595 134.275 61.0462C134.315 60.8929 134.335 60.6929 134.335 60.4462C134.335 60.2195 134.318 60.0029 134.285 59.7962C134.238 59.4895 134.105 59.2562 133.885 59.0962C133.665 58.9362 133.392 58.8562 133.065 58.8562C132.772 58.8562 132.508 58.9229 132.275 59.0562C132.042 59.1895 131.892 59.3662 131.825 59.5862C131.805 59.6462 131.768 59.6762 131.715 59.6762H131.175C131.108 59.6762 131.075 59.6429 131.075 59.5762V55.7062C131.075 55.6395 131.108 55.6062 131.175 55.6062H134.675C134.742 55.6062 134.775 55.6395 134.775 55.7062V56.1262C134.775 56.1929 134.742 56.2262 134.675 56.2262H131.825C131.798 56.2262 131.785 56.2395 131.785 56.2662L131.775 58.6862C131.775 58.6995 131.778 58.7095 131.785 58.7162C131.798 58.7229 131.812 58.7195 131.825 58.7062C131.992 58.5529 132.188 58.4362 132.415 58.3562C132.642 58.2695 132.882 58.2262 133.135 58.2262C133.608 58.2262 134.008 58.3429 134.335 58.5762C134.662 58.8029 134.872 59.1262 134.965 59.5462ZM140.352 60.0362C140.418 60.0362 140.452 60.0695 140.452 60.1362V60.5762C140.452 60.6429 140.418 60.6762 140.352 60.6762H139.922C139.895 60.6762 139.882 60.6895 139.882 60.7162V62.5062C139.882 62.5729 139.848 62.6062 139.782 62.6062H139.272C139.205 62.6062 139.172 62.5729 139.172 62.5062V60.7162C139.172 60.6895 139.158 60.6762 139.132 60.6762H136.142C136.075 60.6762 136.042 60.6429 136.042 60.5762V60.2062C136.042 60.1729 136.052 60.1329 136.072 60.0862L138.122 55.6762C138.142 55.6295 138.178 55.6062 138.232 55.6062H138.762C138.795 55.6062 138.818 55.6195 138.832 55.6462C138.852 55.6662 138.855 55.6929 138.842 55.7262L136.852 59.9862C136.845 59.9995 136.845 60.0129 136.852 60.0262C136.858 60.0329 136.868 60.0362 136.882 60.0362H139.132C139.158 60.0362 139.172 60.0229 139.172 59.9962V58.3862C139.172 58.3195 139.205 58.2862 139.272 58.2862H139.782C139.848 58.2862 139.882 58.3195 139.882 58.3862V59.9962C139.882 60.0229 139.895 60.0362 139.922 60.0362H140.352ZM145.5 56.8362C145.58 57.1029 145.62 57.4162 145.62 57.7762V60.8962C145.62 61.4429 145.44 61.8795 145.08 62.2062C144.72 62.5262 144.25 62.6862 143.67 62.6862C143.11 62.6862 142.653 62.5295 142.3 62.2162C141.953 61.8962 141.78 61.4829 141.78 60.9762V60.8362C141.78 60.7695 141.813 60.7362 141.88 60.7362H142.39C142.456 60.7362 142.49 60.7695 142.49 60.8362V60.9162C142.49 61.2562 142.6 61.5329 142.82 61.7462C143.04 61.9595 143.323 62.0662 143.67 62.0662C144.03 62.0662 144.326 61.9562 144.56 61.7362C144.793 61.5095 144.91 61.2129 144.91 60.8462V59.3862C144.91 59.3729 144.903 59.3662 144.89 59.3662C144.876 59.3595 144.866 59.3629 144.86 59.3762C144.566 59.7695 144.126 59.9662 143.54 59.9662C143.12 59.9662 142.766 59.8729 142.48 59.6862C142.2 59.4995 141.986 59.2362 141.84 58.8962C141.7 58.6162 141.63 58.2362 141.63 57.7562C141.63 57.3495 141.68 57.0162 141.78 56.7562C141.92 56.3695 142.143 56.0695 142.45 55.8562C142.763 55.6429 143.146 55.5362 143.6 55.5362C144.08 55.5362 144.483 55.6529 144.81 55.8862C145.143 56.1129 145.373 56.4295 145.5 56.8362ZM143.63 59.3462C143.923 59.3462 144.17 59.2762 144.37 59.1362C144.576 58.9895 144.72 58.7895 144.8 58.5362C144.873 58.3429 144.91 58.0729 144.91 57.7262C144.91 57.4395 144.88 57.1962 144.82 56.9962C144.74 56.7429 144.596 56.5395 144.39 56.3862C144.183 56.2329 143.93 56.1562 143.63 56.1562C143.343 56.1562 143.096 56.2295 142.89 56.3762C142.683 56.5162 142.536 56.7229 142.45 56.9962C142.376 57.1829 142.34 57.4362 142.34 57.7562C142.34 58.0962 142.383 58.3629 142.47 58.5562C142.55 58.7962 142.69 58.9895 142.89 59.1362C143.09 59.2762 143.336 59.3462 143.63 59.3462ZM147.034 63.3962C147.001 63.3962 146.974 63.3862 146.954 63.3662C146.941 63.3462 146.938 63.3195 146.944 63.2862L147.384 61.1462C147.398 61.0862 147.434 61.0562 147.494 61.0562H147.934C147.968 61.0562 147.991 61.0662 148.004 61.0862C148.024 61.1062 148.031 61.1329 148.024 61.1662L147.464 63.3062C147.451 63.3662 147.414 63.3962 147.354 63.3962H147.034ZM153.461 59.5462C153.521 59.8395 153.551 60.1395 153.551 60.4462C153.551 60.7729 153.521 61.0529 153.461 61.2862C153.348 61.7129 153.121 62.0529 152.781 62.3062C152.441 62.5529 152.031 62.6762 151.551 62.6762C151.078 62.6762 150.674 62.5562 150.341 62.3162C150.008 62.0762 149.781 61.7562 149.661 61.3562C149.614 61.2095 149.584 61.0629 149.571 60.9162V60.8962C149.571 60.8429 149.601 60.8162 149.661 60.8162H150.191C150.258 60.8162 150.294 60.8495 150.301 60.9162C150.301 60.9562 150.314 61.0229 150.341 61.1162C150.408 61.4029 150.544 61.6329 150.751 61.8062C150.964 61.9729 151.228 62.0562 151.541 62.0562C151.861 62.0562 152.128 61.9662 152.341 61.7862C152.561 61.6062 152.704 61.3595 152.771 61.0462C152.811 60.8929 152.831 60.6929 152.831 60.4462C152.831 60.2195 152.814 60.0029 152.781 59.7962C152.734 59.4895 152.601 59.2562 152.381 59.0962C152.161 58.9362 151.888 58.8562 151.561 58.8562C151.268 58.8562 151.004 58.9229 150.771 59.0562C150.538 59.1895 150.388 59.3662 150.321 59.5862C150.301 59.6462 150.264 59.6762 150.211 59.6762H149.671C149.604 59.6762 149.571 59.6429 149.571 59.5762V55.7062C149.571 55.6395 149.604 55.6062 149.671 55.6062H153.171C153.238 55.6062 153.271 55.6395 153.271 55.7062V56.1262C153.271 56.1929 153.238 56.2262 153.171 56.2262H150.321C150.294 56.2262 150.281 56.2395 150.281 56.2662L150.271 58.6862C150.271 58.6995 150.274 58.7095 150.281 58.7162C150.294 58.7229 150.308 58.7195 150.321 58.7062C150.488 58.5529 150.684 58.4362 150.911 58.3562C151.138 58.2695 151.378 58.2262 151.631 58.2262C152.104 58.2262 152.504 58.3429 152.831 58.5762C153.158 58.8029 153.368 59.1262 153.461 59.5462ZM158.848 60.0362C158.915 60.0362 158.948 60.0695 158.948 60.1362V60.5762C158.948 60.6429 158.915 60.6762 158.848 60.6762H158.418C158.391 60.6762 158.378 60.6895 158.378 60.7162V62.5062C158.378 62.5729 158.345 62.6062 158.278 62.6062H157.768C157.701 62.6062 157.668 62.5729 157.668 62.5062V60.7162C157.668 60.6895 157.655 60.6762 157.628 60.6762H154.638C154.571 60.6762 154.538 60.6429 154.538 60.5762V60.2062C154.538 60.1729 154.548 60.1329 154.568 60.0862L156.618 55.6762C156.638 55.6295 156.675 55.6062 156.728 55.6062H157.258C157.291 55.6062 157.315 55.6195 157.328 55.6462C157.348 55.6662 157.351 55.6929 157.338 55.7262L155.348 59.9862C155.341 59.9995 155.341 60.0129 155.348 60.0262C155.355 60.0329 155.365 60.0362 155.378 60.0362H157.628C157.655 60.0362 157.668 60.0229 157.668 59.9962V58.3862C157.668 58.3195 157.701 58.2862 157.768 58.2862H158.278C158.345 58.2862 158.378 58.3195 158.378 58.3862V59.9962C158.378 60.0229 158.391 60.0362 158.418 60.0362H158.848ZM163.996 59.3162C164.136 59.6162 164.206 59.9962 164.206 60.4562C164.206 60.8695 164.152 61.2029 164.046 61.4562C163.906 61.8429 163.682 62.1429 163.376 62.3562C163.069 62.5695 162.686 62.6762 162.226 62.6762C161.746 62.6762 161.342 62.5629 161.016 62.3362C160.689 62.1095 160.459 61.7895 160.326 61.3762C160.246 61.1095 160.206 60.7962 160.206 60.4362V57.3162C160.206 56.7695 160.386 56.3362 160.746 56.0162C161.106 55.6895 161.576 55.5262 162.156 55.5262C162.722 55.5262 163.179 55.6829 163.526 55.9962C163.872 56.3095 164.046 56.7229 164.046 57.2362V57.3762C164.046 57.4429 164.012 57.4762 163.946 57.4762H163.436C163.369 57.4762 163.336 57.4429 163.336 57.3762V57.2962C163.336 56.9562 163.226 56.6795 163.006 56.4662C162.786 56.2529 162.502 56.1462 162.156 56.1462C161.796 56.1462 161.499 56.2595 161.266 56.4862C161.032 56.7062 160.916 56.9995 160.916 57.3662V58.8362C160.916 58.8495 160.922 58.8595 160.936 58.8662C160.949 58.8662 160.959 58.8595 160.966 58.8462C161.259 58.4462 161.702 58.2462 162.296 58.2462C162.716 58.2462 163.066 58.3395 163.346 58.5262C163.632 58.7129 163.849 58.9762 163.996 59.3162ZM163.376 61.2162C163.456 61.0095 163.496 60.7562 163.496 60.4562C163.496 60.1095 163.449 59.8429 163.356 59.6562C163.276 59.4095 163.136 59.2162 162.936 59.0762C162.736 58.9362 162.489 58.8662 162.196 58.8662C161.902 58.8662 161.656 58.9395 161.456 59.0862C161.256 59.2262 161.116 59.4229 161.036 59.6762C160.956 59.8829 160.916 60.1529 160.916 60.4862C160.916 60.7795 160.949 61.0229 161.016 61.2162C161.096 61.4695 161.236 61.6729 161.436 61.8262C161.642 61.9795 161.899 62.0562 162.206 62.0562C162.492 62.0562 162.739 61.9862 162.946 61.8462C163.152 61.6995 163.296 61.4895 163.376 61.2162Z" fill="black"/>
<path d="M20.552 20.1276C19.648 20.1276 18.932 19.9236 18.404 19.5156C17.884 19.1076 17.624 18.5636 17.624 17.8836V17.5116C17.624 17.4316 17.664 17.3916 17.744 17.3916H18.332C18.412 17.3916 18.452 17.4316 18.452 17.5116V17.8356C18.452 18.2996 18.644 18.6756 19.028 18.9636C19.412 19.2436 19.944 19.3836 20.624 19.3836C21.24 19.3836 21.708 19.2556 22.028 18.9996C22.348 18.7356 22.508 18.3876 22.508 17.9556C22.508 17.6756 22.432 17.4356 22.28 17.2356C22.136 17.0356 21.908 16.8476 21.596 16.6716C21.292 16.4956 20.86 16.2916 20.3 16.0596C19.7 15.8196 19.232 15.6116 18.896 15.4356C18.568 15.2516 18.3 15.0196 18.092 14.7396C17.892 14.4516 17.792 14.0916 17.792 13.6596C17.792 12.9876 18.024 12.4676 18.488 12.0996C18.96 11.7236 19.604 11.5356 20.42 11.5356C21.308 11.5356 22.008 11.7436 22.52 12.1596C23.032 12.5756 23.288 13.1276 23.288 13.8156V14.0796C23.288 14.1596 23.248 14.1996 23.168 14.1996H22.568C22.488 14.1996 22.448 14.1596 22.448 14.0796V13.8636C22.448 13.3996 22.264 13.0196 21.896 12.7236C21.536 12.4276 21.032 12.2796 20.384 12.2796C19.816 12.2796 19.38 12.3956 19.076 12.6276C18.772 12.8596 18.62 13.1956 18.62 13.6356C18.62 13.9236 18.692 14.1636 18.836 14.3556C18.988 14.5396 19.2 14.7036 19.472 14.8476C19.752 14.9836 20.18 15.1636 20.756 15.3876C21.34 15.6276 21.808 15.8516 22.16 16.0596C22.52 16.2676 22.808 16.5236 23.024 16.8276C23.248 17.1236 23.36 17.4876 23.36 17.9196C23.36 18.5916 23.112 19.1276 22.616 19.5276C22.12 19.9276 21.432 20.1276 20.552 20.1276ZM29.6238 15.9756C29.6558 16.1996 29.6718 16.4796 29.6718 16.8156V17.1996C29.6718 17.2796 29.6318 17.3196 29.5518 17.3196H25.6758C25.6438 17.3196 25.6278 17.3356 25.6278 17.3676C25.6438 17.8076 25.6678 18.0916 25.6998 18.2196C25.7878 18.5796 25.9758 18.8636 26.2638 19.0716C26.5518 19.2796 26.9198 19.3836 27.3678 19.3836C27.7038 19.3836 27.9998 19.3076 28.2558 19.1556C28.5118 19.0036 28.7118 18.7876 28.8558 18.5076C28.9038 18.4356 28.9598 18.4196 29.0238 18.4596L29.4918 18.7356C29.5558 18.7756 29.5718 18.8316 29.5398 18.9036C29.3398 19.2876 29.0398 19.5916 28.6398 19.8156C28.2398 20.0316 27.7798 20.1396 27.2598 20.1396C26.6918 20.1316 26.2158 19.9956 25.8318 19.7316C25.4478 19.4676 25.1718 19.0996 25.0038 18.6276C24.8598 18.2436 24.7878 17.6916 24.7878 16.9716C24.7878 16.6356 24.7918 16.3636 24.7998 16.1556C24.8158 15.9396 24.8478 15.7476 24.8958 15.5796C25.0318 15.0596 25.3038 14.6436 25.7118 14.3316C26.1278 14.0196 26.6278 13.8636 27.2118 13.8636C27.9398 13.8636 28.4998 14.0476 28.8918 14.4156C29.2838 14.7836 29.5278 15.3036 29.6238 15.9756ZM27.2118 14.6076C26.8198 14.6076 26.4918 14.7116 26.2278 14.9196C25.9718 15.1196 25.8038 15.3916 25.7238 15.7356C25.6758 15.9036 25.6438 16.1756 25.6278 16.5516C25.6278 16.5836 25.6438 16.5996 25.6758 16.5996H28.7838C28.8158 16.5996 28.8318 16.5836 28.8318 16.5516C28.8158 16.1916 28.7918 15.9356 28.7598 15.7836C28.6718 15.4236 28.4918 15.1396 28.2198 14.9316C27.9558 14.7156 27.6198 14.6076 27.2118 14.6076ZM33.4077 13.8636C34.1277 13.8636 34.6837 14.0476 35.0757 14.4156C35.4677 14.7836 35.6637 15.2716 35.6637 15.8796V19.9116C35.6637 19.9916 35.6237 20.0316 35.5437 20.0316H34.9317C34.8517 20.0316 34.8117 19.9916 34.8117 19.9116V19.4196C34.8117 19.4036 34.8037 19.3916 34.7877 19.3836C34.7797 19.3756 34.7677 19.3796 34.7517 19.3956C34.5517 19.6356 34.2917 19.8196 33.9717 19.9476C33.6517 20.0676 33.2957 20.1276 32.9037 20.1276C32.3357 20.1276 31.8597 19.9836 31.4757 19.6956C31.0917 19.4076 30.8997 18.9676 30.8997 18.3756C30.8997 17.7756 31.1157 17.3036 31.5477 16.9596C31.9877 16.6076 32.5957 16.4316 33.3717 16.4316H34.7637C34.7957 16.4316 34.8117 16.4156 34.8117 16.3836V15.9276C34.8117 15.5196 34.6957 15.1996 34.4637 14.9676C34.2397 14.7276 33.8877 14.6076 33.4077 14.6076C33.0237 14.6076 32.7117 14.6836 32.4717 14.8356C32.2317 14.9796 32.0837 15.1836 32.0277 15.4476C32.0037 15.5276 31.9557 15.5636 31.8837 15.5556L31.2357 15.4716C31.1477 15.4556 31.1117 15.4236 31.1277 15.3756C31.1917 14.9276 31.4317 14.5636 31.8477 14.2836C32.2637 14.0036 32.7837 13.8636 33.4077 13.8636ZM33.0717 19.3956C33.5437 19.3956 33.9517 19.2796 34.2957 19.0476C34.6397 18.8076 34.8117 18.4876 34.8117 18.0876V17.1516C34.8117 17.1196 34.7957 17.1036 34.7637 17.1036H33.5037C32.9757 17.1036 32.5517 17.2116 32.2317 17.4276C31.9117 17.6436 31.7517 17.9436 31.7517 18.3276C31.7517 18.6796 31.8717 18.9476 32.1117 19.1316C32.3597 19.3076 32.6797 19.3956 33.0717 19.3956ZM39.8846 13.8996C40.1486 13.8996 40.3766 13.9516 40.5686 14.0556C40.6326 14.0876 40.6566 14.1396 40.6406 14.2116L40.5086 14.7996C40.4846 14.8796 40.4326 14.9036 40.3526 14.8716C40.2166 14.8156 40.0606 14.7876 39.8846 14.7876L39.7286 14.7996C39.3126 14.8156 38.9686 14.9716 38.6966 15.2676C38.4246 15.5556 38.2886 15.9236 38.2886 16.3716V19.9116C38.2886 19.9916 38.2486 20.0316 38.1686 20.0316H37.5566C37.4766 20.0316 37.4366 19.9916 37.4366 19.9116V14.0796C37.4366 13.9996 37.4766 13.9596 37.5566 13.9596H38.1686C38.2486 13.9596 38.2886 13.9996 38.2886 14.0796V14.8116C38.2886 14.8356 38.2926 14.8516 38.3006 14.8596C38.3166 14.8596 38.3286 14.8516 38.3366 14.8356C38.5046 14.5396 38.7166 14.3116 38.9726 14.1516C39.2366 13.9836 39.5406 13.8996 39.8846 13.8996ZM44.0411 20.1276C43.4651 20.1276 42.9691 19.9796 42.5531 19.6836C42.1451 19.3796 41.8651 18.9716 41.7131 18.4596C41.6091 18.1076 41.5571 17.6116 41.5571 16.9716C41.5571 16.3956 41.6091 15.9076 41.7131 15.5076C41.8571 15.0116 42.1371 14.6156 42.5531 14.3196C42.9691 14.0156 43.4651 13.8636 44.0411 13.8636C44.6251 13.8636 45.1291 14.0116 45.5531 14.3076C45.9851 14.6036 46.2651 14.9716 46.3931 15.4116C46.4331 15.5556 46.4571 15.6756 46.4651 15.7716V15.7956C46.4651 15.8516 46.4291 15.8876 46.3571 15.9036L45.7571 15.9876H45.7331C45.6771 15.9876 45.6411 15.9516 45.6251 15.8796L45.5891 15.6996C45.5171 15.3956 45.3411 15.1396 45.0611 14.9316C44.7811 14.7156 44.4411 14.6076 44.0411 14.6076C43.6411 14.6076 43.3051 14.7156 43.0331 14.9316C42.7691 15.1396 42.5971 15.4196 42.5171 15.7716C42.4451 16.0756 42.4091 16.4796 42.4091 16.9836C42.4091 17.5116 42.4451 17.9196 42.5171 18.2076C42.5971 18.5676 42.7691 18.8556 43.0331 19.0716C43.3051 19.2796 43.6411 19.3836 44.0411 19.3836C44.4331 19.3836 44.7691 19.2836 45.0491 19.0836C45.3371 18.8756 45.5171 18.6116 45.5891 18.2916V18.2436L45.6011 18.1956C45.6091 18.1156 45.6571 18.0836 45.7451 18.0996L46.3331 18.1956C46.4131 18.2116 46.4491 18.2556 46.4411 18.3276L46.3931 18.5676C46.2731 19.0316 45.9971 19.4076 45.5651 19.6956C45.1331 19.9836 44.6251 20.1276 44.0411 20.1276ZM50.5034 13.8756C51.1434 13.8756 51.6514 14.0636 52.0274 14.4396C52.4114 14.8156 52.6034 15.3196 52.6034 15.9516V19.9116C52.6034 19.9916 52.5634 20.0316 52.4834 20.0316H51.8714C51.7914 20.0316 51.7514 19.9916 51.7514 19.9116V16.1196C51.7514 15.6796 51.6154 15.3196 51.3434 15.0396C51.0794 14.7596 50.7354 14.6196 50.3114 14.6196C49.8714 14.6196 49.5154 14.7556 49.2434 15.0276C48.9714 15.2996 48.8354 15.6556 48.8354 16.0956V19.9116C48.8354 19.9916 48.7954 20.0316 48.7154 20.0316H48.1034C48.0234 20.0316 47.9834 19.9916 47.9834 19.9116V11.7516C47.9834 11.6716 48.0234 11.6316 48.1034 11.6316H48.7154C48.7954 11.6316 48.8354 11.6716 48.8354 11.7516V14.5956C48.8354 14.6116 48.8394 14.6236 48.8474 14.6316C48.8634 14.6396 48.8754 14.6356 48.8834 14.6196C49.2354 14.1236 49.7754 13.8756 50.5034 13.8756ZM56.9745 20.0316C56.8945 20.0316 56.8545 19.9916 56.8545 19.9116V11.7516C56.8545 11.6716 56.8945 11.6316 56.9745 11.6316H57.5865C57.6665 11.6316 57.7065 11.6716 57.7065 11.7516V19.9116C57.7065 19.9916 57.6665 20.0316 57.5865 20.0316H56.9745ZM61.9362 20.1276C61.3602 20.1276 60.8642 19.9796 60.4482 19.6836C60.0322 19.3876 59.7442 18.9796 59.5842 18.4596C59.4722 18.0916 59.4162 17.5996 59.4162 16.9836C59.4162 16.3676 59.4722 15.8796 59.5842 15.5196C59.7362 15.0076 60.0202 14.6036 60.4362 14.3076C60.8522 14.0116 61.3562 13.8636 61.9482 13.8636C62.5162 13.8636 63.0042 14.0116 63.4122 14.3076C63.8282 14.6036 64.1122 15.0036 64.2642 15.5076C64.3762 15.8516 64.4322 16.3436 64.4322 16.9836C64.4322 17.6316 64.3762 18.1236 64.2642 18.4596C64.1122 18.9796 63.8282 19.3876 63.4122 19.6836C63.0042 19.9796 62.5122 20.1276 61.9362 20.1276ZM61.9362 19.3836C62.3202 19.3836 62.6482 19.2796 62.9202 19.0716C63.1922 18.8556 63.3762 18.5676 63.4722 18.2076C63.5442 17.9196 63.5802 17.5156 63.5802 16.9956C63.5802 16.4676 63.5482 16.0636 63.4842 15.7836C63.3882 15.4236 63.2002 15.1396 62.9202 14.9316C62.6482 14.7156 62.3162 14.6076 61.9242 14.6076C61.5322 14.6076 61.2002 14.7156 60.9282 14.9316C60.6562 15.1396 60.4722 15.4236 60.3762 15.7836C60.3122 16.0636 60.2802 16.4676 60.2802 16.9956C60.2802 17.5236 60.3122 17.9276 60.3762 18.2076C60.4642 18.5676 60.6442 18.8556 60.9162 19.0716C61.1962 19.2796 61.5362 19.3836 61.9362 19.3836ZM68.4512 20.1276C67.8752 20.1276 67.3792 19.9796 66.9632 19.6836C66.5552 19.3796 66.2752 18.9716 66.1232 18.4596C66.0192 18.1076 65.9672 17.6116 65.9672 16.9716C65.9672 16.3956 66.0192 15.9076 66.1232 15.5076C66.2672 15.0116 66.5472 14.6156 66.9632 14.3196C67.3792 14.0156 67.8752 13.8636 68.4512 13.8636C69.0352 13.8636 69.5392 14.0116 69.9632 14.3076C70.3952 14.6036 70.6752 14.9716 70.8032 15.4116C70.8432 15.5556 70.8672 15.6756 70.8752 15.7716V15.7956C70.8752 15.8516 70.8392 15.8876 70.7672 15.9036L70.1672 15.9876H70.1432C70.0872 15.9876 70.0512 15.9516 70.0352 15.8796L69.9992 15.6996C69.9272 15.3956 69.7512 15.1396 69.4712 14.9316C69.1912 14.7156 68.8512 14.6076 68.4512 14.6076C68.0512 14.6076 67.7152 14.7156 67.4432 14.9316C67.1792 15.1396 67.0072 15.4196 66.9272 15.7716C66.8552 16.0756 66.8192 16.4796 66.8192 16.9836C66.8192 17.5116 66.8552 17.9196 66.9272 18.2076C67.0072 18.5676 67.1792 18.8556 67.4432 19.0716C67.7152 19.2796 68.0512 19.3836 68.4512 19.3836C68.8432 19.3836 69.1792 19.2836 69.4592 19.0836C69.7472 18.8756 69.9272 18.6116 69.9992 18.2916V18.2436L70.0112 18.1956C70.0192 18.1156 70.0672 18.0836 70.1552 18.0996L70.7432 18.1956C70.8232 18.2116 70.8592 18.2556 70.8512 18.3276L70.8032 18.5676C70.6832 19.0316 70.4072 19.4076 69.9752 19.6956C69.5432 19.9836 69.0352 20.1276 68.4512 20.1276ZM74.4936 13.8636C75.2136 13.8636 75.7696 14.0476 76.1616 14.4156C76.5536 14.7836 76.7496 15.2716 76.7496 15.8796V19.9116C76.7496 19.9916 76.7096 20.0316 76.6296 20.0316H76.0176C75.9376 20.0316 75.8976 19.9916 75.8976 19.9116V19.4196C75.8976 19.4036 75.8896 19.3916 75.8736 19.3836C75.8656 19.3756 75.8536 19.3796 75.8376 19.3956C75.6376 19.6356 75.3776 19.8196 75.0576 19.9476C74.7376 20.0676 74.3816 20.1276 73.9896 20.1276C73.4216 20.1276 72.9456 19.9836 72.5616 19.6956C72.1776 19.4076 71.9856 18.9676 71.9856 18.3756C71.9856 17.7756 72.2016 17.3036 72.6336 16.9596C73.0736 16.6076 73.6816 16.4316 74.4576 16.4316H75.8496C75.8816 16.4316 75.8976 16.4156 75.8976 16.3836V15.9276C75.8976 15.5196 75.7816 15.1996 75.5496 14.9676C75.3256 14.7276 74.9736 14.6076 74.4936 14.6076C74.1096 14.6076 73.7976 14.6836 73.5576 14.8356C73.3176 14.9796 73.1696 15.1836 73.1136 15.4476C73.0896 15.5276 73.0416 15.5636 72.9696 15.5556L72.3216 15.4716C72.2336 15.4556 72.1976 15.4236 72.2136 15.3756C72.2776 14.9276 72.5176 14.5636 72.9336 14.2836C73.3496 14.0036 73.8696 13.8636 74.4936 13.8636ZM74.1576 19.3956C74.6296 19.3956 75.0376 19.2796 75.3816 19.0476C75.7256 18.8076 75.8976 18.4876 75.8976 18.0876V17.1516C75.8976 17.1196 75.8816 17.1036 75.8496 17.1036H74.5896C74.0616 17.1036 73.6376 17.2116 73.3176 17.4276C72.9976 17.6436 72.8376 17.9436 72.8376 18.3276C72.8376 18.6796 72.9576 18.9476 73.1976 19.1316C73.4456 19.3076 73.7656 19.3956 74.1576 19.3956ZM81.1996 14.5476C81.1996 14.6276 81.1596 14.6676 81.0796 14.6676H79.7236C79.6916 14.6676 79.6756 14.6836 79.6756 14.7156V18.2556C79.6756 18.6396 79.7596 18.9116 79.9276 19.0716C80.1036 19.2236 80.3756 19.2996 80.7436 19.2996H81.0436C81.1236 19.2996 81.1636 19.3396 81.1636 19.4196V19.9116C81.1636 19.9916 81.1236 20.0316 81.0436 20.0316C80.9476 20.0396 80.7996 20.0436 80.5996 20.0436C80.0236 20.0436 79.5876 19.9356 79.2916 19.7196C78.9956 19.5036 78.8476 19.1036 78.8476 18.5196V14.7156C78.8476 14.6836 78.8316 14.6676 78.7996 14.6676H78.0676C77.9876 14.6676 77.9476 14.6276 77.9476 14.5476V14.0796C77.9476 13.9996 77.9876 13.9596 78.0676 13.9596H78.7996C78.8316 13.9596 78.8476 13.9436 78.8476 13.9116V12.5196C78.8476 12.4396 78.8876 12.3996 78.9676 12.3996H79.5556C79.6356 12.3996 79.6756 12.4396 79.6756 12.5196V13.9116C79.6756 13.9436 79.6916 13.9596 79.7236 13.9596H81.0796C81.1596 13.9596 81.1996 13.9996 81.1996 14.0796V14.5476ZM83.4227 12.8556C83.2307 12.8556 83.0707 12.7916 82.9427 12.6636C82.8147 12.5356 82.7507 12.3756 82.7507 12.1836C82.7507 11.9836 82.8147 11.8236 82.9427 11.7036C83.0707 11.5756 83.2307 11.5116 83.4227 11.5116C83.6147 11.5116 83.7747 11.5756 83.9027 11.7036C84.0307 11.8236 84.0947 11.9836 84.0947 12.1836C84.0947 12.3756 84.0307 12.5356 83.9027 12.6636C83.7747 12.7916 83.6147 12.8556 83.4227 12.8556ZM83.0867 20.0196C83.0067 20.0196 82.9667 19.9796 82.9667 19.8996V14.0676C82.9667 13.9876 83.0067 13.9476 83.0867 13.9476H83.6987C83.7787 13.9476 83.8187 13.9876 83.8187 14.0676V19.8996C83.8187 19.9796 83.7787 20.0196 83.6987 20.0196H83.0867ZM88.2213 20.1276C87.6453 20.1276 87.1493 19.9796 86.7333 19.6836C86.3173 19.3876 86.0293 18.9796 85.8693 18.4596C85.7573 18.0916 85.7013 17.5996 85.7013 16.9836C85.7013 16.3676 85.7573 15.8796 85.8693 15.5196C86.0213 15.0076 86.3053 14.6036 86.7213 14.3076C87.1373 14.0116 87.6413 13.8636 88.2333 13.8636C88.8013 13.8636 89.2893 14.0116 89.6973 14.3076C90.1133 14.6036 90.3973 15.0036 90.5493 15.5076C90.6613 15.8516 90.7173 16.3436 90.7173 16.9836C90.7173 17.6316 90.6613 18.1236 90.5493 18.4596C90.3973 18.9796 90.1133 19.3876 89.6973 19.6836C89.2893 19.9796 88.7973 20.1276 88.2213 20.1276ZM88.2213 19.3836C88.6053 19.3836 88.9333 19.2796 89.2053 19.0716C89.4773 18.8556 89.6613 18.5676 89.7573 18.2076C89.8293 17.9196 89.8653 17.5156 89.8653 16.9956C89.8653 16.4676 89.8333 16.0636 89.7693 15.7836C89.6733 15.4236 89.4853 15.1396 89.2053 14.9316C88.9333 14.7156 88.6013 14.6076 88.2093 14.6076C87.8173 14.6076 87.4853 14.7156 87.2133 14.9316C86.9413 15.1396 86.7573 15.4236 86.6613 15.7836C86.5973 16.0636 86.5653 16.4676 86.5653 16.9956C86.5653 17.5236 86.5973 17.9276 86.6613 18.2076C86.7493 18.5676 86.9293 18.8556 87.2013 19.0716C87.4813 19.2796 87.8213 19.3836 88.2213 19.3836ZM94.9644 13.8756C95.6044 13.8756 96.1124 14.0636 96.4884 14.4396C96.8724 14.8156 97.0644 15.3196 97.0644 15.9516V19.9116C97.0644 19.9916 97.0244 20.0316 96.9444 20.0316H96.3324C96.2524 20.0316 96.2124 19.9916 96.2124 19.9116V16.1196C96.2124 15.6796 96.0764 15.3196 95.8044 15.0396C95.5404 14.7596 95.1964 14.6196 94.7724 14.6196C94.3324 14.6196 93.9764 14.7556 93.7044 15.0276C93.4324 15.2996 93.2964 15.6556 93.2964 16.0956V19.9116C93.2964 19.9916 93.2564 20.0316 93.1764 20.0316H92.5644C92.4844 20.0316 92.4444 19.9916 92.4444 19.9116V14.0796C92.4444 13.9996 92.4844 13.9596 92.5644 13.9596H93.1764C93.2564 13.9596 93.2964 13.9996 93.2964 14.0796V14.5956C93.2964 14.6116 93.3004 14.6236 93.3084 14.6316C93.3244 14.6396 93.3364 14.6356 93.3444 14.6196C93.6964 14.1236 94.2364 13.8756 94.9644 13.8756ZM99.9811 15.8316C99.7811 15.8316 99.6171 15.7676 99.4891 15.6396C99.3691 15.5116 99.3091 15.3516 99.3091 15.1596C99.3091 14.9596 99.3691 14.7996 99.4891 14.6796C99.6171 14.5516 99.7811 14.4876 99.9811 14.4876C100.173 14.4876 100.333 14.5516 100.461 14.6796C100.589 14.7996 100.653 14.9596 100.653 15.1596C100.653 15.3516 100.589 15.5116 100.461 15.6396C100.333 15.7676 100.173 15.8316 99.9811 15.8316ZM99.9811 19.8756C99.7811 19.8756 99.6171 19.8116 99.4891 19.6836C99.3691 19.5556 99.3091 19.3956 99.3091 19.2036C99.3091 19.0036 99.3691 18.8436 99.4891 18.7236C99.6171 18.5956 99.7811 18.5316 99.9811 18.5316C100.173 18.5316 100.333 18.5956 100.461 18.7236C100.589 18.8436 100.653 19.0036 100.653 19.2036C100.653 19.3956 100.589 19.5556 100.461 19.6836C100.333 19.8116 100.173 19.8756 99.9811 19.8756Z" fill="#7E7E7E"/>
<path d="M118.193 12.2556C118.193 12.3356 118.153 12.3756 118.073 12.3756H113.657C113.625 12.3756 113.609 12.3916 113.609 12.4236V15.3876C113.609 15.4196 113.625 15.4356 113.657 15.4356H116.753C116.833 15.4356 116.873 15.4756 116.873 15.5556V16.0596C116.873 16.1396 116.833 16.1796 116.753 16.1796H113.657C113.625 16.1796 113.609 16.1956 113.609 16.2276V19.2396C113.609 19.2716 113.625 19.2876 113.657 19.2876H118.073C118.153 19.2876 118.193 19.3276 118.193 19.4076V19.9116C118.193 19.9916 118.153 20.0316 118.073 20.0316H112.877C112.797 20.0316 112.757 19.9916 112.757 19.9116V11.7516C112.757 11.6716 112.797 11.6316 112.877 11.6316H118.073C118.153 11.6316 118.193 11.6716 118.193 11.7516V12.2556ZM125.471 11.7156C125.511 11.6596 125.559 11.6316 125.615 11.6316H126.239C126.319 11.6316 126.359 11.6716 126.359 11.7516V19.9116C126.359 19.9916 126.319 20.0316 126.239 20.0316H125.627C125.547 20.0316 125.507 19.9916 125.507 19.9116V13.2396C125.507 13.2156 125.499 13.1996 125.483 13.1916C125.467 13.1836 125.455 13.1916 125.447 13.2156L123.491 16.2156C123.451 16.2716 123.403 16.2996 123.347 16.2996H123.035C122.979 16.2996 122.931 16.2756 122.891 16.2276L120.935 13.2516C120.927 13.2276 120.915 13.2196 120.899 13.2276C120.883 13.2356 120.875 13.2516 120.875 13.2756V19.9116C120.875 19.9916 120.835 20.0316 120.755 20.0316H120.143C120.063 20.0316 120.023 19.9916 120.023 19.9116V11.7516C120.023 11.6716 120.063 11.6316 120.143 11.6316H120.767C120.831 11.6316 120.879 11.6556 120.911 11.7036L123.167 15.1236C123.175 15.1316 123.187 15.1356 123.203 15.1356C123.219 15.1356 123.231 15.1316 123.239 15.1236L125.471 11.7156ZM128.025 20.0316C127.977 20.0316 127.945 20.0196 127.929 19.9956C127.921 19.9636 127.929 19.9276 127.953 19.8876L130.473 15.8676C130.489 15.8436 130.489 15.8196 130.473 15.7956L127.953 11.7756C127.937 11.7436 127.929 11.7196 127.929 11.7036C127.929 11.6556 127.961 11.6316 128.025 11.6316H128.697C128.753 11.6316 128.801 11.6596 128.841 11.7156L130.977 15.1356C130.985 15.1436 130.997 15.1476 131.013 15.1476C131.029 15.1476 131.041 15.1436 131.049 15.1356L133.173 11.7156C133.213 11.6596 133.261 11.6316 133.317 11.6316H133.977C134.025 11.6316 134.053 11.6476 134.061 11.6796C134.077 11.7036 134.073 11.7356 134.049 11.7756L131.541 15.8076C131.533 15.8316 131.533 15.8556 131.541 15.8796L134.049 19.8876C134.065 19.9196 134.073 19.9436 134.073 19.9596C134.073 20.0076 134.041 20.0316 133.977 20.0316H133.317C133.261 20.0316 133.213 20.0036 133.173 19.9476L131.049 16.5396C131.041 16.5236 131.029 16.5156 131.013 16.5156C130.997 16.5156 130.985 16.5236 130.977 16.5396L128.841 19.9476C128.801 20.0036 128.753 20.0316 128.697 20.0316H128.025Z" fill="black"/>
</g>
<defs>
<clipPath id="clip0">
<rect width="250" height="79" fill="white"/>
</clipPath>
</defs>
</svg>
