<svg width="250" height="79" viewBox="0 0 250 79" fill="none" xmlns="http://www.w3.org/2000/svg">
<rect width="250" height="79" fill="white"/>
<rect width="250" height="79" rx="9" fill="#F2F3F4"/>
<path d="M16.716 26.972C16.716 27.276 16.876 27.524 17.196 27.716C17.524 27.908 18 28.004 18.624 28.004C18.96 28.004 19.264 27.968 19.536 27.896C19.808 27.832 20.04 27.744 20.232 27.632C20.424 27.52 20.568 27.392 20.664 27.248C20.768 27.104 20.82 26.956 20.82 26.804C20.82 26.524 20.708 26.336 20.484 26.24C20.268 26.144 19.936 26.096 19.488 26.096H18.348C18.18 26.096 18.02 26.088 17.868 26.072C17.724 26.064 17.588 26.04 17.46 26C17.18 26.152 16.984 26.308 16.872 26.468C16.768 26.636 16.716 26.804 16.716 26.972ZM15.864 27.068C15.864 26.836 15.944 26.608 16.104 26.384C16.272 26.16 16.512 25.956 16.824 25.772V25.724C16.664 25.636 16.524 25.516 16.404 25.364C16.284 25.212 16.224 25.012 16.224 24.764C16.224 24.58 16.284 24.392 16.404 24.2C16.524 24 16.696 23.824 16.92 23.672V23.624C16.72 23.472 16.548 23.272 16.404 23.024C16.268 22.768 16.2 22.464 16.2 22.112C16.2 21.792 16.26 21.504 16.38 21.248C16.508 20.992 16.676 20.776 16.884 20.6C17.092 20.416 17.332 20.276 17.604 20.18C17.884 20.076 18.18 20.024 18.492 20.024C18.812 20.024 19.1 20.072 19.356 20.168H21.768V20.924H20.208C20.344 21.068 20.468 21.244 20.58 21.452C20.692 21.66 20.748 21.892 20.748 22.148C20.748 22.46 20.688 22.74 20.568 22.988C20.456 23.236 20.296 23.448 20.088 23.624C19.888 23.792 19.648 23.924 19.368 24.02C19.096 24.108 18.804 24.152 18.492 24.152C18.34 24.152 18.176 24.136 18 24.104C17.832 24.064 17.668 24.008 17.508 23.936C17.204 24.128 17.052 24.352 17.052 24.608C17.052 24.84 17.156 25.012 17.364 25.124C17.58 25.228 17.88 25.28 18.264 25.28H19.572C20.324 25.28 20.88 25.384 21.24 25.592C21.608 25.8 21.792 26.152 21.792 26.648C21.792 26.92 21.716 27.18 21.564 27.428C21.412 27.676 21.196 27.892 20.916 28.076C20.636 28.26 20.296 28.408 19.896 28.52C19.496 28.632 19.048 28.688 18.552 28.688C17.696 28.688 17.032 28.548 16.56 28.268C16.096 27.988 15.864 27.588 15.864 27.068ZM18.492 23.492C18.868 23.492 19.184 23.368 19.44 23.12C19.704 22.872 19.836 22.536 19.836 22.112C19.836 21.912 19.8 21.728 19.728 21.56C19.656 21.392 19.56 21.248 19.44 21.128C19.32 21.008 19.176 20.916 19.008 20.852C18.848 20.78 18.676 20.744 18.492 20.744C18.308 20.744 18.132 20.78 17.964 20.852C17.804 20.916 17.664 21.008 17.544 21.128C17.424 21.248 17.328 21.392 17.256 21.56C17.184 21.728 17.148 21.912 17.148 22.112C17.148 22.536 17.28 22.872 17.544 23.12C17.808 23.368 18.124 23.492 18.492 23.492ZM23.0233 23.096C23.0233 22.616 23.1073 22.188 23.2753 21.812C23.4433 21.428 23.6633 21.104 23.9353 20.84C24.2153 20.576 24.5313 20.376 24.8833 20.24C25.2433 20.096 25.6113 20.024 25.9873 20.024C26.4033 20.024 26.7753 20.092 27.1033 20.228C27.4313 20.356 27.7073 20.54 27.9313 20.78C28.1633 21.02 28.3393 21.308 28.4593 21.644C28.5793 21.98 28.6393 22.352 28.6393 22.76C28.6393 22.864 28.6353 22.968 28.6273 23.072C28.6273 23.168 28.6193 23.252 28.6033 23.324H24.0433C24.0513 23.636 24.1113 23.916 24.2233 24.164C24.3433 24.412 24.4993 24.624 24.6913 24.8C24.8913 24.976 25.1233 25.112 25.3873 25.208C25.6593 25.304 25.9553 25.352 26.2753 25.352C26.6193 25.352 26.9313 25.304 27.2113 25.208C27.4993 25.112 27.7793 24.98 28.0513 24.812L28.3993 25.46C28.1113 25.644 27.7833 25.804 27.4153 25.94C27.0473 26.076 26.6273 26.144 26.1553 26.144C25.7233 26.144 25.3153 26.076 24.9313 25.94C24.5553 25.796 24.2233 25.596 23.9353 25.34C23.6553 25.076 23.4313 24.756 23.2633 24.38C23.1033 24.004 23.0233 23.576 23.0233 23.096ZM27.7273 22.616C27.7273 22.032 27.5753 21.584 27.2713 21.272C26.9673 20.96 26.5433 20.804 25.9993 20.804C25.7593 20.804 25.5273 20.844 25.3033 20.924C25.0873 21.004 24.8913 21.124 24.7153 21.284C24.5393 21.436 24.3913 21.624 24.2713 21.848C24.1513 22.072 24.0713 22.328 24.0313 22.616H27.7273ZM30.5066 20.168H31.3226L31.4066 21.164H31.4546C31.7586 20.836 32.0866 20.564 32.4386 20.348C32.7906 20.132 33.1946 20.024 33.6506 20.024C34.3466 20.024 34.8546 20.224 35.1746 20.624C35.5026 21.016 35.6666 21.6 35.6666 22.376V26H34.6826V22.508C34.6826 21.956 34.5786 21.548 34.3706 21.284C34.1626 21.012 33.8186 20.876 33.3386 20.876C33.1626 20.876 32.9986 20.9 32.8466 20.948C32.7026 20.988 32.5586 21.052 32.4146 21.14C32.2706 21.228 32.1226 21.34 31.9706 21.476C31.8186 21.604 31.6586 21.756 31.4906 21.932V26H30.5066V20.168ZM37.4139 23.096C37.4139 22.616 37.4979 22.188 37.6659 21.812C37.8339 21.428 38.0539 21.104 38.3259 20.84C38.6059 20.576 38.9219 20.376 39.2739 20.24C39.6339 20.096 40.0019 20.024 40.3779 20.024C40.7939 20.024 41.1659 20.092 41.4939 20.228C41.8219 20.356 42.0979 20.54 42.3219 20.78C42.5539 21.02 42.7299 21.308 42.8499 21.644C42.9699 21.98 43.0299 22.352 43.0299 22.76C43.0299 22.864 43.0259 22.968 43.0179 23.072C43.0179 23.168 43.0099 23.252 42.9939 23.324H38.4339C38.4419 23.636 38.5019 23.916 38.6139 24.164C38.7339 24.412 38.8899 24.624 39.0819 24.8C39.2819 24.976 39.5139 25.112 39.7779 25.208C40.0499 25.304 40.3459 25.352 40.6659 25.352C41.0099 25.352 41.3219 25.304 41.6019 25.208C41.8899 25.112 42.1699 24.98 42.4419 24.812L42.7899 25.46C42.5019 25.644 42.1739 25.804 41.8059 25.94C41.4379 26.076 41.0179 26.144 40.5459 26.144C40.1139 26.144 39.7059 26.076 39.3219 25.94C38.9459 25.796 38.6139 25.596 38.3259 25.34C38.0459 25.076 37.8219 24.756 37.6539 24.38C37.4939 24.004 37.4139 23.576 37.4139 23.096ZM42.1179 22.616C42.1179 22.032 41.9659 21.584 41.6619 21.272C41.3579 20.96 40.9339 20.804 40.3899 20.804C40.1499 20.804 39.9179 20.844 39.6939 20.924C39.4779 21.004 39.2819 21.124 39.1059 21.284C38.9299 21.436 38.7819 21.624 38.6619 21.848C38.5419 22.072 38.4619 22.328 38.4219 22.616H42.1179Z" fill="#E22BDF"/>
<path d="M51.6966 20.168H52.4646L52.5486 20.936H52.5846C52.7286 20.664 52.8966 20.444 53.0886 20.276C53.2886 20.108 53.5566 20.024 53.8926 20.024C54.4846 20.024 54.8526 20.36 54.9966 21.032C55.1726 20.728 55.3646 20.484 55.5726 20.3C55.7806 20.116 56.0486 20.024 56.3766 20.024C56.7846 20.024 57.0966 20.18 57.3126 20.492C57.5366 20.796 57.6486 21.24 57.6486 21.824V26H56.7006V21.908C56.7006 21.22 56.4886 20.876 56.0646 20.876C55.8566 20.876 55.6766 20.952 55.5246 21.104C55.3726 21.248 55.2206 21.472 55.0686 21.776V26H54.2766V21.908C54.2766 21.22 54.0566 20.876 53.6166 20.876C53.4086 20.876 53.2326 20.952 53.0886 21.104C52.9446 21.248 52.7966 21.472 52.6446 21.776V26H51.6966V20.168ZM59.1439 24.488C59.1439 24.16 59.2199 23.876 59.3719 23.636C59.5319 23.388 59.7799 23.176 60.1159 23C60.4599 22.824 60.8999 22.68 61.4359 22.568C61.9719 22.456 62.6159 22.368 63.3679 22.304C63.3599 22.104 63.3279 21.916 63.2719 21.74C63.2159 21.564 63.1279 21.412 63.0079 21.284C62.8879 21.148 62.7279 21.04 62.5279 20.96C62.3359 20.88 62.0999 20.84 61.8199 20.84C61.4359 20.84 61.0679 20.916 60.7159 21.068C60.3639 21.212 60.0519 21.368 59.7799 21.536L59.3959 20.864C59.5399 20.768 59.7079 20.672 59.8999 20.576C60.0999 20.472 60.3079 20.38 60.5239 20.3C60.7479 20.22 60.9839 20.156 61.2319 20.108C61.4799 20.052 61.7319 20.024 61.9879 20.024C62.7879 20.024 63.3799 20.244 63.7639 20.684C64.1559 21.116 64.3519 21.696 64.3519 22.424V26H63.5479L63.4639 25.208H63.4279C63.0999 25.464 62.7359 25.684 62.3359 25.868C61.9439 26.052 61.5399 26.144 61.1239 26.144C60.8519 26.144 60.5959 26.104 60.3559 26.024C60.1159 25.952 59.9039 25.848 59.7199 25.712C59.5439 25.568 59.4039 25.396 59.2999 25.196C59.1959 24.988 59.1439 24.752 59.1439 24.488ZM60.1039 24.416C60.1039 24.584 60.1399 24.728 60.2119 24.848C60.2839 24.96 60.3759 25.056 60.4879 25.136C60.6079 25.208 60.7439 25.264 60.8959 25.304C61.0559 25.336 61.2199 25.352 61.3879 25.352C61.7239 25.352 62.0519 25.28 62.3719 25.136C62.6999 24.984 63.0319 24.768 63.3679 24.488V22.952C62.7439 23 62.2199 23.068 61.7959 23.156C61.3799 23.244 61.0439 23.352 60.7879 23.48C60.5399 23.6 60.3639 23.74 60.2599 23.9C60.1559 24.052 60.1039 24.224 60.1039 24.416ZM66.4472 20.168H70.1432V26H69.1592V20.972H66.4472V20.168ZM69.5432 18.968C69.3112 18.968 69.1192 18.9 68.9672 18.764C68.8232 18.628 68.7512 18.444 68.7512 18.212C68.7512 17.98 68.8232 17.796 68.9672 17.66C69.1192 17.516 69.3112 17.444 69.5432 17.444C69.7672 17.444 69.9552 17.516 70.1072 17.66C70.2592 17.796 70.3352 17.98 70.3352 18.212C70.3352 18.444 70.2592 18.628 70.1072 18.764C69.9552 18.9 69.7672 18.968 69.5432 18.968ZM73.6785 20.168H74.4945L74.5785 21.164H74.6265C74.9305 20.836 75.2585 20.564 75.6105 20.348C75.9625 20.132 76.3665 20.024 76.8225 20.024C77.5185 20.024 78.0265 20.224 78.3465 20.624C78.6745 21.016 78.8385 21.6 78.8385 22.376V26H77.8545V22.508C77.8545 21.956 77.7505 21.548 77.5425 21.284C77.3345 21.012 76.9905 20.876 76.5105 20.876C76.3345 20.876 76.1705 20.9 76.0185 20.948C75.8745 20.988 75.7305 21.052 75.5865 21.14C75.4425 21.228 75.2945 21.34 75.1425 21.476C74.9905 21.604 74.8305 21.756 74.6625 21.932V26H73.6785V20.168Z" fill="#007FFF"/>
<path d="M84.9538 28.112C84.1218 27.464 83.4618 26.684 82.9738 25.772C82.4938 24.86 82.2538 23.824 82.2538 22.664C82.2538 21.504 82.4938 20.468 82.9738 19.556C83.4618 18.644 84.1218 17.864 84.9538 17.216L85.4938 17.72C84.6858 18.4 84.0898 19.14 83.7058 19.94C83.3298 20.74 83.1418 21.648 83.1418 22.664C83.1418 23.68 83.3298 24.588 83.7058 25.388C84.0898 26.188 84.6858 26.928 85.4938 27.608L84.9538 28.112ZM90.0491 18.968H87.4571V18.128H93.6491V18.968H91.0571V26H90.0491V18.968ZM94.9764 23.096C94.9764 22.616 95.0604 22.188 95.2284 21.812C95.3964 21.428 95.6164 21.104 95.8884 20.84C96.1684 20.576 96.4844 20.376 96.8364 20.24C97.1964 20.096 97.5644 20.024 97.9404 20.024C98.3564 20.024 98.7284 20.092 99.0564 20.228C99.3844 20.356 99.6604 20.54 99.8844 20.78C100.116 21.02 100.292 21.308 100.412 21.644C100.532 21.98 100.592 22.352 100.592 22.76C100.592 22.864 100.588 22.968 100.58 23.072C100.58 23.168 100.572 23.252 100.556 23.324H95.9964C96.0044 23.636 96.0644 23.916 96.1764 24.164C96.2964 24.412 96.4524 24.624 96.6444 24.8C96.8444 24.976 97.0764 25.112 97.3404 25.208C97.6124 25.304 97.9084 25.352 98.2284 25.352C98.5724 25.352 98.8844 25.304 99.1644 25.208C99.4524 25.112 99.7324 24.98 100.004 24.812L100.352 25.46C100.064 25.644 99.7364 25.804 99.3684 25.94C99.0004 26.076 98.5804 26.144 98.1084 26.144C97.6764 26.144 97.2684 26.076 96.8844 25.94C96.5084 25.796 96.1764 25.596 95.8884 25.34C95.6084 25.076 95.3844 24.756 95.2164 24.38C95.0564 24.004 94.9764 23.576 94.9764 23.096ZM99.6804 22.616C99.6804 22.032 99.5284 21.584 99.2244 21.272C98.9204 20.96 98.4964 20.804 97.9524 20.804C97.7124 20.804 97.4804 20.844 97.2564 20.924C97.0404 21.004 96.8444 21.124 96.6684 21.284C96.4924 21.436 96.3444 21.624 96.2244 21.848C96.1044 22.072 96.0244 22.328 95.9844 22.616H99.6804ZM103.816 20.972H102.172V20.228L103.852 20.168L103.984 18.536H104.8V20.168H107.668V20.972H104.8V23.744C104.8 24.008 104.824 24.24 104.872 24.44C104.92 24.632 105 24.796 105.112 24.932C105.224 25.068 105.376 25.172 105.568 25.244C105.76 25.308 105.996 25.34 106.276 25.34C106.556 25.34 106.808 25.316 107.032 25.268C107.256 25.22 107.472 25.156 107.68 25.076L107.896 25.796C107.632 25.892 107.34 25.972 107.02 26.036C106.7 26.108 106.38 26.144 106.06 26.144C105.636 26.144 105.28 26.088 104.992 25.976C104.704 25.856 104.472 25.692 104.296 25.484C104.128 25.268 104.004 25.012 103.924 24.716C103.852 24.42 103.816 24.092 103.816 23.732V20.972ZM110.735 21.86H112.043C112.659 21.86 113.127 21.736 113.447 21.488C113.775 21.232 113.939 20.848 113.939 20.336C113.939 19.816 113.775 19.452 113.447 19.244C113.127 19.036 112.659 18.932 112.043 18.932H110.735V21.86ZM114.035 26L112.139 22.676H110.735V26H109.739V18.128H112.187C112.587 18.128 112.955 18.168 113.291 18.248C113.627 18.32 113.915 18.444 114.155 18.62C114.403 18.796 114.595 19.024 114.731 19.304C114.867 19.584 114.935 19.928 114.935 20.336C114.935 20.952 114.775 21.444 114.455 21.812C114.135 22.18 113.707 22.432 113.171 22.568L115.175 26H114.035ZM118.098 27.932C118.594 27.708 118.966 27.436 119.214 27.116C119.462 26.804 119.594 26.408 119.61 25.928C119.57 25.936 119.53 25.944 119.49 25.952C119.458 25.952 119.422 25.952 119.382 25.952C119.126 25.952 118.906 25.88 118.722 25.736C118.538 25.584 118.446 25.356 118.446 25.052C118.446 24.756 118.542 24.532 118.734 24.38C118.926 24.22 119.15 24.14 119.406 24.14C119.766 24.14 120.034 24.28 120.21 24.56C120.394 24.832 120.486 25.204 120.486 25.676C120.486 26.38 120.298 26.972 119.922 27.452C119.554 27.94 119.038 28.308 118.374 28.556L118.098 27.932ZM131.733 18.128H132.717V25.148H136.617V26H131.733V18.128ZM138.292 24.488C138.292 24.16 138.368 23.876 138.52 23.636C138.68 23.388 138.928 23.176 139.264 23C139.608 22.824 140.048 22.68 140.584 22.568C141.12 22.456 141.764 22.368 142.516 22.304C142.508 22.104 142.476 21.916 142.42 21.74C142.364 21.564 142.276 21.412 142.156 21.284C142.036 21.148 141.876 21.04 141.676 20.96C141.484 20.88 141.248 20.84 140.968 20.84C140.584 20.84 140.216 20.916 139.864 21.068C139.512 21.212 139.2 21.368 138.928 21.536L138.544 20.864C138.688 20.768 138.856 20.672 139.048 20.576C139.248 20.472 139.456 20.38 139.672 20.3C139.896 20.22 140.132 20.156 140.38 20.108C140.628 20.052 140.88 20.024 141.136 20.024C141.936 20.024 142.528 20.244 142.912 20.684C143.304 21.116 143.5 21.696 143.5 22.424V26H142.696L142.612 25.208H142.576C142.248 25.464 141.884 25.684 141.484 25.868C141.092 26.052 140.688 26.144 140.272 26.144C140 26.144 139.744 26.104 139.504 26.024C139.264 25.952 139.052 25.848 138.868 25.712C138.692 25.568 138.552 25.396 138.448 25.196C138.344 24.988 138.292 24.752 138.292 24.488ZM139.252 24.416C139.252 24.584 139.288 24.728 139.36 24.848C139.432 24.96 139.524 25.056 139.636 25.136C139.756 25.208 139.892 25.264 140.044 25.304C140.204 25.336 140.368 25.352 140.536 25.352C140.872 25.352 141.2 25.28 141.52 25.136C141.848 24.984 142.18 24.768 142.516 24.488V22.952C141.892 23 141.368 23.068 140.944 23.156C140.528 23.244 140.192 23.352 139.936 23.48C139.688 23.6 139.512 23.74 139.408 23.9C139.304 24.052 139.252 24.224 139.252 24.416ZM145.476 23.096C145.476 22.608 145.56 22.176 145.728 21.8C145.904 21.416 146.14 21.092 146.436 20.828C146.732 20.564 147.076 20.364 147.468 20.228C147.868 20.092 148.288 20.024 148.728 20.024C149.208 20.024 149.62 20.108 149.964 20.276C150.316 20.444 150.612 20.644 150.852 20.876L150.36 21.512C150.12 21.304 149.868 21.14 149.604 21.02C149.348 20.9 149.068 20.84 148.764 20.84C148.428 20.84 148.12 20.896 147.84 21.008C147.56 21.112 147.32 21.264 147.12 21.464C146.928 21.664 146.776 21.904 146.664 22.184C146.552 22.456 146.496 22.76 146.496 23.096C146.496 23.432 146.548 23.736 146.652 24.008C146.764 24.28 146.916 24.516 147.108 24.716C147.308 24.908 147.544 25.06 147.816 25.172C148.096 25.276 148.404 25.328 148.74 25.328C149.1 25.328 149.428 25.26 149.724 25.124C150.028 24.98 150.304 24.804 150.552 24.596L150.984 25.232C150.664 25.52 150.304 25.744 149.904 25.904C149.512 26.064 149.1 26.144 148.668 26.144C148.212 26.144 147.788 26.076 147.396 25.94C147.012 25.804 146.676 25.608 146.388 25.352C146.1 25.088 145.876 24.768 145.716 24.392C145.556 24.008 145.476 23.576 145.476 23.096ZM152.851 25.148H154.807V18.968H152.851V18.128H157.771V18.968H155.815V25.148H157.771V26H152.851V25.148ZM160.37 27.608C161.178 26.928 161.77 26.188 162.146 25.388C162.53 24.588 162.722 23.68 162.722 22.664C162.722 21.648 162.53 20.74 162.146 19.94C161.77 19.14 161.178 18.4 160.37 17.72L160.91 17.216C161.742 17.864 162.398 18.644 162.878 19.556C163.366 20.468 163.61 21.504 163.61 22.664C163.61 23.824 163.366 24.86 162.878 25.772C162.398 26.684 161.742 27.464 160.91 28.112L160.37 27.608ZM197.079 21.86H198.387C199.003 21.86 199.471 21.736 199.791 21.488C200.119 21.232 200.283 20.848 200.283 20.336C200.283 19.816 200.119 19.452 199.791 19.244C199.471 19.036 199.003 18.932 198.387 18.932H197.079V21.86ZM200.379 26L198.483 22.676H197.079V26H196.083V18.128H198.531C198.931 18.128 199.299 18.168 199.635 18.248C199.971 18.32 200.259 18.444 200.499 18.62C200.747 18.796 200.939 19.024 201.075 19.304C201.211 19.584 201.279 19.928 201.279 20.336C201.279 20.952 201.119 21.444 200.799 21.812C200.479 22.18 200.051 22.432 199.515 22.568L201.519 26H200.379ZM203.698 18.128H208.51V18.968H204.694V21.632H207.922V22.472H204.694V26H203.698V18.128ZM210.497 18.128H212.909C213.341 18.128 213.737 18.168 214.097 18.248C214.457 18.328 214.761 18.46 215.009 18.644C215.265 18.82 215.461 19.056 215.597 19.352C215.741 19.648 215.813 20.012 215.813 20.444C215.813 20.86 215.741 21.22 215.597 21.524C215.461 21.828 215.265 22.08 215.009 22.28C214.753 22.48 214.445 22.632 214.085 22.736C213.733 22.832 213.341 22.88 212.909 22.88H211.493V26H210.497V18.128ZM212.777 22.064C213.473 22.064 213.985 21.936 214.313 21.68C214.649 21.416 214.817 21.004 214.817 20.444C214.817 19.876 214.645 19.484 214.301 19.268C213.965 19.044 213.457 18.932 212.777 18.932H211.493V22.064H212.777ZM226.736 26.228C226.736 26.012 226.74 25.808 226.748 25.616C226.764 25.416 226.776 25.224 226.784 25.04C226.8 24.856 226.812 24.672 226.82 24.488C226.836 24.304 226.844 24.112 226.844 23.912C226.844 23.792 226.82 23.68 226.772 23.576C226.724 23.464 226.636 23.364 226.508 23.276C226.38 23.188 226.2 23.116 225.968 23.06C225.744 23.004 225.456 22.976 225.104 22.976V22.352C225.456 22.352 225.744 22.324 225.968 22.268C226.2 22.212 226.38 22.14 226.508 22.052C226.636 21.964 226.724 21.868 226.772 21.764C226.82 21.652 226.844 21.536 226.844 21.416C226.844 21.032 226.824 20.656 226.784 20.288C226.752 19.912 226.736 19.516 226.736 19.1C226.736 18.788 226.78 18.532 226.868 18.332C226.956 18.124 227.092 17.96 227.276 17.84C227.46 17.72 227.692 17.636 227.972 17.588C228.252 17.532 228.58 17.504 228.956 17.504H229.688V18.08H229.064C228.76 18.08 228.508 18.1 228.308 18.14C228.116 18.18 227.964 18.244 227.852 18.332C227.748 18.412 227.676 18.524 227.636 18.668C227.596 18.804 227.576 18.968 227.576 19.16C227.576 19.504 227.588 19.86 227.612 20.228C227.636 20.588 227.648 20.956 227.648 21.332C227.648 21.724 227.568 22.024 227.408 22.232C227.256 22.432 226.972 22.568 226.556 22.64V22.688C226.972 22.76 227.256 22.9 227.408 23.108C227.568 23.308 227.648 23.604 227.648 23.996C227.648 24.404 227.636 24.776 227.612 25.112C227.588 25.448 227.576 25.8 227.576 26.168C227.576 26.36 227.596 26.524 227.636 26.66C227.676 26.804 227.748 26.916 227.852 26.996C227.964 27.084 228.116 27.148 228.308 27.188C228.508 27.228 228.76 27.248 229.064 27.248H229.688V27.824H228.956C228.58 27.824 228.252 27.796 227.972 27.74C227.692 27.692 227.46 27.608 227.276 27.488C227.092 27.368 226.956 27.204 226.868 26.996C226.78 26.796 226.736 26.54 226.736 26.228ZM45.9773 36.86H47.2853C47.9013 36.86 48.3693 36.736 48.6893 36.488C49.0173 36.232 49.1813 35.848 49.1813 35.336C49.1813 34.816 49.0173 34.452 48.6893 34.244C48.3693 34.036 47.9013 33.932 47.2853 33.932H45.9773V36.86ZM49.2773 41L47.3813 37.676H45.9773V41H44.9813V33.128H47.4293C47.8293 33.128 48.1973 33.168 48.5333 33.248C48.8693 33.32 49.1573 33.444 49.3973 33.62C49.6453 33.796 49.8373 34.024 49.9733 34.304C50.1093 34.584 50.1773 34.928 50.1773 35.336C50.1773 35.952 50.0173 36.444 49.6973 36.812C49.3773 37.18 48.9493 37.432 48.4133 37.568L50.4173 41H49.2773ZM52.5966 33.128H57.4086V33.968H53.5926V36.632H56.8206V37.472H53.5926V41H52.5966V33.128ZM59.3959 33.128H61.8079C62.2399 33.128 62.6359 33.168 62.9959 33.248C63.3559 33.328 63.6599 33.46 63.9079 33.644C64.1639 33.82 64.3599 34.056 64.4959 34.352C64.6399 34.648 64.7119 35.012 64.7119 35.444C64.7119 35.86 64.6399 36.22 64.4959 36.524C64.3599 36.828 64.1639 37.08 63.9079 37.28C63.6519 37.48 63.3439 37.632 62.9839 37.736C62.6319 37.832 62.2399 37.88 61.8079 37.88H60.3919V41H59.3959V33.128ZM61.6759 37.064C62.3719 37.064 62.8839 36.936 63.2119 36.68C63.5479 36.416 63.7159 36.004 63.7159 35.444C63.7159 34.876 63.5439 34.484 63.1999 34.268C62.8639 34.044 62.3559 33.932 61.6759 33.932H60.3919V37.064H61.6759ZM113.735 43.112C112.903 42.464 112.243 41.684 111.755 40.772C111.275 39.86 111.035 38.824 111.035 37.664C111.035 36.504 111.275 35.468 111.755 34.556C112.243 33.644 112.903 32.864 113.735 32.216L114.275 32.72C113.467 33.4 112.871 34.14 112.487 34.94C112.111 35.74 111.923 36.648 111.923 37.664C111.923 38.68 112.111 39.588 112.487 40.388C112.871 41.188 113.467 41.928 114.275 42.608L113.735 43.112ZM118.83 33.968H116.238V33.128H122.43V33.968H119.838V41H118.83V33.968ZM123.758 38.096C123.758 37.616 123.842 37.188 124.01 36.812C124.178 36.428 124.398 36.104 124.67 35.84C124.95 35.576 125.266 35.376 125.618 35.24C125.978 35.096 126.346 35.024 126.722 35.024C127.138 35.024 127.51 35.092 127.838 35.228C128.166 35.356 128.442 35.54 128.666 35.78C128.898 36.02 129.074 36.308 129.194 36.644C129.314 36.98 129.374 37.352 129.374 37.76C129.374 37.864 129.37 37.968 129.362 38.072C129.362 38.168 129.354 38.252 129.338 38.324H124.778C124.786 38.636 124.846 38.916 124.958 39.164C125.078 39.412 125.234 39.624 125.426 39.8C125.626 39.976 125.858 40.112 126.122 40.208C126.394 40.304 126.69 40.352 127.01 40.352C127.354 40.352 127.666 40.304 127.946 40.208C128.234 40.112 128.514 39.98 128.786 39.812L129.134 40.46C128.846 40.644 128.518 40.804 128.15 40.94C127.782 41.076 127.362 41.144 126.89 41.144C126.458 41.144 126.05 41.076 125.666 40.94C125.29 40.796 124.958 40.596 124.67 40.34C124.39 40.076 124.166 39.756 123.998 39.38C123.838 39.004 123.758 38.576 123.758 38.096ZM128.462 37.616C128.462 37.032 128.31 36.584 128.006 36.272C127.702 35.96 127.278 35.804 126.734 35.804C126.494 35.804 126.262 35.844 126.038 35.924C125.822 36.004 125.626 36.124 125.45 36.284C125.274 36.436 125.126 36.624 125.006 36.848C124.886 37.072 124.806 37.328 124.766 37.616H128.462ZM132.597 35.972H130.953V35.228L132.633 35.168L132.765 33.536H133.581V35.168H136.449V35.972H133.581V38.744C133.581 39.008 133.605 39.24 133.653 39.44C133.701 39.632 133.781 39.796 133.893 39.932C134.005 40.068 134.157 40.172 134.349 40.244C134.541 40.308 134.777 40.34 135.057 40.34C135.337 40.34 135.589 40.316 135.813 40.268C136.037 40.22 136.253 40.156 136.461 40.076L136.677 40.796C136.413 40.892 136.121 40.972 135.801 41.036C135.481 41.108 135.161 41.144 134.841 41.144C134.417 41.144 134.061 41.088 133.773 40.976C133.485 40.856 133.253 40.692 133.077 40.484C132.909 40.268 132.785 40.012 132.705 39.716C132.633 39.42 132.597 39.092 132.597 38.732V35.972ZM139.516 36.86H140.824C141.44 36.86 141.908 36.736 142.228 36.488C142.556 36.232 142.72 35.848 142.72 35.336C142.72 34.816 142.556 34.452 142.228 34.244C141.908 34.036 141.44 33.932 140.824 33.932H139.516V36.86ZM142.816 41L140.92 37.676H139.516V41H138.52V33.128H140.968C141.368 33.128 141.736 33.168 142.072 33.248C142.408 33.32 142.696 33.444 142.936 33.62C143.184 33.796 143.376 34.024 143.512 34.304C143.648 34.584 143.716 34.928 143.716 35.336C143.716 35.952 143.556 36.444 143.236 36.812C142.916 37.18 142.488 37.432 141.952 37.568L143.956 41H142.816ZM146.88 42.932C147.376 42.708 147.748 42.436 147.996 42.116C148.244 41.804 148.376 41.408 148.392 40.928C148.352 40.936 148.312 40.944 148.272 40.952C148.24 40.952 148.204 40.952 148.164 40.952C147.908 40.952 147.688 40.88 147.504 40.736C147.32 40.584 147.228 40.356 147.228 40.052C147.228 39.756 147.324 39.532 147.516 39.38C147.708 39.22 147.932 39.14 148.188 39.14C148.548 39.14 148.816 39.28 148.992 39.56C149.176 39.832 149.268 40.204 149.268 40.676C149.268 41.38 149.08 41.972 148.704 42.452C148.336 42.94 147.82 43.308 147.156 43.556L146.88 42.932ZM160.514 33.128H161.498V40.148H165.398V41H160.514V33.128ZM167.074 39.488C167.074 39.16 167.15 38.876 167.302 38.636C167.462 38.388 167.71 38.176 168.046 38C168.39 37.824 168.83 37.68 169.366 37.568C169.902 37.456 170.546 37.368 171.298 37.304C171.29 37.104 171.258 36.916 171.202 36.74C171.146 36.564 171.058 36.412 170.938 36.284C170.818 36.148 170.658 36.04 170.458 35.96C170.266 35.88 170.03 35.84 169.75 35.84C169.366 35.84 168.998 35.916 168.646 36.068C168.294 36.212 167.982 36.368 167.71 36.536L167.326 35.864C167.47 35.768 167.638 35.672 167.83 35.576C168.03 35.472 168.238 35.38 168.454 35.3C168.678 35.22 168.914 35.156 169.162 35.108C169.41 35.052 169.662 35.024 169.918 35.024C170.718 35.024 171.31 35.244 171.694 35.684C172.086 36.116 172.282 36.696 172.282 37.424V41H171.478L171.394 40.208H171.358C171.03 40.464 170.666 40.684 170.266 40.868C169.874 41.052 169.47 41.144 169.054 41.144C168.782 41.144 168.526 41.104 168.286 41.024C168.046 40.952 167.834 40.848 167.65 40.712C167.474 40.568 167.334 40.396 167.23 40.196C167.126 39.988 167.074 39.752 167.074 39.488ZM168.034 39.416C168.034 39.584 168.07 39.728 168.142 39.848C168.214 39.96 168.306 40.056 168.418 40.136C168.538 40.208 168.674 40.264 168.826 40.304C168.986 40.336 169.15 40.352 169.318 40.352C169.654 40.352 169.982 40.28 170.302 40.136C170.63 39.984 170.962 39.768 171.298 39.488V37.952C170.674 38 170.15 38.068 169.726 38.156C169.31 38.244 168.974 38.352 168.718 38.48C168.47 38.6 168.294 38.74 168.19 38.9C168.086 39.052 168.034 39.224 168.034 39.416ZM174.257 38.096C174.257 37.608 174.341 37.176 174.509 36.8C174.685 36.416 174.921 36.092 175.217 35.828C175.513 35.564 175.857 35.364 176.249 35.228C176.649 35.092 177.069 35.024 177.509 35.024C177.989 35.024 178.401 35.108 178.745 35.276C179.097 35.444 179.393 35.644 179.633 35.876L179.141 36.512C178.901 36.304 178.649 36.14 178.385 36.02C178.129 35.9 177.849 35.84 177.545 35.84C177.209 35.84 176.901 35.896 176.621 36.008C176.341 36.112 176.101 36.264 175.901 36.464C175.709 36.664 175.557 36.904 175.445 37.184C175.333 37.456 175.277 37.76 175.277 38.096C175.277 38.432 175.329 38.736 175.433 39.008C175.545 39.28 175.697 39.516 175.889 39.716C176.089 39.908 176.325 40.06 176.597 40.172C176.877 40.276 177.185 40.328 177.521 40.328C177.881 40.328 178.209 40.26 178.505 40.124C178.809 39.98 179.085 39.804 179.333 39.596L179.765 40.232C179.445 40.52 179.085 40.744 178.685 40.904C178.293 41.064 177.881 41.144 177.449 41.144C176.993 41.144 176.569 41.076 176.177 40.94C175.793 40.804 175.457 40.608 175.169 40.352C174.881 40.088 174.657 39.768 174.497 39.392C174.337 39.008 174.257 38.576 174.257 38.096ZM181.632 40.148H183.588V33.968H181.632V33.128H186.552V33.968H184.596V40.148H186.552V41H181.632V40.148ZM189.152 42.608C189.96 41.928 190.552 41.188 190.928 40.388C191.312 39.588 191.504 38.68 191.504 37.664C191.504 36.648 191.312 35.74 190.928 34.94C190.552 34.14 189.96 33.4 189.152 32.72L189.692 32.216C190.524 32.864 191.18 33.644 191.66 34.556C192.148 35.468 192.392 36.504 192.392 37.664C192.392 38.824 192.148 39.86 191.66 40.772C191.18 41.684 190.524 42.464 189.692 43.112L189.152 42.608ZM197.511 35.84C197.511 35.536 197.603 35.292 197.787 35.108C197.979 34.916 198.211 34.82 198.483 34.82C198.755 34.82 198.983 34.916 199.167 35.108C199.359 35.292 199.455 35.536 199.455 35.84C199.455 36.144 199.359 36.388 199.167 36.572C198.983 36.756 198.755 36.848 198.483 36.848C198.211 36.848 197.979 36.756 197.787 36.572C197.603 36.388 197.511 36.144 197.511 35.84ZM197.247 42.932C197.743 42.708 198.115 42.436 198.363 42.116C198.611 41.804 198.743 41.408 198.759 40.928C198.719 40.936 198.679 40.944 198.639 40.952C198.607 40.952 198.571 40.952 198.531 40.952C198.275 40.952 198.055 40.88 197.871 40.736C197.687 40.584 197.595 40.356 197.595 40.052C197.595 39.756 197.691 39.532 197.883 39.38C198.075 39.22 198.299 39.14 198.555 39.14C198.915 39.14 199.183 39.28 199.359 39.56C199.543 39.832 199.635 40.204 199.635 40.676C199.635 41.38 199.447 41.972 199.071 42.452C198.703 42.94 198.187 43.308 197.523 43.556L197.247 42.932ZM16.8 57.248C17.104 57.248 17.352 57.228 17.544 57.188C17.744 57.148 17.9 57.084 18.012 56.996C18.124 56.916 18.2 56.804 18.24 56.66C18.28 56.524 18.3 56.36 18.3 56.168C18.3 55.8 18.288 55.448 18.264 55.112C18.24 54.776 18.228 54.404 18.228 53.996C18.228 53.604 18.304 53.308 18.456 53.108C18.608 52.9 18.892 52.76 19.308 52.688V52.64C18.892 52.568 18.608 52.432 18.456 52.232C18.304 52.024 18.228 51.724 18.228 51.332C18.228 50.956 18.24 50.588 18.264 50.228C18.288 49.86 18.3 49.504 18.3 49.16C18.3 48.968 18.28 48.804 18.24 48.668C18.2 48.524 18.124 48.412 18.012 48.332C17.9 48.244 17.744 48.18 17.544 48.14C17.352 48.1 17.104 48.08 16.8 48.08H16.188V47.504H16.92C17.296 47.504 17.62 47.532 17.892 47.588C18.172 47.636 18.404 47.72 18.588 47.84C18.772 47.96 18.908 48.124 18.996 48.332C19.084 48.532 19.128 48.788 19.128 49.1C19.128 49.516 19.108 49.912 19.068 50.288C19.036 50.656 19.02 51.032 19.02 51.416C19.02 51.536 19.044 51.652 19.092 51.764C19.14 51.868 19.228 51.964 19.356 52.052C19.484 52.14 19.66 52.212 19.884 52.268C20.116 52.324 20.408 52.352 20.76 52.352V52.976C20.408 52.976 20.116 53.004 19.884 53.06C19.66 53.116 19.484 53.188 19.356 53.276C19.228 53.364 19.14 53.464 19.092 53.576C19.044 53.68 19.02 53.792 19.02 53.912C19.02 54.112 19.024 54.304 19.032 54.488C19.048 54.672 19.06 54.856 19.068 55.04C19.084 55.224 19.096 55.416 19.104 55.616C19.12 55.808 19.128 56.012 19.128 56.228C19.128 56.54 19.084 56.796 18.996 56.996C18.908 57.204 18.772 57.368 18.588 57.488C18.404 57.608 18.172 57.692 17.892 57.74C17.62 57.796 17.296 57.824 16.92 57.824H16.188V57.248H16.8Z" fill="black"/>
<path d="M174.317 21.668H179.477V22.412H174.317V21.668ZM186.252 22.388L181.776 25.424V24.476L185.388 22.04V21.992L181.776 19.556V18.608L186.252 21.644V22.388ZM73.5825 35.384H78.7425V36.128H73.5825V35.384ZM73.5825 37.94H78.7425V38.684H73.5825V37.94Z" fill="#929BA3"/>
<path d="M88.0691 35.168H88.8851L88.9691 36.164H89.0171C89.3211 35.836 89.6491 35.564 90.0011 35.348C90.3531 35.132 90.7571 35.024 91.2131 35.024C91.9091 35.024 92.4171 35.224 92.7371 35.624C93.0651 36.016 93.2291 36.6 93.2291 37.376V41H92.2451V37.508C92.2451 36.956 92.1411 36.548 91.9331 36.284C91.7251 36.012 91.3811 35.876 90.9011 35.876C90.7251 35.876 90.5611 35.9 90.4091 35.948C90.2651 35.988 90.1211 36.052 89.9771 36.14C89.8331 36.228 89.6851 36.34 89.5331 36.476C89.3811 36.604 89.2211 36.756 89.0531 36.932V41H88.0691V35.168ZM94.8684 38.096C94.8684 37.608 94.9444 37.176 95.0964 36.8C95.2564 36.416 95.4684 36.092 95.7324 35.828C95.9964 35.564 96.3004 35.364 96.6444 35.228C96.9964 35.092 97.3644 35.024 97.7484 35.024C98.1324 35.024 98.4964 35.092 98.8404 35.228C99.1924 35.364 99.5004 35.564 99.7644 35.828C100.028 36.092 100.236 36.416 100.388 36.8C100.548 37.176 100.628 37.608 100.628 38.096C100.628 38.576 100.548 39.008 100.388 39.392C100.236 39.768 100.028 40.088 99.7644 40.352C99.5004 40.608 99.1924 40.804 98.8404 40.94C98.4964 41.076 98.1324 41.144 97.7484 41.144C97.3644 41.144 96.9964 41.076 96.6444 40.94C96.3004 40.804 95.9964 40.608 95.7324 40.352C95.4684 40.088 95.2564 39.768 95.0964 39.392C94.9444 39.008 94.8684 38.576 94.8684 38.096ZM95.8884 38.096C95.8884 38.432 95.9324 38.736 96.0204 39.008C96.1084 39.28 96.2324 39.516 96.3924 39.716C96.5604 39.908 96.7564 40.06 96.9804 40.172C97.2124 40.276 97.4684 40.328 97.7484 40.328C98.0284 40.328 98.2804 40.276 98.5044 40.172C98.7364 40.06 98.9324 39.908 99.0924 39.716C99.2604 39.516 99.3884 39.28 99.4764 39.008C99.5644 38.736 99.6084 38.432 99.6084 38.096C99.6084 37.76 99.5644 37.456 99.4764 37.184C99.3884 36.904 99.2604 36.664 99.0924 36.464C98.9324 36.264 98.7364 36.112 98.5044 36.008C98.2804 35.896 98.0284 35.84 97.7484 35.84C97.4684 35.84 97.2124 35.896 96.9804 36.008C96.7564 36.112 96.5604 36.264 96.3924 36.464C96.2324 36.664 96.1084 36.904 96.0204 37.184C95.9324 37.456 95.8884 37.76 95.8884 38.096ZM103.096 35.168H103.912L103.996 36.548H104.032C104.336 36.076 104.708 35.704 105.148 35.432C105.596 35.16 106.092 35.024 106.636 35.024C106.852 35.024 107.052 35.044 107.236 35.084C107.42 35.116 107.604 35.176 107.788 35.264L107.56 36.116C107.352 36.044 107.176 35.992 107.032 35.96C106.896 35.928 106.712 35.912 106.48 35.912C106.04 35.912 105.616 36.04 105.208 36.296C104.808 36.544 104.432 36.972 104.08 37.58V41H103.096V35.168Z" fill="#0D98BA"/>
</svg>
