<svg width="108" height="108" viewBox="0 0 108 108" fill="none" xmlns="http://www.w3.org/2000/svg">
<path d="M3.56 79.68H5.24C7 79.68 8.28 79.2533 9.08 78.4C9.93333 77.4933 10.36 76.1333 10.36 74.32V61.12C10.36 59.52 10.7867 58.0267 11.64 56.64C12.4933 55.2533 13.6667 54.1333 15.16 53.28C13.6667 52.3733 12.4933 51.2267 11.64 49.84C10.7867 48.4 10.36 46.88 10.36 45.28V32.32C10.36 30.5067 9.93333 29.1733 9.08 28.32C8.28 27.4133 7 26.96 5.24 26.96H3.56V20H7.88C12.6267 20 15.9867 21.1467 17.96 23.44C19.9333 25.7333 20.92 29.2 20.92 33.84V44.48C20.92 46.4 21.4 47.7333 22.36 48.48C23.3733 49.2267 24.84 49.6 26.76 49.6V56.72C24.84 56.72 23.3733 57.12 22.36 57.92C21.4 58.6667 20.92 60 20.92 61.92V72.72C20.92 77.36 19.9333 80.8267 17.96 83.12C15.9867 85.4667 12.6267 86.64 7.88 86.64H3.56V79.68Z" fill="#63CC48"/>
<path d="M48.34 86.64C43.5933 86.64 40.2333 85.4667 38.26 83.12C36.2867 80.8267 35.3 77.36 35.3 72.72V61.92C35.3 60 34.7933 58.6667 33.78 57.92C32.82 57.12 31.38 56.72 29.46 56.72V49.6C31.38 49.6 32.82 49.2267 33.78 48.48C34.7933 47.7333 35.3 46.4 35.3 44.48V33.84C35.3 29.2 36.2867 25.7333 38.26 23.44C40.2333 21.1467 43.5933 20 48.34 20H52.66V26.96H50.98C49.22 26.96 47.9133 27.4133 47.06 28.32C46.26 29.1733 45.86 30.5067 45.86 32.32V45.28C45.86 46.88 45.4333 48.4 44.58 49.84C43.7267 51.2267 42.5533 52.3733 41.06 53.28C42.5533 54.1333 43.7267 55.2533 44.58 56.64C45.4333 58.0267 45.86 59.52 45.86 61.12V74.32C45.86 76.1333 46.26 77.4933 47.06 78.4C47.9133 79.2533 49.22 79.68 50.98 79.68H52.66V86.64H48.34Z" fill="#32B5FF"/>
<path d="M55.36 79.68H57.04C58.8 79.68 60.08 79.2533 60.88 78.4C61.7333 77.4933 62.16 76.1333 62.16 74.32V61.12C62.16 59.52 62.5867 58.0267 63.44 56.64C64.2933 55.2533 65.4667 54.1333 66.96 53.28C65.4667 52.3733 64.2933 51.2267 63.44 49.84C62.5867 48.4 62.16 46.88 62.16 45.28V32.32C62.16 30.5067 61.7333 29.1733 60.88 28.32C60.08 27.4133 58.8 26.96 57.04 26.96H55.36V20H59.68C64.4267 20 67.7867 21.1467 69.76 23.44C71.7333 25.7333 72.72 29.2 72.72 33.84V44.48C72.72 46.4 73.2 47.7333 74.16 48.48C75.1733 49.2267 76.64 49.6 78.56 49.6V56.72C76.64 56.72 75.1733 57.12 74.16 57.92C73.2 58.6667 72.72 60 72.72 61.92V72.72C72.72 77.36 71.7333 80.8267 69.76 83.12C67.7867 85.4667 64.4267 86.64 59.68 86.64H55.36V79.68Z" fill="#BD7BFF"/>
<path d="M100.14 86.64C95.3933 86.64 92.0333 85.4667 90.06 83.12C88.0867 80.8267 87.1 77.36 87.1 72.72V61.92C87.1 60 86.5933 58.6667 85.58 57.92C84.62 57.12 83.18 56.72 81.26 56.72V49.6C83.18 49.6 84.62 49.2267 85.58 48.48C86.5933 47.7333 87.1 46.4 87.1 44.48V33.84C87.1 29.2 88.0867 25.7333 90.06 23.44C92.0333 21.1467 95.3933 20 100.14 20H104.46V26.96H102.78C101.02 26.96 99.7133 27.4133 98.86 28.32C98.06 29.1733 97.66 30.5067 97.66 32.32V45.28C97.66 46.88 97.2333 48.4 96.38 49.84C95.5267 51.2267 94.3533 52.3733 92.86 53.28C94.3533 54.1333 95.5267 55.2533 96.38 56.64C97.2333 58.0267 97.66 59.52 97.66 61.12V74.32C97.66 76.1333 98.06 77.4933 98.86 78.4C99.7133 79.2533 101.02 79.68 102.78 79.68H104.46V86.64H100.14Z" fill="#FF6767"/>
</svg>
