<svg width="407" height="115" viewBox="0 0 407 115" fill="none" xmlns="http://www.w3.org/2000/svg">
<rect width="407" height="115" fill="white"/>
<path d="M147.724 85.607C143.724 85.607 140.204 84.8336 137.164 83.287C134.124 81.687 131.777 79.447 130.124 76.567C128.47 73.687 127.644 70.3803 127.644 66.647V47.287C127.644 43.5003 128.47 40.1936 130.124 37.367C131.777 34.487 134.124 32.2736 137.164 30.727C140.204 29.127 143.724 28.327 147.724 28.327C151.67 28.327 155.137 29.1003 158.124 30.647C161.164 32.1936 163.51 34.3003 165.164 36.967C166.817 39.6336 167.644 42.647 167.644 46.007V46.327C167.644 47.1803 167.217 47.607 166.364 47.607H159.724C159.35 47.607 159.03 47.5536 158.764 47.447C158.55 47.287 158.444 47.1003 158.444 46.887V46.247C158.444 43.367 157.457 40.9936 155.484 39.127C153.564 37.2603 150.977 36.327 147.724 36.327C144.47 36.327 141.857 37.3136 139.884 39.287C137.91 41.207 136.924 43.767 136.924 46.967V66.967C136.924 70.167 137.964 72.7536 140.044 74.727C142.124 76.647 144.817 77.607 148.124 77.607C151.324 77.607 153.83 76.7803 155.644 75.127C157.51 73.4203 158.444 71.1003 158.444 68.167V63.287C158.444 62.967 158.284 62.807 157.964 62.807H148.524C147.67 62.807 147.244 62.3803 147.244 61.527V56.247C147.244 55.3936 147.67 54.967 148.524 54.967H166.364C167.217 54.967 167.644 55.3936 167.644 56.247V66.167C167.644 72.3003 165.83 77.0736 162.204 80.487C158.63 83.9003 153.804 85.607 147.724 85.607ZM194.881 77.767C196.855 77.7136 198.561 77.3136 200.001 76.567C201.495 75.767 202.695 74.7003 203.601 73.367C203.868 72.9403 204.215 72.727 204.641 72.727C204.908 72.727 205.148 72.807 205.361 72.967L209.201 76.007C209.575 76.3803 209.761 76.727 209.761 77.047C209.761 77.2603 209.681 77.5003 209.521 77.767C207.975 80.2203 205.868 82.1403 203.201 83.527C200.535 84.9136 197.468 85.607 194.001 85.607C189.788 85.607 186.241 84.6203 183.361 82.647C180.535 80.6203 178.481 77.8203 177.201 74.247C176.135 71.3136 175.601 68.007 175.601 64.327C175.601 60.647 175.895 57.8203 176.481 55.847C177.495 52.0603 179.495 49.047 182.481 46.807C185.468 44.567 189.095 43.447 193.361 43.447C203.335 43.447 209.175 48.9136 210.881 59.847C211.148 61.607 211.335 63.7936 211.441 66.407C211.441 67.2603 211.015 67.687 210.161 67.687H185.361C185.041 67.687 184.881 67.847 184.881 68.167C184.881 69.607 185.041 70.7803 185.361 71.687C185.948 73.607 187.068 75.1003 188.721 76.167C190.375 77.2336 192.428 77.767 194.881 77.767ZM193.281 51.447C191.255 51.447 189.575 51.9536 188.241 52.967C186.961 53.927 186.081 55.287 185.601 57.047C185.228 58.1136 185.015 59.2336 184.961 60.407C184.908 60.727 185.041 60.887 185.361 60.887H201.441C201.761 60.887 201.921 60.727 201.921 60.407C201.708 58.807 201.548 57.847 201.441 57.527C200.961 55.6603 200.001 54.1936 198.561 53.127C197.175 52.007 195.415 51.447 193.281 51.447ZM239.521 43.447C243.894 43.447 247.361 44.727 249.921 47.287C252.534 49.847 253.841 53.3403 253.841 57.767V83.687C253.841 84.5403 253.414 84.967 252.561 84.967H245.841C244.987 84.967 244.561 84.5403 244.561 83.687V59.687C244.561 57.2336 243.841 55.2603 242.401 53.767C241.014 52.2203 239.174 51.447 236.881 51.447C234.587 51.447 232.721 52.1936 231.281 53.687C229.894 55.1803 229.201 57.1536 229.201 59.607V83.687C229.201 84.5403 228.774 84.967 227.921 84.967H221.201C220.347 84.967 219.921 84.5403 219.921 83.687V45.367C219.921 44.5136 220.347 44.087 221.201 44.087H227.921C228.774 44.087 229.201 44.5136 229.201 45.367V47.527C229.201 47.7403 229.254 47.8736 229.361 47.927C229.467 47.9803 229.574 47.927 229.681 47.767C231.921 44.887 235.201 43.447 239.521 43.447ZM294.796 30.247C294.796 29.3936 295.223 28.967 296.076 28.967H302.796C303.65 28.967 304.076 29.3936 304.076 30.247V83.687C304.076 84.5403 303.65 84.967 302.796 84.967H296.076C295.223 84.967 294.796 84.5403 294.796 83.687V61.207C294.796 60.887 294.636 60.727 294.316 60.727H274.076C273.756 60.727 273.596 60.887 273.596 61.207V83.687C273.596 84.5403 273.17 84.967 272.316 84.967H265.596C264.743 84.967 264.316 84.5403 264.316 83.687V30.247C264.316 29.3936 264.743 28.967 265.596 28.967H272.316C273.17 28.967 273.596 29.3936 273.596 30.247V52.247C273.596 52.567 273.756 52.727 274.076 52.727H294.316C294.636 52.727 294.796 52.567 294.796 52.247V30.247ZM338.534 45.367C338.534 44.5136 338.96 44.087 339.814 44.087H346.454C347.307 44.087 347.734 44.5136 347.734 45.367V83.687C347.734 84.5403 347.307 84.967 346.454 84.967H339.814C338.96 84.967 338.534 84.5403 338.534 83.687V81.607C338.534 81.3936 338.454 81.2603 338.294 81.207C338.187 81.1536 338.08 81.2336 337.974 81.447C335.84 84.167 332.587 85.527 328.214 85.527C324.16 85.527 320.747 84.3536 317.974 82.007C315.254 79.6603 313.894 76.327 313.894 72.007V45.367C313.894 44.5136 314.32 44.087 315.174 44.087H321.894C322.747 44.087 323.174 44.5136 323.174 45.367V69.367C323.174 71.8736 323.814 73.8736 325.094 75.367C326.427 76.8603 328.267 77.607 330.614 77.607C333.014 77.607 334.934 76.8603 336.374 75.367C337.814 73.8736 338.534 71.8736 338.534 69.367V45.367ZM392.135 54.647C393.042 57.367 393.495 60.6203 393.495 64.407C393.495 68.087 393.015 71.4203 392.055 74.407C390.882 77.8736 388.962 80.6203 386.295 82.647C383.628 84.6203 380.428 85.607 376.695 85.607C372.908 85.607 369.868 84.2203 367.575 81.447C367.468 81.2336 367.335 81.1536 367.175 81.207C367.068 81.2603 367.015 81.3936 367.015 81.607V83.687C367.015 84.5403 366.588 84.967 365.735 84.967H359.015C358.162 84.967 357.735 84.5403 357.735 83.687V30.247C357.735 29.3936 358.162 28.967 359.015 28.967H365.735C366.588 28.967 367.015 29.3936 367.015 30.247V47.207C367.015 47.4203 367.068 47.5536 367.175 47.607C367.335 47.607 367.468 47.527 367.575 47.367C369.922 44.7536 372.962 43.447 376.695 43.447C380.588 43.447 383.842 44.4336 386.455 46.407C389.068 48.3803 390.962 51.127 392.135 54.647ZM381.975 73.687C383.255 71.447 383.895 68.407 383.895 64.567C383.895 60.407 383.122 57.1536 381.575 54.807C380.082 52.567 377.948 51.447 375.175 51.447C372.615 51.447 370.615 52.6203 369.175 54.967C367.842 57.1536 367.175 60.327 367.175 64.487C367.175 68.5936 367.788 71.687 369.015 73.767C370.508 76.2736 372.588 77.527 375.255 77.527C378.348 77.527 380.588 76.247 381.975 73.687Z" fill="black"/>
<path d="M5.46 83.68H7.14C8.9 83.68 10.18 83.2533 10.98 82.4C11.8333 81.4933 12.26 80.1333 12.26 78.32V65.12C12.26 63.52 12.6867 62.0267 13.54 60.64C14.3933 59.2533 15.5667 58.1333 17.06 57.28C15.5667 56.3733 14.3933 55.2267 13.54 53.84C12.6867 52.4 12.26 50.88 12.26 49.28V36.32C12.26 34.5067 11.8333 33.1733 10.98 32.32C10.18 31.4133 8.9 30.96 7.14 30.96H5.46V24H9.78C14.5267 24 17.8867 25.1467 19.86 27.44C21.8333 29.7333 22.82 33.2 22.82 37.84V48.48C22.82 50.4 23.3 51.7333 24.26 52.48C25.2733 53.2267 26.74 53.6 28.66 53.6V60.72C26.74 60.72 25.2733 61.12 24.26 61.92C23.3 62.6667 22.82 64 22.82 65.92V76.72C22.82 81.36 21.8333 84.8267 19.86 87.12C17.8867 89.4667 14.5267 90.64 9.78 90.64H5.46V83.68Z" fill="#78C365"/>
<path d="M50.24 90.64C45.4933 90.64 42.1333 89.4667 40.16 87.12C38.1867 84.8267 37.2 81.36 37.2 76.72V65.92C37.2 64 36.6933 62.6667 35.68 61.92C34.72 61.12 33.28 60.72 31.36 60.72V53.6C33.28 53.6 34.72 53.2267 35.68 52.48C36.6933 51.7333 37.2 50.4 37.2 48.48V37.84C37.2 33.2 38.1867 29.7333 40.16 27.44C42.1333 25.1467 45.4933 24 50.24 24H54.56V30.96H52.88C51.12 30.96 49.8133 31.4133 48.96 32.32C48.16 33.1733 47.76 34.5067 47.76 36.32V49.28C47.76 50.88 47.3333 52.4 46.48 53.84C45.6267 55.2267 44.4533 56.3733 42.96 57.28C44.4533 58.1333 45.6267 59.2533 46.48 60.64C47.3333 62.0267 47.76 63.52 47.76 65.12V78.32C47.76 80.1333 48.16 81.4933 48.96 82.4C49.8133 83.2533 51.12 83.68 52.88 83.68H54.56V90.64H50.24Z" fill="#4BA7DB"/>
<path d="M60.46 83.68H62.14C63.9 83.68 65.18 83.2533 65.98 82.4C66.8333 81.4933 67.26 80.1333 67.26 78.32V65.12C67.26 63.52 67.6867 62.0267 68.54 60.64C69.3933 59.2533 70.5667 58.1333 72.06 57.28C70.5667 56.3733 69.3933 55.2267 68.54 53.84C67.6867 52.4 67.26 50.88 67.26 49.28V36.32C67.26 34.5067 66.8333 33.1733 65.98 32.32C65.18 31.4133 63.9 30.96 62.14 30.96H60.46V24H64.78C69.5267 24 72.8867 25.1467 74.86 27.44C76.8333 29.7333 77.82 33.2 77.82 37.84V48.48C77.82 50.4 78.3 51.7333 79.26 52.48C80.2733 53.2267 81.74 53.6 83.66 53.6V60.72C81.74 60.72 80.2733 61.12 79.26 61.92C78.3 62.6667 77.82 64 77.82 65.92V76.72C77.82 81.36 76.8333 84.8267 74.86 87.12C72.8867 89.4667 69.5267 90.64 64.78 90.64H60.46V83.68Z" fill="#B062FF"/>
<path d="M105.24 90.64C100.493 90.64 97.1333 89.4667 95.16 87.12C93.1867 84.8267 92.2 81.36 92.2 76.72V65.92C92.2 64 91.6933 62.6667 90.68 61.92C89.72 61.12 88.28 60.72 86.36 60.72V53.6C88.28 53.6 89.72 53.2267 90.68 52.48C91.6933 51.7333 92.2 50.4 92.2 48.48V37.84C92.2 33.2 93.1867 29.7333 95.16 27.44C97.1333 25.1467 100.493 24 105.24 24H109.56V30.96H107.88C106.12 30.96 104.813 31.4133 103.96 32.32C103.16 33.1733 102.76 34.5067 102.76 36.32V49.28C102.76 50.88 102.333 52.4 101.48 53.84C100.627 55.2267 99.4533 56.3733 97.96 57.28C99.4533 58.1333 100.627 59.2533 101.48 60.64C102.333 62.0267 102.76 63.52 102.76 65.12V78.32C102.76 80.1333 103.16 81.4933 103.96 82.4C104.813 83.2533 106.12 83.68 107.88 83.68H109.56V90.64H105.24Z" fill="#EE6868"/>
</svg>
