<svg width="625" height="125" viewBox="0 0 625 125" fill="none" xmlns="http://www.w3.org/2000/svg">
<g clip-path="url(#clip0)">
<rect width="625" height="125" fill="white"/>
<rect x="308.947" y="61.5266" width="5" height="30" rx="2.5" fill="black"/>
<rect x="325.08" y="61.4729" width="5" height="30" rx="2.5" fill="black"/>
<rect x="276.681" y="61.4345" width="5" height="30" rx="2.5" fill="black"/>
<rect x="292.814" y="61.4522" width="5" height="30" rx="2.5" fill="black"/>
<line x1="272.882" y1="47.7743" x2="337.254" y2="47.7743" stroke="black" stroke-width="5"/>
<line x1="266.287" y1="105.631" x2="330.659" y2="105.631" stroke="black" stroke-width="5"/>
<path d="M114.659 54.3291C114.659 58.7474 111.077 62.3291 106.659 62.3291" stroke="black" stroke-width="5"/>
<path d="M137.159 32.3291C124.732 32.3291 114.659 42.4027 114.659 54.8291" stroke="black" stroke-width="5"/>
<path d="M114.659 70.3232C114.659 65.905 111.077 62.3232 106.659 62.3232" stroke="black" stroke-width="5"/>
<path d="M137.159 92.3232C124.732 92.3232 114.659 82.2496 114.659 69.8232" stroke="black" stroke-width="5"/>
<rect x="132.495" y="47.2126" width="5" height="30" rx="2.5" fill="black"/>
<rect x="229.293" y="47.2664" width="5" height="30" rx="2.5" fill="black"/>
<rect x="261.559" y="47.2664" width="5" height="30" rx="2.5" fill="black"/>
<rect x="245.426" y="47.2841" width="5" height="30" rx="2.5" fill="black"/>
<line x1="137.159" y1="92.3233" x2="266.559" y2="92.3233" stroke="black" stroke-width="5"/>
<line x1="137.146" y1="32.3281" x2="274.317" y2="32.3281" stroke="black" stroke-width="5"/>
<rect x="197.027" y="47.2664" width="5" height="30" rx="2.5" fill="black"/>
<rect x="164.761" y="47.2126" width="5" height="30" rx="2.5" fill="black"/>
<rect x="148.628" y="47.2303" width="5" height="30" rx="2.5" fill="black"/>
<rect x="180.894" y="47.2488" width="5" height="30" rx="2.5" fill="black"/>
<rect x="213.16" y="47.2488" width="5" height="30" rx="2.5" fill="black"/>
<path d="M98.6587 54.3195C98.6587 58.7377 102.24 62.3195 106.659 62.3195" stroke="black" stroke-width="5"/>
<path d="M39.1267 54.3077C39.1267 58.7259 35.545 62.3077 31.1267 62.3077" stroke="black" stroke-width="5"/>
<path d="M76.1587 32.3076C88.5851 32.3076 98.6587 42.3812 98.6587 54.8076" stroke="black" stroke-width="5"/>
<path d="M61.6267 32.3077C49.2003 32.3077 39.1267 42.3813 39.1267 54.8077" stroke="black" stroke-width="5"/>
<path d="M98.6587 70.3136C98.6587 65.8953 102.24 62.3136 106.659 62.3136" stroke="black" stroke-width="5"/>
<path d="M39.1267 70.3018C39.1267 65.8835 35.545 62.3018 31.1267 62.3018" stroke="black" stroke-width="5"/>
<path d="M76.1587 92.3136C88.5851 92.3136 98.6587 82.24 98.6587 69.8136" stroke="black" stroke-width="5"/>
<path d="M61.6267 92.3018C49.2003 92.3018 39.1267 82.2282 39.1267 69.8018" stroke="black" stroke-width="5"/>
<line x1="61.6267" y1="32.3038" x2="76.1587" y2="32.3038" stroke="black" stroke-width="5"/>
<line x1="61.6267" y1="92.298" x2="76.1587" y2="92.298" stroke="black" stroke-width="5"/>
<rect x="50.2598" y="47.3018" width="5" height="30" rx="2.5" fill="black"/>
<rect x="82.5256" y="47.3018" width="5" height="30" rx="2.5" fill="black"/>
<rect x="66.3927" y="47.3195" width="5" height="30" rx="2.5" fill="black"/>
<path d="M510.342 54.3321C510.342 58.7503 513.924 62.3321 518.342 62.3321" stroke="black" stroke-width="5"/>
<path d="M487.842 32.3321C500.268 32.3321 510.342 42.4057 510.342 54.8321" stroke="black" stroke-width="5"/>
<path d="M510.342 70.3262C510.342 65.9079 513.924 62.3262 518.342 62.3262" stroke="black" stroke-width="5"/>
<path d="M487.842 92.3262C500.268 92.3262 510.342 82.2526 510.342 69.8262" stroke="black" stroke-width="5"/>
<rect x="358.441" y="47.2304" width="5" height="30" rx="2.5" fill="black"/>
<rect x="342.308" y="47.2481" width="5" height="30" rx="2.5" fill="black"/>
<rect x="374.574" y="47.2127" width="5" height="30" rx="2.5" fill="black"/>
<rect x="406.84" y="47.2127" width="5" height="30" rx="2.5" fill="black"/>
<rect x="390.707" y="47.2304" width="5" height="30" rx="2.5" fill="black"/>
<rect x="422.973" y="47.2841" width="5" height="30" rx="2.5" fill="black"/>
<rect x="455.239" y="47.2841" width="5" height="30" rx="2.5" fill="black"/>
<rect x="439.106" y="47.3018" width="5" height="30" rx="2.5" fill="black"/>
<rect x="471.372" y="47.1951" width="5" height="30" rx="2.5" fill="black"/>
<rect x="487.505" y="47.2127" width="5" height="30" rx="2.5" fill="black"/>
<line x1="333.05" y1="92.3233" x2="487.842" y2="92.3233" stroke="black" stroke-width="5"/>
<line x1="340.109" y1="32.3281" x2="487.842" y2="32.3281" stroke="black" stroke-width="5"/>
<path d="M601.873 54.3144C601.873 58.7327 598.292 62.3144 593.873 62.3144" stroke="black" stroke-width="5"/>
<path d="M624.373 32.3144C611.947 32.3144 601.873 42.388 601.873 54.8144" stroke="black" stroke-width="5"/>
<path d="M601.873 70.3085C601.873 65.8902 598.292 62.3085 593.873 62.3085" stroke="black" stroke-width="5"/>
<path d="M624.373 92.3085C611.947 92.3085 601.873 82.2349 601.873 69.8085" stroke="black" stroke-width="5"/>
<line x1="624.373" y1="32.3105" x2="638.905" y2="32.3105" stroke="black" stroke-width="5"/>
<line x1="624.373" y1="92.3047" x2="638.905" y2="92.3047" stroke="black" stroke-width="5"/>
<rect x="613.006" y="47.3085" width="5" height="30" rx="2.5" fill="black"/>
<path d="M585.874 54.3262C585.874 58.7444 589.456 62.3262 593.874 62.3262" stroke="black" stroke-width="5"/>
<path d="M526.342 54.3144C526.342 58.7327 522.76 62.3144 518.342 62.3144" stroke="black" stroke-width="5"/>
<path d="M563.374 32.3144C575.8 32.3144 585.874 42.388 585.874 54.8144" stroke="black" stroke-width="5"/>
<path d="M548.842 32.3144C536.415 32.3144 526.342 42.388 526.342 54.8144" stroke="black" stroke-width="5"/>
<path d="M585.874 70.3203C585.874 65.902 589.456 62.3203 593.874 62.3203" stroke="black" stroke-width="5"/>
<path d="M526.342 70.3085C526.342 65.8902 522.76 62.3085 518.342 62.3085" stroke="black" stroke-width="5"/>
<path d="M563.374 92.3203C575.8 92.3203 585.874 82.2467 585.874 69.8203" stroke="black" stroke-width="5"/>
<path d="M548.842 92.3085C536.415 92.3085 526.342 82.2349 526.342 69.8085" stroke="black" stroke-width="5"/>
<line x1="548.842" y1="32.3105" x2="563.374" y2="32.3105" stroke="black" stroke-width="5"/>
<line x1="548.842" y1="92.3047" x2="563.374" y2="92.3047" stroke="black" stroke-width="5"/>
<rect x="537.475" y="47.3085" width="5" height="30" rx="2.5" fill="black"/>
<rect x="569.741" y="47.3085" width="5" height="30" rx="2.5" fill="black"/>
<rect x="553.608" y="47.3262" width="5" height="30" rx="2.5" fill="black"/>
<path d="M23.1267 54.3195C23.1267 58.7377 26.7084 62.3195 31.1267 62.3195" stroke="black" stroke-width="5"/>
<path d="M0.626709 32.3076C13.0531 32.3076 23.1267 42.3812 23.1267 54.8076" stroke="black" stroke-width="5"/>
<path d="M23.1267 70.3136C23.1267 65.8953 26.7084 62.3136 31.1267 62.3136" stroke="black" stroke-width="5"/>
<path d="M0.626709 92.3136C13.0531 92.3136 23.1267 82.24 23.1267 69.8136" stroke="black" stroke-width="5"/>
<line x1="-13.9053" y1="32.3038" x2="0.626709" y2="32.3038" stroke="black" stroke-width="5"/>
<line x1="-13.9053" y1="92.298" x2="0.626709" y2="92.298" stroke="black" stroke-width="5"/>
<rect x="6.99365" y="47.3018" width="5" height="30" rx="2.5" fill="black"/>
<rect x="277.42" y="-3.18271" width="3.3326" height="129.766" transform="rotate(6.86082 277.42 -3.18271)" fill="#DEDEDE"/>
<rect x="341.978" y="-1.05176" width="3.3326" height="129.766" transform="rotate(6.86082 341.978 -1.05176)" fill="#DEDEDE"/>
</g>
<defs>
<clipPath id="clip0">
<rect width="625" height="125" fill="white"/>
</clipPath>
</defs>
</svg>
