<svg width="625" height="272" viewBox="0 0 625 272" fill="none" xmlns="http://www.w3.org/2000/svg">
<g clip-path="url(#clip0)">
<rect width="625" height="272" fill="white"/>
<path d="M39.4478 95.5155C39.4478 99.9338 43.0295 103.515 47.4478 103.515" stroke="black" stroke-width="5"/>
<path d="M16.9478 73.5037C29.3742 73.5037 39.4478 83.5773 39.4478 96.0037" stroke="black" stroke-width="5"/>
<path d="M2.41583 73.5037C-10.0106 73.5037 -20.0842 83.5773 -20.0842 96.0037" stroke="black" stroke-width="5"/>
<path d="M39.4478 111.51C39.4478 107.091 43.0295 103.51 47.4478 103.51" stroke="black" stroke-width="5"/>
<path d="M16.9478 133.51C29.3742 133.51 39.4478 123.436 39.4478 111.01" stroke="black" stroke-width="5"/>
<path d="M2.41583 133.498C-10.0106 133.498 -20.0842 123.424 -20.0842 110.998" stroke="black" stroke-width="5"/>
<line x1="2.41583" y1="73.4998" x2="16.9478" y2="73.4998" stroke="black" stroke-width="5"/>
<line x1="2.41583" y1="133.494" x2="16.9478" y2="133.494" stroke="black" stroke-width="5"/>
<rect x="23.3148" y="88.4978" width="5" height="30" rx="2.5" fill="black"/>
<rect x="7.18182" y="88.5155" width="5" height="30" rx="2.5" fill="black"/>
<path d="M584.172 95.5037C584.172 99.9219 580.59 103.504 576.172 103.504" stroke="black" stroke-width="5"/>
<path d="M621.204 73.5037C633.63 73.5037 643.704 83.5773 643.704 96.0037" stroke="black" stroke-width="5"/>
<path d="M606.672 73.5037C594.245 73.5037 584.172 83.5773 584.172 96.0037" stroke="black" stroke-width="5"/>
<path d="M584.172 111.498C584.172 107.08 580.59 103.498 576.172 103.498" stroke="black" stroke-width="5"/>
<path d="M621.204 133.51C633.63 133.51 643.704 123.436 643.704 111.01" stroke="black" stroke-width="5"/>
<path d="M606.672 133.498C594.245 133.498 584.172 123.424 584.172 110.998" stroke="black" stroke-width="5"/>
<line x1="606.672" y1="73.4998" x2="621.204" y2="73.4998" stroke="black" stroke-width="5"/>
<line x1="606.672" y1="133.494" x2="621.204" y2="133.494" stroke="black" stroke-width="5"/>
<rect x="595.305" y="88.4978" width="5" height="30" rx="2.5" fill="black"/>
<rect x="611.438" y="88.5155" width="5" height="30" rx="2.5" fill="black"/>
<path d="M568.172 95.5155C568.172 99.9338 571.753 103.515 576.172 103.515" stroke="black" stroke-width="5"/>
<path d="M508.64 95.5037C508.64 99.9219 505.058 103.504 500.64 103.504" stroke="black" stroke-width="5"/>
<path d="M545.672 73.5037C558.098 73.5037 568.172 83.5773 568.172 96.0037" stroke="black" stroke-width="5"/>
<path d="M531.14 73.5037C518.713 73.5037 508.64 83.5773 508.64 96.0037" stroke="black" stroke-width="5"/>
<path d="M568.172 111.51C568.172 107.091 571.753 103.51 576.172 103.51" stroke="black" stroke-width="5"/>
<path d="M508.64 111.498C508.64 107.08 505.058 103.498 500.64 103.498" stroke="black" stroke-width="5"/>
<path d="M545.672 133.51C558.098 133.51 568.172 123.436 568.172 111.01" stroke="black" stroke-width="5"/>
<path d="M531.14 133.498C518.713 133.498 508.64 123.424 508.64 110.998" stroke="black" stroke-width="5"/>
<line x1="531.14" y1="73.4998" x2="545.672" y2="73.4998" stroke="black" stroke-width="5"/>
<line x1="531.14" y1="133.494" x2="545.672" y2="133.494" stroke="black" stroke-width="5"/>
<rect x="519.773" y="88.4978" width="5" height="30" rx="2.5" fill="black"/>
<rect x="552.039" y="88.4978" width="5" height="30" rx="2.5" fill="black"/>
<rect x="535.906" y="88.5155" width="5" height="30" rx="2.5" fill="black"/>
<path d="M492.64 95.5155C492.64 99.9338 496.221 103.515 500.64 103.515" stroke="black" stroke-width="5"/>
<path d="M433.108 95.5037C433.108 99.9219 429.526 103.504 425.108 103.504" stroke="black" stroke-width="5"/>
<path d="M470.14 73.5037C482.566 73.5037 492.64 83.5773 492.64 96.0037" stroke="black" stroke-width="5"/>
<path d="M455.608 73.5037C443.181 73.5037 433.108 83.5773 433.108 96.0037" stroke="black" stroke-width="5"/>
<path d="M492.64 111.51C492.64 107.091 496.221 103.51 500.64 103.51" stroke="black" stroke-width="5"/>
<path d="M433.108 111.498C433.108 107.08 429.526 103.498 425.108 103.498" stroke="black" stroke-width="5"/>
<path d="M470.14 133.51C482.566 133.51 492.64 123.436 492.64 111.01" stroke="black" stroke-width="5"/>
<path d="M455.608 133.498C443.181 133.498 433.108 123.424 433.108 110.998" stroke="black" stroke-width="5"/>
<line x1="455.608" y1="73.4998" x2="470.14" y2="73.4998" stroke="black" stroke-width="5"/>
<line x1="455.608" y1="133.494" x2="470.14" y2="133.494" stroke="black" stroke-width="5"/>
<rect x="444.241" y="88.4978" width="5" height="30" rx="2.5" fill="black"/>
<rect x="476.507" y="88.4978" width="5" height="30" rx="2.5" fill="black"/>
<rect x="460.374" y="88.5155" width="5" height="30" rx="2.5" fill="black"/>
<rect x="247.681" y="55.6544" width="17.2709" height="103.626" rx="8.63547" fill="black"/>
<rect x="359.133" y="55.6544" width="17.2709" height="103.626" rx="8.63547" fill="black"/>
<rect x="303.407" y="55.7155" width="17.2709" height="103.626" rx="8.63547" fill="#EE6868"/>
<path d="M251.993 30.0527H373.39L361.033 19.5767H263.795L251.993 30.0527Z" fill="black"/>
<path d="M264.952 184.943H359.133L354.34 190.181L340.792 195.419H283.243L269.53 190.181L264.952 184.943Z" fill="black"/>
<path d="M417.108 95.5155C417.108 99.9338 420.69 103.515 425.108 103.515" stroke="black" stroke-width="5"/>
<path d="M417.108 96.0037C417.108 86.9737 411.788 79.1861 404.112 75.6037" stroke="black" stroke-width="5"/>
<path d="M417.108 111.51C417.108 107.091 420.69 103.51 425.108 103.51" stroke="black" stroke-width="5"/>
<path d="M417.108 111.01C417.108 119.917 411.932 127.616 404.423 131.262" stroke="black" stroke-width="5"/>
<path d="M206.512 95.5096C206.512 99.9279 202.93 103.51 198.512 103.51" stroke="black" stroke-width="5"/>
<path d="M206.512 96.0096C206.512 86.8946 211.932 79.0456 219.725 75.5096" stroke="black" stroke-width="5"/>
<path d="M206.512 111.504C206.512 107.085 202.93 103.504 198.512 103.504" stroke="black" stroke-width="5"/>
<path d="M206.512 111.004C206.512 120.215 212.047 128.133 219.973 131.614" stroke="black" stroke-width="5"/>
<path d="M190.512 95.5155C190.512 99.9338 194.094 103.515 198.512 103.515" stroke="black" stroke-width="5"/>
<path d="M130.98 95.5037C130.98 99.9219 127.398 103.504 122.98 103.504" stroke="black" stroke-width="5"/>
<path d="M168.012 73.5037C180.438 73.5037 190.512 83.5773 190.512 96.0037" stroke="black" stroke-width="5"/>
<path d="M153.48 73.5037C141.053 73.5037 130.98 83.5773 130.98 96.0037" stroke="black" stroke-width="5"/>
<path d="M190.512 111.51C190.512 107.091 194.094 103.51 198.512 103.51" stroke="black" stroke-width="5"/>
<path d="M130.98 111.498C130.98 107.08 127.398 103.498 122.98 103.498" stroke="black" stroke-width="5"/>
<path d="M168.012 133.51C180.438 133.51 190.512 123.436 190.512 111.01" stroke="black" stroke-width="5"/>
<path d="M153.48 133.498C141.053 133.498 130.98 123.424 130.98 110.998" stroke="black" stroke-width="5"/>
<line x1="153.48" y1="73.4998" x2="168.012" y2="73.4998" stroke="black" stroke-width="5"/>
<line x1="153.48" y1="133.494" x2="168.012" y2="133.494" stroke="black" stroke-width="5"/>
<rect x="142.113" y="88.4978" width="5" height="30" rx="2.5" fill="black"/>
<rect x="174.379" y="88.4978" width="5" height="30" rx="2.5" fill="black"/>
<rect x="158.246" y="88.5155" width="5" height="30" rx="2.5" fill="black"/>
<path d="M114.98 95.5214C114.98 99.9397 118.562 103.521 122.98 103.521" stroke="black" stroke-width="5"/>
<path d="M55.4478 95.5096C55.4478 99.9279 51.8661 103.51 47.4478 103.51" stroke="black" stroke-width="5"/>
<path d="M92.4798 73.5096C104.906 73.5096 114.98 83.5832 114.98 96.0096" stroke="black" stroke-width="5"/>
<path d="M77.9478 73.5096C65.5214 73.5096 55.4478 83.5832 55.4478 96.0096" stroke="black" stroke-width="5"/>
<path d="M114.98 111.516C114.98 107.097 118.562 103.516 122.98 103.516" stroke="black" stroke-width="5"/>
<path d="M55.4478 111.504C55.4478 107.085 51.8661 103.504 47.4478 103.504" stroke="black" stroke-width="5"/>
<path d="M92.4798 133.516C104.906 133.516 114.98 123.442 114.98 111.016" stroke="black" stroke-width="5"/>
<path d="M77.9478 133.504C65.5214 133.504 55.4478 123.43 55.4478 111.004" stroke="black" stroke-width="5"/>
<line x1="77.9478" y1="73.5057" x2="92.4798" y2="73.5057" stroke="black" stroke-width="5"/>
<line x1="77.9478" y1="133.5" x2="92.4798" y2="133.5" stroke="black" stroke-width="5"/>
<rect x="66.5809" y="88.5037" width="5" height="30" rx="2.5" fill="black"/>
<rect x="98.8467" y="88.5037" width="5" height="30" rx="2.5" fill="black"/>
<rect x="82.7138" y="88.5214" width="5" height="30" rx="2.5" fill="black"/>
<circle cx="312.03" cy="102.599" r="96.355" fill="#E2E2E2" fill-opacity="0.38" stroke="black" stroke-width="5"/>
<path d="M390.062 100.287C390.062 108.082 387.667 129.117 378.433 145.088C367.601 163.825 349.146 172.903 340.002 172.903C331.54 172.903 335.77 152.028 342.124 135.746C348.49 119.432 348.07 103.882 348.07 95.4035C348.07 86.9254 348.49 72.8589 342.124 59.0955C335.77 45.3592 331.54 32.3422 340.002 32.3422C349.146 32.3422 365.265 41.1914 376.098 55.4859C385.332 67.671 390.062 92.492 390.062 100.287Z" fill="white" fill-opacity="0.89"/>
<rect x="370.34" y="177.748" width="16.2997" height="37.7957" transform="rotate(-41.4028 370.34 177.748)" fill="black"/>
<rect x="386.969" y="201.795" width="23.0787" height="88.6012" rx="7" transform="rotate(-41.4 386.969 201.795)" fill="black"/>
</g>
<defs>
<clipPath id="clip0">
<rect width="625" height="272" fill="white"/>
</clipPath>
</defs>
</svg>
