<svg width="625" height="100" viewBox="0 0 625 100" fill="none" xmlns="http://www.w3.org/2000/svg">
<g clip-path="url(#clip0)">
<rect width="625" height="100" fill="white"/>
<path d="M584.862 40.7519C584.862 45.1702 581.28 48.7519 576.862 48.7519" stroke="black" stroke-width="5"/>
<path d="M621.894 18.7519C634.32 18.7519 644.394 28.8255 644.394 41.2519" stroke="black" stroke-width="5"/>
<path d="M607.362 18.7519C594.936 18.7519 584.862 28.8255 584.862 41.2519" stroke="black" stroke-width="5"/>
<path d="M584.862 56.746C584.862 52.3278 581.28 48.746 576.862 48.746" stroke="black" stroke-width="5"/>
<path d="M621.894 78.7578C634.32 78.7578 644.394 68.6842 644.394 56.2578" stroke="black" stroke-width="5"/>
<path d="M607.362 78.746C594.936 78.746 584.862 68.6724 584.862 56.246" stroke="black" stroke-width="5"/>
<line x1="607.362" y1="18.748" x2="621.894" y2="18.748" stroke="black" stroke-width="5"/>
<line x1="607.362" y1="78.7422" x2="621.894" y2="78.7422" stroke="black" stroke-width="5"/>
<rect x="595.995" y="33.746" width="5" height="30" rx="2.5" fill="black"/>
<rect x="612.128" y="33.7637" width="5" height="30" rx="2.5" fill="black"/>
<path d="M568.862 40.7637C568.862 45.1819 572.444 48.7637 576.862 48.7637" stroke="black" stroke-width="5"/>
<path d="M509.33 40.7519C509.33 45.1702 505.748 48.7519 501.33 48.7519" stroke="black" stroke-width="5"/>
<path d="M546.362 18.7519C558.788 18.7519 568.862 28.8255 568.862 41.2519" stroke="black" stroke-width="5"/>
<path d="M531.83 18.7519C519.404 18.7519 509.33 28.8255 509.33 41.2519" stroke="black" stroke-width="5"/>
<path d="M568.862 56.7578C568.862 52.3395 572.444 48.7578 576.862 48.7578" stroke="black" stroke-width="5"/>
<path d="M509.33 56.746C509.33 52.3278 505.748 48.746 501.33 48.746" stroke="black" stroke-width="5"/>
<path d="M546.362 78.7578C558.788 78.7578 568.862 68.6842 568.862 56.2578" stroke="black" stroke-width="5"/>
<path d="M531.83 78.746C519.404 78.746 509.33 68.6724 509.33 56.246" stroke="black" stroke-width="5"/>
<line x1="531.83" y1="18.748" x2="546.362" y2="18.748" stroke="black" stroke-width="5"/>
<line x1="531.83" y1="78.7422" x2="546.362" y2="78.7422" stroke="black" stroke-width="5"/>
<rect x="520.463" y="33.746" width="5" height="30" rx="2.5" fill="black"/>
<rect x="552.729" y="33.746" width="5" height="30" rx="2.5" fill="black"/>
<rect x="536.596" y="33.7637" width="5" height="30" rx="2.5" fill="black"/>
<path d="M493.33 40.7637C493.33 45.1819 496.912 48.7637 501.33 48.7637" stroke="black" stroke-width="5"/>
<path d="M433.798 40.7519C433.798 45.1702 430.216 48.7519 425.798 48.7519" stroke="black" stroke-width="5"/>
<path d="M470.83 18.7519C483.256 18.7519 493.33 28.8255 493.33 41.2519" stroke="black" stroke-width="5"/>
<path d="M456.298 18.7519C443.872 18.7519 433.798 28.8255 433.798 41.2519" stroke="black" stroke-width="5"/>
<path d="M493.33 56.7578C493.33 52.3395 496.912 48.7578 501.33 48.7578" stroke="black" stroke-width="5"/>
<path d="M433.798 56.746C433.798 52.3278 430.216 48.746 425.798 48.746" stroke="black" stroke-width="5"/>
<path d="M470.83 78.7578C483.256 78.7578 493.33 68.6842 493.33 56.2578" stroke="black" stroke-width="5"/>
<path d="M456.298 78.746C443.872 78.746 433.798 68.6724 433.798 56.246" stroke="black" stroke-width="5"/>
<line x1="456.298" y1="18.748" x2="470.83" y2="18.748" stroke="black" stroke-width="5"/>
<line x1="456.298" y1="78.7422" x2="470.83" y2="78.7422" stroke="black" stroke-width="5"/>
<rect x="444.931" y="33.746" width="5" height="30" rx="2.5" fill="black"/>
<rect x="477.197" y="33.746" width="5" height="30" rx="2.5" fill="black"/>
<rect x="461.064" y="33.7637" width="5" height="30" rx="2.5" fill="black"/>
<path d="M417.798 40.7637C417.798 45.1819 421.38 48.7637 425.798 48.7637" stroke="black" stroke-width="5"/>
<path d="M358.266 40.7519C358.266 45.1702 354.684 48.7519 350.266 48.7519" stroke="black" stroke-width="5"/>
<path d="M395.298 18.7519C407.724 18.7519 417.798 28.8255 417.798 41.2519" stroke="black" stroke-width="5"/>
<path d="M380.766 18.7519C368.34 18.7519 358.266 28.8255 358.266 41.2519" stroke="black" stroke-width="5"/>
<path d="M417.798 56.7578C417.798 52.3395 421.38 48.7578 425.798 48.7578" stroke="black" stroke-width="5"/>
<path d="M358.266 56.746C358.266 52.3278 354.684 48.746 350.266 48.746" stroke="black" stroke-width="5"/>
<path d="M395.298 78.7578C407.724 78.7578 417.798 68.6842 417.798 56.2578" stroke="black" stroke-width="5"/>
<path d="M380.766 78.746C368.34 78.746 358.266 68.6724 358.266 56.246" stroke="black" stroke-width="5"/>
<line x1="380.766" y1="18.748" x2="395.298" y2="18.748" stroke="black" stroke-width="5"/>
<line x1="380.766" y1="78.7422" x2="395.298" y2="78.7422" stroke="black" stroke-width="5"/>
<rect x="369.399" y="33.746" width="5" height="30" rx="2.5" fill="black"/>
<rect x="401.665" y="33.746" width="5" height="30" rx="2.5" fill="black"/>
<rect x="385.532" y="33.7637" width="5" height="30" rx="2.5" fill="black"/>
<path d="M342.266 40.7637C342.266 45.1819 345.848 48.7637 350.266 48.7637" stroke="black" stroke-width="5"/>
<path d="M282.734 40.7519C282.734 45.1702 279.152 48.7519 274.734 48.7519" stroke="black" stroke-width="5"/>
<path d="M319.766 18.7519C332.192 18.7519 342.266 28.8255 342.266 41.2519" stroke="black" stroke-width="5"/>
<path d="M305.234 18.7519C292.808 18.7519 282.734 28.8255 282.734 41.2519" stroke="black" stroke-width="5"/>
<path d="M342.266 56.7578C342.266 52.3395 345.848 48.7578 350.266 48.7578" stroke="black" stroke-width="5"/>
<path d="M282.734 56.746C282.734 52.3278 279.152 48.746 274.734 48.746" stroke="black" stroke-width="5"/>
<path d="M319.766 78.7578C332.192 78.7578 342.266 68.6842 342.266 56.2578" stroke="black" stroke-width="5"/>
<path d="M305.234 78.746C292.808 78.746 282.734 68.6724 282.734 56.246" stroke="black" stroke-width="5"/>
<line x1="305.234" y1="18.748" x2="319.766" y2="18.748" stroke="black" stroke-width="5"/>
<line x1="305.234" y1="78.7422" x2="319.766" y2="78.7422" stroke="black" stroke-width="5"/>
<rect x="293.867" y="33.746" width="5" height="30" rx="2.5" fill="black"/>
<rect x="326.133" y="33.746" width="5" height="30" rx="2.5" fill="black"/>
<rect x="310" y="33.7637" width="5" height="30" rx="2.5" fill="black"/>
<path d="M266.734 40.7637C266.734 45.1819 270.316 48.7637 274.734 48.7637" stroke="black" stroke-width="5"/>
<path d="M207.202 40.7519C207.202 45.1702 203.62 48.7519 199.202 48.7519" stroke="black" stroke-width="5"/>
<path d="M244.234 18.7519C256.66 18.7519 266.734 28.8255 266.734 41.2519" stroke="black" stroke-width="5"/>
<path d="M229.702 18.7519C217.276 18.7519 207.202 28.8255 207.202 41.2519" stroke="black" stroke-width="5"/>
<path d="M266.734 56.7578C266.734 52.3395 270.316 48.7578 274.734 48.7578" stroke="black" stroke-width="5"/>
<path d="M207.202 56.746C207.202 52.3278 203.62 48.746 199.202 48.746" stroke="black" stroke-width="5"/>
<path d="M244.234 78.7578C256.66 78.7578 266.734 68.6842 266.734 56.2578" stroke="black" stroke-width="5"/>
<path d="M229.702 78.746C217.276 78.746 207.202 68.6724 207.202 56.246" stroke="black" stroke-width="5"/>
<line x1="229.702" y1="18.748" x2="244.234" y2="18.748" stroke="black" stroke-width="5"/>
<line x1="229.702" y1="78.7422" x2="244.234" y2="78.7422" stroke="black" stroke-width="5"/>
<rect x="218.335" y="33.746" width="5" height="30" rx="2.5" fill="black"/>
<rect x="250.601" y="33.746" width="5" height="30" rx="2.5" fill="black"/>
<rect x="234.468" y="33.7637" width="5" height="30" rx="2.5" fill="black"/>
<path d="M191.202 40.7697C191.202 45.1879 194.784 48.7697 199.202 48.7697" stroke="black" stroke-width="5"/>
<path d="M131.67 40.7578C131.67 45.1761 128.088 48.7578 123.67 48.7578" stroke="black" stroke-width="5"/>
<path d="M168.702 18.7578C181.128 18.7578 191.202 28.8314 191.202 41.2578" stroke="black" stroke-width="5"/>
<path d="M154.17 18.7578C141.744 18.7578 131.67 28.8314 131.67 41.2578" stroke="black" stroke-width="5"/>
<path d="M191.202 56.7637C191.202 52.3455 194.784 48.7637 199.202 48.7637" stroke="black" stroke-width="5"/>
<path d="M131.67 56.752C131.67 52.3337 128.088 48.752 123.67 48.752" stroke="black" stroke-width="5"/>
<path d="M168.702 78.7637C181.128 78.7637 191.202 68.6901 191.202 56.2637" stroke="black" stroke-width="5"/>
<path d="M154.17 78.752C141.744 78.752 131.67 68.6784 131.67 56.252" stroke="black" stroke-width="5"/>
<line x1="154.17" y1="18.754" x2="168.702" y2="18.754" stroke="black" stroke-width="5"/>
<line x1="154.17" y1="78.7481" x2="168.702" y2="78.7481" stroke="black" stroke-width="5"/>
<rect x="142.803" y="33.752" width="5" height="30" rx="2.5" fill="black"/>
<rect x="175.069" y="33.752" width="5" height="30" rx="2.5" fill="black"/>
<rect x="158.936" y="33.7697" width="5" height="30" rx="2.5" fill="black"/>
<path d="M115.67 40.7637C115.67 45.1819 119.252 48.7637 123.67 48.7637" stroke="black" stroke-width="5"/>
<path d="M56.1381 40.7519C56.1381 45.1702 52.5563 48.7519 48.1381 48.7519" stroke="black" stroke-width="5"/>
<path d="M93.17 18.7519C105.596 18.7519 115.67 28.8255 115.67 41.2519" stroke="black" stroke-width="5"/>
<path d="M78.6381 18.7519C66.2117 18.7519 56.1381 28.8255 56.1381 41.2519" stroke="black" stroke-width="5"/>
<path d="M115.67 56.7578C115.67 52.3395 119.252 48.7578 123.67 48.7578" stroke="black" stroke-width="5"/>
<path d="M56.1381 56.746C56.1381 52.3278 52.5563 48.746 48.1381 48.746" stroke="black" stroke-width="5"/>
<path d="M93.17 78.7578C105.596 78.7578 115.67 68.6842 115.67 56.2578" stroke="black" stroke-width="5"/>
<path d="M78.6381 78.746C66.2117 78.746 56.1381 68.6724 56.1381 56.246" stroke="black" stroke-width="5"/>
<line x1="78.6381" y1="18.748" x2="93.17" y2="18.748" stroke="black" stroke-width="5"/>
<line x1="78.6381" y1="78.7422" x2="93.17" y2="78.7422" stroke="black" stroke-width="5"/>
<rect x="67.2711" y="33.746" width="5" height="30" rx="2.5" fill="black"/>
<rect x="99.537" y="33.746" width="5" height="30" rx="2.5" fill="black"/>
<rect x="83.4041" y="33.7637" width="5" height="30" rx="2.5" fill="black"/>
<path d="M40.1381 40.7697C40.1381 45.1879 43.7198 48.7697 48.1381 48.7697" stroke="black" stroke-width="5"/>
<path d="M17.6381 18.7578C30.0645 18.7578 40.1381 28.8314 40.1381 41.2578" stroke="black" stroke-width="5"/>
<path d="M3.10608 18.7578C-9.32033 18.7578 -19.3939 28.8314 -19.3939 41.2578" stroke="black" stroke-width="5"/>
<path d="M40.1381 56.7637C40.1381 52.3455 43.7198 48.7637 48.1381 48.7637" stroke="black" stroke-width="5"/>
<path d="M17.6381 78.7637C30.0645 78.7637 40.1381 68.6901 40.1381 56.2637" stroke="black" stroke-width="5"/>
<path d="M3.10608 78.752C-9.32033 78.752 -19.3939 68.6784 -19.3939 56.252" stroke="black" stroke-width="5"/>
<line x1="3.10608" y1="18.754" x2="17.6381" y2="18.754" stroke="black" stroke-width="5"/>
<line x1="3.10608" y1="78.7481" x2="17.6381" y2="78.7481" stroke="black" stroke-width="5"/>
<rect x="24.005" y="33.752" width="5" height="30" rx="2.5" fill="black"/>
<rect x="7.87207" y="33.7697" width="5" height="30" rx="2.5" fill="black"/>
</g>
<defs>
<clipPath id="clip0">
<rect width="625" height="100" fill="white"/>
</clipPath>
</defs>
</svg>
