<svg width="468" height="150" viewBox="0 0 468 150" fill="none" xmlns="http://www.w3.org/2000/svg">
<g clip-path="url(#clip0)">
<rect width="468" height="150" fill="white"/>
<path d="M164.489 81.5141V69.2741H186.569V114.754C184.009 115.474 180.809 116.034 176.969 116.434C173.209 116.914 169.609 117.154 166.169 117.154C158.729 117.154 153.169 116.034 149.489 113.794C145.889 111.474 143.409 107.394 142.049 101.554C140.689 95.7141 140.009 86.8341 140.009 74.9141C140.009 62.9941 140.729 54.1141 142.169 48.2741C143.609 42.4341 146.209 38.3941 149.969 36.1541C153.729 33.8341 159.449 32.6741 167.129 32.6741C170.169 32.6741 173.489 32.9141 177.089 33.3941C180.689 33.7941 183.769 34.3541 186.329 35.0741V46.5941C183.769 46.1941 181.009 45.8341 178.049 45.5141C175.169 45.1941 172.969 45.0341 171.449 45.0341C165.689 45.0341 161.689 45.5541 159.449 46.5941C157.289 47.5541 155.769 50.0341 154.889 54.0341C154.089 57.9541 153.689 64.9141 153.689 74.9141C153.689 84.1941 153.969 90.8341 154.529 94.8341C155.089 98.8341 156.209 101.554 157.889 102.994C159.569 104.434 162.369 105.154 166.289 105.154C168.449 105.154 170.809 104.954 173.369 104.554V81.5141H164.489ZM238.931 90.0341H210.491C210.491 95.2341 210.731 98.8741 211.211 100.954C211.691 102.954 212.731 104.314 214.331 105.034C215.931 105.674 218.731 105.994 222.731 105.994C226.571 105.994 231.491 105.674 237.491 105.034V115.234C235.491 115.794 232.811 116.234 229.451 116.554C226.171 116.954 222.971 117.154 219.851 117.154C213.131 117.154 208.171 116.154 204.971 114.154C201.851 112.074 199.811 108.954 198.851 104.794C197.971 100.554 197.531 94.1941 197.531 85.7141C197.531 77.3141 197.971 70.9941 198.851 66.7541C199.731 62.5141 201.691 59.3541 204.731 57.2741C207.771 55.1141 212.531 54.0341 219.011 54.0341C225.411 54.0341 229.971 55.0741 232.691 57.1541C235.491 59.1541 237.211 62.1941 237.851 66.2741C238.571 70.2741 238.931 76.7141 238.931 85.5941V90.0341ZM218.771 65.1941C216.291 65.1941 214.491 65.5541 213.371 66.2741C212.251 66.9941 211.491 68.3541 211.091 70.3541C210.771 72.3541 210.571 75.7141 210.491 80.4341H226.571V80.3141C226.571 75.6741 226.371 72.3141 225.971 70.2341C225.571 68.1541 224.851 66.7941 223.811 66.1541C222.771 65.5141 221.091 65.1941 218.771 65.1941ZM278.627 82.4741C278.627 77.1141 278.467 73.3541 278.147 71.1941C277.827 69.0341 277.187 67.6741 276.227 67.1141C275.267 66.4741 273.587 66.1541 271.187 66.1541C268.627 66.1541 266.787 66.7141 265.667 67.8341C264.547 68.8741 263.827 70.5541 263.507 72.8741C263.267 75.1941 263.147 78.9941 263.147 84.2741V116.194H250.187V54.9941H262.067L262.547 62.6741H263.267C264.307 59.6341 265.987 57.4341 268.307 56.0741C270.627 54.7141 273.627 54.0341 277.307 54.0341C281.307 54.0341 284.307 54.8341 286.307 56.4341C288.387 57.9541 289.787 60.3141 290.507 63.5141C291.227 66.6341 291.587 70.9541 291.587 76.4741V116.194H278.627V82.4741ZM339.614 116.194V81.0341H318.494V116.194H304.814V33.6341H318.494V68.1941H339.614V33.6341H353.294V116.194H339.614ZM395.352 108.514H394.632C393.592 111.554 391.912 113.754 389.592 115.114C387.272 116.474 384.312 117.154 380.712 117.154C376.712 117.154 373.672 116.394 371.592 114.874C369.512 113.274 368.112 110.914 367.392 107.794C366.752 104.594 366.432 100.234 366.432 94.7141V54.9941H379.392V88.7141C379.392 94.1541 379.512 97.9541 379.752 100.114C380.072 102.194 380.712 103.554 381.672 104.194C382.632 104.754 384.312 105.034 386.712 105.034C389.272 105.034 391.112 104.514 392.232 103.474C393.352 102.434 394.072 100.714 394.392 98.3141C394.712 95.9141 394.872 92.1141 394.872 86.9141V54.9941H407.832V116.194H395.832L395.352 108.514ZM446.978 117.154C439.858 117.154 435.458 114.314 433.778 108.634H432.938L432.458 116.194H420.578V27.0341H433.538V61.5941H434.258C436.178 56.5541 440.498 54.0341 447.218 54.0341C451.378 54.0341 454.538 55.0341 456.698 57.0341C458.938 58.9541 460.498 62.1541 461.378 66.6341C462.338 71.1141 462.818 77.4741 462.818 85.7141C462.818 94.1141 462.338 100.554 461.378 105.034C460.418 109.514 458.818 112.674 456.578 114.514C454.338 116.274 451.138 117.154 446.978 117.154ZM441.458 105.154C444.178 105.154 446.058 104.794 447.098 104.074C448.218 103.274 448.938 101.634 449.258 99.1541C449.658 96.5941 449.858 92.0741 449.858 85.5941C449.858 79.1941 449.658 74.7141 449.258 72.1541C448.938 69.5941 448.218 67.9541 447.098 67.2341C446.058 66.4341 444.178 66.0341 441.458 66.0341C439.538 66.0341 438.058 66.3541 437.018 66.9941C435.978 67.5541 435.178 68.6341 434.618 70.2341C433.898 72.7141 433.538 77.8341 433.538 85.5941C433.538 92.9541 433.818 97.7941 434.378 100.114C434.858 102.034 435.618 103.354 436.658 104.074C437.778 104.794 439.378 105.154 441.458 105.154Z" fill="black"/>
<rect x="4" y="4.34259" width="111.707" height="141.657" rx="21" stroke="black" stroke-width="8"/>
<path fill-rule="evenodd" clip-rule="evenodd" d="M101.189 92.366C100.935 93.2119 100.157 93.7912 99.2736 93.7912H74.9186C74.0052 93.7912 73.2079 93.1725 72.9812 92.2878L71.0326 84.6855C70.7083 83.4203 71.6639 82.1889 72.97 82.1889H101.555C102.894 82.1889 103.855 83.4804 103.47 84.7636L101.189 92.366Z" fill="black"/>
<path fill-rule="evenodd" clip-rule="evenodd" d="M87.1493 18.3488C90.6724 18.3488 93.5284 18.7298 93.5284 21.1551L93.5284 63.2784C93.5284 65.7036 90.6724 66.2828 87.1493 66.2828C83.6262 66.2828 80.7702 65.7036 80.7702 63.2784L80.7702 21.1551C80.7702 18.7298 83.6262 18.3488 87.1493 18.3488Z" fill="black"/>
<rect x="78.7711" y="27.1597" width="17.0932" height="29.5814" rx="7" fill="black"/>
<path fill-rule="evenodd" clip-rule="evenodd" d="M63.4017 41.2132C42.9544 41.2132 42.9544 41.2132 42.9544 62.9288H24.8109C24.8109 25.0972 24.8109 25.0972 63.4017 25.0972C75.6029 25.0972 75.5809 25.0972 82.2713 29.1957L79.166 51.6813C75.0582 43.6212 72.2653 41.2132 63.4017 41.2132Z" fill="black"/>
<path fill-rule="evenodd" clip-rule="evenodd" d="M41.8109 96.8022C41.8109 111.435 41.8109 111.435 61.3613 111.435C80.9117 111.435 80.158 110.918 80.158 93.7914H93.9757C93.9757 128.867 93.9757 128.867 61.9 128.867C24.8109 128.867 24.8109 128.867 24.8109 96.8022C24.8109 96.8022 30.3115 96.7914 33.7966 96.8022C37.2817 96.8129 41.8109 96.8022 41.8109 96.8022Z" fill="black"/>
<circle cx="32.9156" cy="74.1921" r="11.951" stroke="black" stroke-width="11"/>
</g>
<defs>
<clipPath id="clip0">
<rect width="468" height="150" fill="white"/>
</clipPath>
</defs>
</svg>
