<svg width="368" height="368" viewBox="0 0 368 368" fill="none" xmlns="http://www.w3.org/2000/svg">
<rect width="368" height="368" fill="white"/>
<path d="M184 176.538C217.102 176.538 243.937 150.391 243.937 118.138C243.937 85.8843 217.102 59.7377 184 59.7377" stroke="black" stroke-width="35"/>
<path d="M184 176.538C217.102 176.538 243.937 150.391 243.937 118.138C243.937 85.8843 217.102 59.7377 184 59.7377" stroke="black" stroke-width="35"/>
<path d="M184 308.262C221.332 308.262 251.595 278.775 251.595 242.4C251.595 206.025 221.332 176.538 184 176.538" stroke="black" stroke-width="35"/>
<path d="M184 308.262C146.668 308.262 116.405 278.775 116.405 242.4C116.405 206.025 146.668 176.538 184 176.538" stroke="black" stroke-width="35"/>
<line x1="150.202" y1="59.764" x2="184.058" y2="59.764" stroke="black" stroke-width="35"/>
</svg>
